0
SECTION
2
HEADER
9
$INSUNITS
70
4
9
$ACADVER
1
AC1014
9
$HANDSEED
5
FFFF
0
ENDSEC
0
SECTION
2
TABLES
0
TABLE
2
VPORT
5
8
100
AcDbSymbolTable
0
ENDTAB
0
TABLE
2
LTYPE
5
5
100
AcDbSymbolTable
0
LTYPE
5
14
100
AcDbSymbolTableRecord
100
AcDbLinetypeTableRecord
2
BYBLOCK
70
0
0
LTYPE
5
15
100
AcDbSymbolTableRecord
100
AcDbLinetypeTableRecord
2
BYLAYER
70
0
0
ENDTAB
0
TABLE
2
LAYER
5
2
100
AcDbSymbolTable
70
2
0
LAYER
5
50
100
AcDbSymbolTableRecord
100
AcDbLayerTableRecord
2
0
70
0
6
CONTINUOUS
0
ENDTAB
0
TABLE
2
STYLE
5
3
100
AcDbSymbolTable
70
1
0
STYLE
5
11
100
AcDbSymbolTableRecord
100
AcDbTextStyleTableRecord
2
STANDARD
70
0
0
ENDTAB
0
TABLE
2
VIEW
5
6
100
AcDbSymbolTable
70
0
0
ENDTAB
0
TABLE
2
UCS
5
7
100
AcDbSymbolTable
70
0
0
ENDTAB
0
TABLE
2
APPID
5
9
100
AcDbSymbolTable
70
2
0
APPID
5
12
100
AcDbSymbolTableRecord
100
AcDbRegAppTableRecord
2
ACAD
70
0
0
ENDTAB
0
TABLE
2
DIMSTYLE
5
A
100
AcDbSymbolTable
70
1
0
ENDTAB
0
TABLE
2
BLOCK_RECORD
5
1
100
AcDbSymbolTable
70
1
0
BLOCK_RECORD
5
1F
100
AcDbSymbolTableRecord
100
AcDbBlockTableRecord
2
*MODEL_SPACE
0
BLOCK_RECORD
5
1B
100
AcDbSymbolTableRecord
100
AcDbBlockTableRecord
2
*PAPER_SPACE
0
ENDTAB
0
ENDSEC
0
SECTION
2
BLOCKS
0
BLOCK
5
20
100
AcDbEntity
100
AcDbBlockBegin
2
*MODEL_SPACE
0
ENDBLK
5
21
100
AcDbEntity
100
AcDbBlockEnd
0
BLOCK
5
1C
100
AcDbEntity
100
AcDbBlockBegin
2
*PAPER_SPACE
0
ENDBLK
5
1D
100
AcDbEntity
100
AcDbBlockEnd
0
ENDSEC
0
SECTION
2
ENTITIES
0
SPLINE
5
100
100
AcDbEntity
8
0
100
AcDbSpline
70
0
71
3
72
8
73
4
74
0
42
0.000000001
43
0.0000000001
44
0.0000000001
40
0.27093197355301346
40
0.27093197355301346
40
0.27093197355301346
40
0.27093197355301346
40
0.35014461840756206
40
0.35014461840756206
40
0.35014461840756206
40
0.35014461840756206
10
17.855653503951658
20
-50.616718719568809
30
0
10
17.922173769514149
20
-50.418631241785789
30
0
10
17.986076704623027
20
-50.227577197213563
30
0
10
18.047406275149129
20
-50.043231180190588
30
0
0
LINE
5
101
100
AcDbEntity
8
0
100
AcDbLine
10
17.855653503951658
20
-50.616718719568809
30
0
11
1.5950547713119168
21
-50.616718719568809
31
0
0
SPLINE
5
102
100
AcDbEntity
8
0
100
AcDbSpline
70
4
71
5
72
12
73
6
74
0
42
0.000000001
43
0.0000000001
44
0.0000000001
40
0.98670049149054495
40
0.98670049149054495
40
0.98670049149054495
40
0.98670049149054495
40
0.98670049149054495
40
0.98670049149054495
40
1
40
1
40
1
40
1
40
1
40
1
41
1
41
1
41
1
41
1
41
1
41
1
10
1.2826890542584217
20
-50.621806410120925
30
0
10
1.3445493672050119
20
-50.619771826217118
30
0
10
1.4067158819198484
20
-50.618245414666568
30
0
10
1.4691888749364024
20
-50.617227629504413
30
0
10
1.5319684977289141
20
-50.616718719568809
30
0
10
1.5950547713119168
20
-50.616718719568809
30
0
0
SPLINE
5
103
100
AcDbEntity
8
0
100
AcDbSpline
70
0
71
3
72
8
73
4
74
0
42
0.000000001
43
0.0000000001
44
0.0000000001
40
0
40
0
40
0
40
0
40
0.12658072688898236
40
0.12658072688898236
40
0.12658072688898236
40
0.12658072688898236
10
1.6297258832901473
20
-49.45696523347123
30
0
10
1.5092420073700552
20
-49.861333157625545
30
0
10
1.3936196697024827
20
-50.249384789526161
30
0
10
1.2826890542584213
20
-50.621806410120946
30
0
0
SPLINE
5
104
100
AcDbEntity
8
0
100
AcDbSpline
70
0
71
3
72
16
73
12
74
0
42
0.000000001
43
0.0000000001
44
0.0000000001
40
0
40
0
40
0
40
0
40
0.47312427779373611
40
0.47312427779373611
40
0.71900065262630508
40
0.71900065262630508
40
0.93459338284179383
40
0.93459338284179383
40
1.1681856818807836
40
1.1681856818807836
40
1.9478137576829466
40
1.9478137576829466
40
1.9478137576829466
40
1.9478137576829466
10
10.815017936512801
20
-40.60306445120397
30
0
10
9.2651852109878181
20
-40.311169315960228
30
0
10
8.1028106668441993
20
-40.092247964527431
30
0
10
6.7070748937576283
20
-40.08069018840083
30
0
10
6.296059814429583
20
-40.133789139432352
30
0
10
5.6103505590344538
20
-40.376591353368894
30
0
10
5.3328510423491089
20
-40.546140392194047
30
0
10
4.8094074163165352
20
-41.020917860701864
30
0
10
4.5600924199117649
20
-41.343343689931345
30
0
10
3.5121802536819926
20
-43.139072816270058
30
0
10
2.8004657318541399
20
-45.527728738767749
30
0
10
1.6297258832901473
20
-49.45696523347123
30
0
0
SPLINE
5
105
100
AcDbEntity
8
0
100
AcDbSpline
70
0
71
3
72
12
73
8
74
0
42
0.000000001
43
0.0000000001
44
0.0000000001
40
0.20056474733617261
40
0.20056474733617261
40
0.20056474733617261
40
0.20056474733617261
40
0.23778036278759626
40
0.23778036278759626
40
0.39297677118437707
40
0.39297677118437707
40
0.65611141679041329
40
0.65611141679041329
40
0.65611141679041329
40
0.65611141679041329
10
17.284967494797154
20
-42.317769155688971
30
0
10
17.21563144818759
20
-42.264206372541651
30
0
10
17.14318940055005
20
-42.213365183302457
30
0
10
16.745492184725919
20
-41.961844806612362
30
0
10
16.346779764275656
20
-41.797053763277745
30
0
10
14.791846843259037
20
-41.352059483027631
30
0
10
13.302472588011502
20
-41.071551082021472
30
0
10
10.815017936512801
20
-40.60306445120397
30
0
0
ARC
5
106
100
AcDbEntity
8
0
100
AcDbCircle
10
23.760018713662703
20
-45.579089703115727
30
0
40
7.2500000000000124
210
0
220
0
230
1
100
AcDbArc
50
153.26675314931245
51
218.00597525987652
0
SPLINE
5
107
100
AcDbEntity
8
0
100
AcDbSpline
70
4
71
5
72
15
73
9
74
0
42
0.000000001
43
0.0000000001
44
0.0000000001
40
0
40
0
40
0
40
0
40
0
40
0
40
0.20000000000000001
40
0.40000000000000002
40
0.60000000000000009
40
0.71099101497102002
40
0.71099101497102002
40
0.71099101497102002
40
0.71099101497102002
40
0.71099101497102002
40
0.71099101497102002
41
1
41
1
41
1
41
1
41
1
41
1
41
1
41
1
41
1
10
-6.959730251207259
20
-48.435211768906555
30
0
10
-6.693354150173664
20
-48.554270751475315
30
0
10
-6.1613825127544342
20
-48.804688118829461
30
0
10
-5.3657613923754353
20
-49.217160405080989
30
0
10
-4.4240410172776903
20
-49.747948190332316
30
0
10
-3.470586765244259
20
-50.239198840198888
30
0
10
-2.77109372178032
20
-50.519787789441537
30
0
10
-2.3380857798495391
20
-50.651376027063904
30
0
10
-2.1825304105336785
20
-50.692815043124291
30
0
0
ARC
5
108
100
AcDbEntity
8
0
100
AcDbCircle
10
-9.000000134110449
20
-53.000000789761543
30
0
40
5
210
0
220
-0
230
1
100
AcDbArc
50
65.917352858295814
51
189.56659255526358
0
SPLINE
5
109
100
AcDbEntity
8
0
100
AcDbSpline
70
4
71
5
72
12
73
6
74
0
42
0.000000001
43
0.0000000001
44
0.0000000001
40
-0.17466263901811724
40
-0.17466263901811724
40
-0.17466263901811724
40
-0.17466263901811724
40
-0.17466263901811724
40
-0.17466263901811724
40
0
40
0
40
0
40
0
40
0
40
0
41
1
41
1
41
1
41
1
41
1
41
1
10
-13.77492290276507
20
-55.842831086790639
30
0
10
-13.770721193417554
20
-55.436574657029695
30
0
10
-13.78391551285789
20
-55.031071342553261
30
0
10
-13.814734981465215
20
-54.627857143993985
30
0
10
-13.863581276953326
20
-54.22782120986966
30
0
10
-13.9304656705983
20
-53.830969858683851
30
0
0
SPLINE
5
110
100
AcDbEntity
8
0
100
AcDbSpline
70
0
71
3
72
8
73
4
74
0
42
0.000000001
43
0.0000000001
44
0.0000000001
40
0
40
0
40
0
40
0
40
0.82181544019144648
40
0.82181544019144648
40
0.82181544019144648
40
0.82181544019144648
10
-16.624860781545479
20
-51.114083077099153
30
0
10
-15.311204654829753
20
-53.517941780665062
30
0
10
-14.534603893458662
20
-54.939043133943173
30
0
10
-13.774922902765063
20
-55.842831086790653
30
0
0
SPLINE
5
111
100
AcDbEntity
8
0
100
AcDbSpline
70
0
71
3
72
14
73
10
74
0
42
0.000000001
43
0.0000000001
44
0.0000000001
40
0
40
0
40
0
40
0
40
0.63864990234061414
40
0.63864990234061414
40
0.96748946477019904
40
0.96748946477019904
40
1.2828120473932825
40
1.2828120473932825
40
1.7990040496224409
40
1.7990040496224409
40
1.7990040496224409
40
1.7990040496224409
10
-16.674349039907284
20
-40.124879814770047
30
0
10
-17.795093932273424
20
-41.934813753161926
30
0
10
-18.518820033643912
20
-43.103586809271953
30
0
10
-19.010415570202433
20
-44.642917860962228
30
0
10
-19.071868103597328
20
-45.12579600189656
30
0
10
-18.983246504538133
20
-46.125631165422199
30
0
10
-18.841832262495682
20
-46.639336976190471
30
0
10
-18.207604341418481
20
-48.217806178889127
30
0
10
-17.54917602739939
20
-49.422670165303884
30
0
10
-16.624860781545479
20
-51.114083077099153
30
0
0
SPLINE
5
112
100
AcDbEntity
8
0
100
AcDbSpline
70
0
71
3
72
14
73
10
74
0
42
0.000000001
43
0.0000000001
44
0.0000000001
40
0
40
0
40
0
40
0
40
0.70371613403308819
40
0.70371613403308819
40
1.032895758978595
40
1.032895758978595
40
1.3342003281985082
40
1.3342003281985082
40
1.9028990853216061
40
1.9028990853216061
40
1.9028990853216061
40
1.9028990853216061
10
-7.1620662869165574
20
-35.637540667838088
30
0
10
-9.4966112884551634
20
-35.408839880304214
30
0
10
-10.972674093856776
20
-35.2642392297182
30
0
10
-12.573416371641342
20
-35.502956066612803
30
0
10
-13.000424681062515
20
-35.646056767223293
30
0
10
-13.754105673142721
20
-36.098982774387672
30
0
10
-14.083802960767336
20
-36.392503878604685
30
0
10
-15.058838189386822
20
-37.515929342531749
30
0
10
-15.723796334879347
20
-38.589795771310307
30
0
10
-16.674349039907284
20
-40.124879814770047
30
0
0
SPLINE
5
113
100
AcDbEntity
8
0
100
AcDbSpline
70
0
71
3
72
10
73
6
74
0
42
0.000000001
43
0.0000000001
44
0.0000000001
40
0
40
0
40
0
40
0
40
0.15161257340779455
40
0.15161257340779455
40
0.33894291622972428
40
0.33894291622972428
40
0.33894291622972428
40
0.33894291622972428
10
-3.5783184677476094
20
-36.00494577920071
30
0
10
-4.0803172304930451
20
-35.946624426762639
30
0
10
-4.6534208260949388
20
-35.88699409585454
30
0
10
-5.7263103469419905
20
-35.778196358817397
30
0
10
-6.3982380287070768
20
-35.712370092851565
30
0
10
-7.1620662869165574
20
-35.637540667838088
30
0
0
ARC
5
114
100
AcDbEntity
8
0
100
AcDbCircle
10
-3.3560001341104506
20
-41.000000789761543
30
0
40
5
210
0
220
-0
230
1
100
AcDbArc
50
70.176911034959119
51
92.548420628102946
0
SPLINE
5
115
100
AcDbEntity
8
0
100
AcDbSpline
70
0
71
3
72
10
73
6
74
0
42
0.000000001
43
0.0000000001
44
0.0000000001
40
0
40
0
40
0
40
0
40
0.13388802873685249
40
0.13388802873685249
40
0.26777614153595886
40
0.26777614153595886
40
0.26777614153595886
40
0.26777614153595886
10
0.27223445364332299
20
-37.537037127799024
30
0
10
-0.01678344634858879
20
-37.19696878413486
30
0
10
-0.2288685481657402
20
-36.947422201404777
30
0
10
-0.77960721054846871
20
-36.557720348063604
30
0
10
-1.118260431181934
20
-36.417565320819548
30
0
10
-1.6604148970351138
20
-36.29627984737855
30
0
0
SPLINE
5
116
100
AcDbEntity
8
0
100
AcDbSpline
70
0
71
3
72
14
73
10
74
0
42
0.000000001
43
0.0000000001
44
0.0000000001
40
0
40
0
40
0
40
0
40
1.5685299384877751
40
1.5685299384877751
40
2.2265387191024755
40
2.2265387191024755
40
2.6927954434485883
40
2.6927954434485883
40
3.1422727681062801
40
3.1422727681062801
40
3.1422727681062801
40
3.1422727681062801
10
-1.6279564083765319
20
-48.836072899486844
30
0
10
-0.13497583281499387
20
-43.825332237865723
30
0
10
0.61151445496575996
20
-41.319961907055209
30
0
10
0.94868115674153697
20
-39.315079818349162
30
0
10
0.9587355486042427
20
-38.915034179799974
30
0
10
0.85296449398831575
20
-38.381994322005383
30
0
10
0.77328353307991793
20
-38.206037345470875
30
0
10
0.55924981064368817
20
-37.874749210905378
30
0
10
0.42673444173186093
20
-37.718827096679405
30
0
10
0.27223445364332299
20
-37.537037127799024
30
0
0
SPLINE
5
117
100
AcDbEntity
8
0
100
AcDbSpline
70
0
71
3
72
8
73
4
74
0
42
0.000000001
43
0.0000000001
44
0.0000000001
40
1.3426467127296691
40
1.3426467127296691
40
1.3426467127296691
40
1.3426467127296691
40
1.4424325088186376
40
1.4424325088186376
40
1.4424325088186376
40
1.4424325088186376
10
-2.1825304105336798
20
-50.692815043124284
30
0
10
-2.0092743794987404
20
-50.115852083613383
30
0
10
-1.8251251061212148
20
-49.497810384327579
30
0
10
-1.6279564083765319
20
-48.836072899486844
30
0
0
SPLINE
5
118
100
AcDbEntity
8
0
100
AcDbSpline
70
0
71
3
72
14
73
10
74
0
42
0.000000001
43
0.0000000001
44
0.0000000001
40
0
40
0
40
0
40
0
40
1.2888870382202493
40
1.2888870382202493
40
1.7566614142810957
40
1.7566614142810957
40
2.191127417008135
40
2.191127417008135
40
2.5906642689262087
40
2.5906642689262087
40
2.5906642689262087
40
2.5906642689262087
10
1.7963177818904175
20
-23.269335660920774
30
0
10
2.9177044370621275
20
-19.12197495459143
30
0
10
3.4783977646479824
20
-17.048294601426758
30
0
10
3.4812672900358539
20
-15.23156726466963
30
0
10
3.4084693828892441
20
-14.845751688288066
30
0
10
3.1269973891608842
20
-14.167092911253597
30
0
10
2.9296765687424959
20
-13.872175299549479
30
0
10
2.4382983817937935
20
-13.270971668818882
30
0
10
2.1514331372330777
20
-12.965675522722815
30
0
10
1.8131610690404809
20
-12.605669698701538
30
0
0
SPLINE
5
119
100
AcDbEntity
8
0
100
AcDbSpline
70
0
71
3
72
16
73
12
74
0
42
0.000000001
43
0.0000000001
44
0.0000000001
40
0
40
0
40
0
40
0
40
0.47841917866874661
40
0.47841917866874661
40
0.75315896307427188
40
0.75315896307427188
40
0.98453625710859904
40
0.98453625710859904
40
1.2236722832241045
40
1.2236722832241045
40
1.9285086494056238
40
1.9285086494056238
40
1.9285086494056238
40
1.9285086494056238
10
-6.7949859799097201
20
-30.942106987621614
30
0
10
-5.2078533670453755
20
-31.097592490500453
30
0
10
-4.017503907397364
20
-31.214206617659563
30
0
10
-2.556891530165077
20
-31.147860285594156
30
0
10
-2.1114111418967241
20
-31.071384173358471
30
0
10
-1.4029566957122763
20
-30.79282291892854
30
0
10
-1.1246535125044168
20
-30.613338849522542
30
0
10
-0.61766531278705972
20
-30.120194580865135
30
0
10
-0.38914270305649601
20
-29.8004877084703
30
0
10
0.46188497193918909
20
-28.204626078640619
30
0
10
0.98085026603660097
20
-26.285275457171913
30
0
10
1.7963177818904175
20
-23.269335660920774
30
0
0
SPLINE
5
120
100
AcDbEntity
8
0
100
AcDbSpline
70
0
71
3
72
14
73
10
74
0
42
0.000000001
43
0.0000000001
44
0.0000000001
40
0
40
0
40
0
40
0
40
0.57773269153186568
40
0.57773269153186568
40
0.89814698039485696
40
0.89814698039485696
40
1.2576459533118993
40
1.2576459533118993
40
1.5888441725130085
40
1.5888441725130085
40
1.5888441725130085
40
1.5888441725130085
10
-15.692093104238323
20
-25.802191394156448
30
0
10
-14.745925437300915
20
-27.479504291516239
30
0
10
-14.151025701003753
20
-28.53410913080122
30
0
10
-13.064523124814043
20
-29.614410930021222
30
0
10
-12.650110792593189
20
-29.883061270695251
30
0
10
-11.579128868157149
20
-30.314332876003249
30
0
10
-10.887127249484381
20
-30.464916819675864
30
0
10
-9.1275920449922037
20
-30.713590212080703
30
0
10
-8.0942374474274086
20
-30.814824134156407
30
0
10
-6.7949859799097201
20
-30.942106987621614
30
0
0
SPLINE
5
121
100
AcDbEntity
8
0
100
AcDbSpline
70
0
71
3
72
14
73
10
74
0
42
0.000000001
43
0.0000000001
44
0.0000000001
40
0
40
0
40
0
40
0
40
0.79736147925899525
40
0.79736147925899525
40
1.1339473164286349
40
1.1339473164286349
40
1.4643568482994531
40
1.4643568482994531
40
1.914369714215266
40
1.914369714215266
40
1.914369714215266
40
1.914369714215266
10
-14.826359448944553
20
-15.878362379060418
30
0
10
-16.245671278787309
20
-18.125546251961119
30
0
10
-17.074982236795503
20
-19.438586960331964
30
0
10
-17.503750508664655
20
-20.991201018079131
30
0
10
-17.537176600145546
20
-21.412711085333846
30
0
10
-17.425076055190583
20
-22.27899628259561
30
0
10
-17.282901126331417
20
-22.721899540131606
30
0
10
-16.751893187635673
20
-23.923433973514776
30
0
10
-16.292783413111383
20
-24.737319449926115
30
0
10
-15.692093104238323
20
-25.802191394156448
30
0
0
SPLINE
5
122
100
AcDbEntity
8
0
100
AcDbSpline
70
0
71
3
72
14
73
10
74
0
42
0.000000001
43
0.0000000001
44
0.0000000001
40
0
40
0
40
0
40
0
40
0.61267148687921058
40
0.61267148687921058
40
0.93216712021303849
40
0.93216712021303849
40
1.2722124675307365
40
1.2722124675307365
40
1.6543759710355093
40
1.6543759710355093
40
1.6543759710355093
40
1.6543759710355093
10
-5.9124009630233143
20
-10.354612010306354
30
0
10
-7.9541701722536962
20
-10.398381037441112
30
0
10
-9.2379233440613202
20
-10.425900615636905
30
0
10
-10.731809609977125
20
-10.873094355889524
30
0
10
-11.162217888879919
20
-11.098957370566712
30
0
10
-12.01531130754946
20
-11.798982554491349
30
0
10
-12.432047234846863
20
-12.284359279569808
30
0
10
-13.437633793735813
20
-13.679602041890707
30
0
10
-14.041873196539594
20
-14.636290375584931
30
0
10
-14.826359448944553
20
-15.878362379060418
30
0
0
SPLINE
5
123
100
AcDbEntity
8
0
100
AcDbSpline
70
0
71
3
72
12
73
8
74
0
42
0.000000001
43
0.0000000001
44
0.0000000001
40
0
40
0
40
0
40
0
40
0.3622761858808522
40
0.3622761858808522
40
0.57816422832200187
40
0.57816422832200187
40
0.97481718193916123
40
0.97481718193916123
40
0.97481718193916123
40
0.97481718193916123
10
1.8131610690404809
20
-12.605669698701538
30
0
10
0.98624709733862492
20
-11.725624053655775
30
0
10
0.46652459593048989
20
-11.172507841270107
30
0
10
-0.5047613638985966
20
-10.627350703271185
30
0
10
-0.89905413669658207
20
-10.498850362125463
30
0
10
-2.346355505255437
20
-10.278167132005349
30
0
10
-3.6737526229812332
20
-10.306622380914366
30
0
10
-5.9124009630233143
20
-10.354612010306354
30
0
0
SPLINE
5
124
100
AcDbEntity
8
0
100
AcDbSpline
70
0
71
3
72
14
73
10
74
0
42
0.000000001
43
0.0000000001
44
0.0000000001
40
0
40
0
40
0
40
0
40
0.88744379148320574
40
0.88744379148320574
40
1.2742610220056609
40
1.2742610220056609
40
1.6798879759407592
40
1.6798879759407592
40
2.0652568066712709
40
2.0652568066712709
40
2.0652568066712709
40
2.0652568066712709
10
-30.297992597137899
20
-42.692294162100772
30
0
10
-27.339846632663587
20
-42.692499639321888
30
0
10
-25.636341693432954
20
-42.692617967310184
30
0
10
-23.881158341363577
20
-42.132989622131689
30
0
10
-23.431768171182853
20
-41.886489056381151
30
0
10
-22.558794134465728
20
-41.139072004107319
30
0
10
-22.144861848006833
20
-40.6338726613129
30
0
10
-21.241630744846862
20
-39.330872142320331
30
0
10
-20.75703490532004
20
-38.548279723352103
30
0
10
-20.159633718048575
20
-37.583513619091335
30
0
0
SPLINE
5
125
100
AcDbEntity
8
0
100
AcDbSpline
70
0
71
3
72
12
73
8
74
0
42
0.000000001
43
0.0000000001
44
0.0000000001
40
0
40
0
40
0
40
0
40
0.037982211518915614
40
0.037982211518915614
40
0.068722689652907523
40
0.068722689652907523
40
0.19817129497828984
40
0.19817129497828984
40
0.19817129497828984
40
0.19817129497828984
10
-37.685001327708385
20
-42.2804168478511
30
0
10
-37.595365023871892
20
-42.369830267486179
30
0
10
-37.525211321924608
20
-42.43980952948931
30
0
10
-37.296291128550067
20
-42.538914781598287
30
0
10
-37.166288961851912
20
-42.569232929488187
30
0
10
-36.276701092042607
20
-42.691865029111334
30
0
10
-34.637073170680132
20
-42.691982716473419
30
0
10
-30.297992597137899
20
-42.692294162100772
30
0
0
SPLINE
5
126
100
AcDbEntity
8
0
100
AcDbSpline
70
0
71
3
72
12
73
8
74
0
42
0.000000001
43
0.0000000001
44
0.0000000001
40
0
40
0
40
0
40
0
40
0.76829787798627069
40
0.76829787798627069
40
1.1524466824050383
40
1.1524466824050383
40
1.5365947929791743
40
1.5365947929791743
40
1.5365947929791743
40
1.5365947929791743
10
-38.785798154388893
20
-36.793510160432483
30
0
10
-38.441596780334926
20
-39.331267080293337
30
0
10
-38.26949609330795
20
-40.600145540223743
30
0
10
-38.063096712407173
20
-41.628940423979522
30
0
10
-38.002922281734961
20
-41.826118183345933
30
0
10
-37.865423737083887
20
-42.100432476983691
30
0
10
-37.788099847351539
20
-42.17756863592686
30
0
10
-37.685001327708385
20
-42.2804168478511
30
0
0
SPLINE
5
127
100
AcDbEntity
8
0
100
AcDbSpline
70
0
71
3
72
12
73
8
74
0
42
0.000000001
43
0.0000000001
44
0.0000000001
40
0
40
0
40
0
40
0
40
0.93051347725154476
40
0.93051347725154476
40
1.3312425335156373
40
1.3312425335156373
40
1.8708459664418287
40
1.8708459664418287
40
1.8708459664418287
40
1.8708459664418287
10
-35.344793719167519
20
-27.088692324942578
30
0
10
-37.409497310832151
20
-29.40334432282669
30
0
10
-38.441849106664463
20
-30.560670321768747
30
0
10
-39.057209815317634
20
-32.296199494433907
30
0
10
-39.129652007654073
20
-32.824563268093542
30
0
10
-39.123508964390354
20
-34.303607418618618
30
0
10
-38.982858563661893
20
-35.34060655527491
30
0
10
-38.785798154388893
20
-36.793510160432483
30
0
0
SPLINE
5
128
100
AcDbEntity
8
0
100
AcDbSpline
70
0
71
3
72
14
73
10
74
0
42
0.000000001
43
0.0000000001
44
0.0000000001
40
0
40
0
40
0
40
0
40
0.49412992197808742
40
0.49412992197808742
40
0.77518485396692638
40
0.77518485396692638
40
1.0977183424650088
40
1.0977183424650088
40
1.4049444997280982
40
1.4049444997280982
40
1.4049444997280982
40
1.4049444997280982
10
-26.654206611827036
20
-22.948836812959339
30
0
10
-28.291905005055789
20
-22.773105409723033
30
0
10
-29.341585369645724
20
-22.660470626553149
30
0
10
-30.696914000377312
20
-22.883376878699163
30
0
10
-31.127679203780847
20
-23.046434268283946
30
0
10
-32.082762986710122
20
-23.648626716029959
30
0
10
-32.599871732638078
20
-24.117360134271557
30
0
10
-33.794641745992088
20
-25.350888477646194
30
0
10
-34.478942111042706
20
-26.118026040717051
30
0
10
-35.344793719167519
20
-27.088692324942578
30
0
0
SPLINE
5
129
100
AcDbEntity
8
0
100
AcDbSpline
70
0
71
3
72
12
73
8
74
0
42
0.000000001
43
0.0000000001
44
0.0000000001
40
0
40
0
40
0
40
0
40
0.69461139295901497
40
0.69461139295901497
40
1.0149250346677259
40
1.0149250346677259
40
1.5571775404630519
40
1.5571775404630519
40
1.5571775404630519
40
1.5571775404630519
10
-19.544450014943891
20
-27.956258878694207
30
0
10
-20.682030198920796
20
-25.939614232862532
30
0
10
-21.311839599025379
20
-24.823119965025352
30
0
10
-22.414010312646056
20
-23.856337264276732
30
0
10
-22.78790782086039
20
-23.648225650711595
30
0
10
-24.032095610829941
20
-23.230208300867545
30
0
10
-25.06698813723812
20
-23.119156842760002
30
0
10
-26.654206611827036
20
-22.948836812959339
30
0
0
SPLINE
5
130
100
AcDbEntity
8
0
100
AcDbSpline
70
0
71
3
72
14
73
10
74
0
42
0.000000001
43
0.0000000001
44
0.0000000001
40
0
40
0
40
0
40
0
40
0.72758222854227139
40
0.72758222854227139
40
1.0483662810462326
40
1.0483662810462326
40
1.3622648778448354
40
1.3622648778448354
40
1.7993144559153802
40
1.7993144559153802
40
1.7993144559153802
40
1.7993144559153802
10
-20.159633718048575
20
-37.583513619091335
30
0
10
-18.882825086682942
20
-35.521545104435553
30
0
10
-18.121302092468834
20
-34.29173164713113
30
0
10
-17.708236746533846
20
-32.80694836801154
30
0
10
-17.673954072260852
20
-32.391291033873706
30
0
10
-17.783046453514451
20
-31.535591427456016
30
0
10
-17.922542292874105
20
-31.097463621481076
30
0
10
-18.454286614438502
20
-29.888839324838603
30
0
10
-18.923793995356284
20
-29.056523010365439
30
0
10
-19.544450014943891
20
-27.956258878694207
30
0
0
SPLINE
5
131
100
AcDbEntity
8
0
100
AcDbSpline
70
0
71
3
72
12
73
8
74
0
42
0.000000001
43
0.0000000001
44
0.0000000001
40
0
40
0
40
0
40
0
40
0.62861949694445896
40
0.62861949694445896
40
0.94607193343186691
40
0.94607193343186691
40
1.5478009524154075
40
1.5478009524154075
40
1.5478009524154075
40
1.5478009524154075
10
-65.451790001109259
20
-43.090218839631696
30
0
10
-66.489366613822511
20
-41.269743927581885
30
0
10
-67.105383789716001
20
-40.188914039586152
30
0
10
-68.198475437196635
20
-39.167521168582326
30
0
10
-68.593108674820286
20
-38.927552286795162
30
0
10
-70.015036174115167
20
-38.403484403172023
30
0
10
-71.292410883178974
20
-38.272514704151291
30
0
10
-73.381780769541876
20
-38.058290840771008
30
0
0
SPLINE
5
132
100
AcDbEntity
8
0
100
AcDbSpline
70
0
71
3
72
12
73
8
74
0
42
0.000000001
43
0.0000000001
44
0.0000000001
40
0
40
0
40
0
40
0
40
0.66765835129761175
40
0.66765835129761175
40
0.99127065186907448
40
0.99127065186907448
40
1.4600440315949395
40
1.4600440315949395
40
1.4600440315949395
40
1.4600440315949395
10
-64.439440618072965
20
-52.18785474457961
30
0
10
-63.734661344903969
20
-50.076869114049359
30
0
10
-63.35212486980695
20
-48.931079172678778
30
0
10
-63.406274547615745
20
-47.371860494214914
30
0
10
-63.52237844301704
20
-46.885271412848617
30
0
10
-64.074960419758099
20
-45.505912024897071
30
0
10
-64.631697270595851
20
-44.529098746934935
30
0
10
-65.451790001109259
20
-43.090218839631696
30
0
0
SPLINE
5
133
100
AcDbEntity
8
0
100
AcDbSpline
70
0
71
3
72
14
73
10
74
0
42
0.000000001
43
0.0000000001
44
0.0000000001
40
0
40
0
40
0
40
0
40
0.88999852290188775
40
0.88999852290188775
40
1.2333847558204976
40
1.2333847558204976
40
1.6016098991006613
40
1.6016098991006613
40
1.9805319619102686
40
1.9805319619102686
40
1.9805319619102686
40
1.9805319619102686
10
-72.437668500458216
20
-58.088285932527207
30
0
10
-69.527937899940781
20
-57.509883192362892
30
0
10
-67.929465401460931
20
-57.192135263041322
30
0
10
-66.517035608436331
20
-56.364673527597333
30
0
10
-66.200268994946313
20
-56.086995650906424
30
0
10
-65.632173516128233
20
-55.326936681827164
30
0
10
-65.401622435585992
20
-54.851362286267531
30
0
10
-64.952166322173156
20
-53.723587773577066
30
0
10
-64.721634532278145
20
-53.033091312907167
30
0
10
-64.439440618072965
20
-52.18785474457961
30
0
0
SPLINE
5
134
100
AcDbEntity
8
0
100
AcDbSpline
70
0
71
3
72
16
73
12
74
0
42
0.000000001
43
0.0000000001
44
0.0000000001
40
0
40
0
40
0
40
0
40
0.22934191051518907
40
0.22934191051518907
40
0.36163735062511915
40
0.36163735062511915
40
0.47916492716449932
40
0.47916492716449932
40
0.64704210361956294
40
0.64704210361956294
40
0.91281554890054428
40
0.91281554890054428
40
0.91281554890054428
40
0.91281554890054428
10
-80.397397440786193
20
-56.708718976960803
30
0
10
-80.021665368591769
20
-57.374485025392225
30
0
10
-79.739866314445948
20
-57.873809561715753
30
0
10
-79.24751631547872
20
-58.432705635602034
30
0
10
-79.057037464672646
20
-58.589353287294479
30
0
10
-78.631095325327607
20
-58.801885389309746
30
0
10
-78.403429087754077
20
-58.866816106437454
30
0
10
-77.742187206390042
20
-58.946134846293326
30
0
10
-77.262724659705185
20
-58.926902465423709
30
0
10
-75.659382166503448
20
-58.728705362468247
30
0
10
-74.324095889808973
20
-58.463274177462132
30
0
10
-72.437668500458216
20
-58.088285932527207
30
0
0
SPLINE
5
135
100
AcDbEntity
8
0
100
AcDbSpline
70
0
71
3
72
12
73
8
74
0
42
0.000000001
43
0.0000000001
44
0.0000000001
40
0
40
0
40
0
40
0
40
1.2550256313529149
40
1.2550256313529149
40
1.8828039392298481
40
1.8828039392298481
40
2.5108214093551955
40
2.5108214093551955
40
2.5108214093551955
40
2.5108214093551955
10
-80.372681572154193
20
-45.819461164460797
30
0
10
-81.136505669469656
20
-49.932557973847992
30
0
10
-81.518417718127395
20
-51.989106378541607
30
0
10
-81.523052597055283
20
-54.031130162008367
30
0
10
-81.429819647557082
20
-54.537764600643008
30
0
10
-81.054930333410752
20
-55.543628392205811
30
0
10
-80.773130522286024
20
-56.042952928529239
30
0
10
-80.397397440786193
20
-56.708718976960803
30
0
0
SPLINE
5
136
100
AcDbEntity
8
0
100
AcDbSpline
70
0
71
3
72
16
73
12
74
0
42
0.000000001
43
0.0000000001
44
0.0000000001
40
0
40
0
40
0
40
0
40
0.0011319527955519115
40
0.0011319527955519115
40
0.002555590613948595
40
0.002555590613948595
40
0.0066749934772705605
40
0.0066749934772705605
40
0.015542246050722977
40
0.015542246050722977
40
0.088380480024834923
40
0.088380480024834923
40
0.088380480024834923
40
0.088380480024834923
10
-78.801516169423877
20
-37.550166171378109
30
0
10
-78.804196364892334
20
-37.552821996911895
30
0
10
-78.806711473615792
20
-37.555314236767764
30
0
10
-78.812846016417325
20
-37.56493443351053
30
0
10
-78.816590055121949
20
-37.573098119891455
30
0
10
-78.835325620621731
20
-37.631078407179771
30
0
10
-78.858128578630357
20
-37.730321348001425
30
0
10
-79.014496538371475
20
-38.517516433356327
30
0
10
-79.300899968909363
20
-40.054964567109259
30
0
10
-79.555919865576044
20
-41.421322236744757
30
0
10
-79.887139458061171
20
-43.204889918234393
30
0
10
-80.372681572154193
20
-45.819461164460797
30
0
0
SPLINE
5
137
100
AcDbEntity
8
0
100
AcDbSpline
70
0
71
3
72
16
73
12
74
0
42
0.000000001
43
0.0000000001
44
0.0000000001
40
0
40
0
40
0
40
0
40
0.810661058122078
40
0.810661058122078
40
1.1886271873006187
40
1.1886271873006187
40
1.3637674127670734
40
1.3637674127670734
40
1.4517830952102262
40
1.4517830952102262
40
1.540139727657698
40
1.540139727657698
40
1.540139727657698
40
1.540139727657698
10
-73.381780769541876
20
-38.058290840771008
30
0
10
-76.069891884045006
20
-37.782677818920305
30
0
10
-77.413947441295093
20
-37.644871307995103
30
0
10
-78.407279484898453
20
-37.551741942996159
30
0
10
-78.594901971120237
20
-37.536620479150422
30
0
10
-78.737514748700207
20
-37.532582466011824
30
0
10
-78.762010934013773
20
-37.533972364849191
30
0
10
-78.784011267757094
20
-37.53854550660914
30
0
10
-78.78885567650407
20
-37.540489376155477
30
0
10
-78.796246996387836
20
-37.544946864332942
30
0
10
-78.798796596243932
20
-37.547472335483782
30
0
10
-78.801516169423877
20
-37.550166171378109
30
0
0
SPLINE
5
138
100
AcDbEntity
8
0
100
AcDbSpline
70
0
71
3
72
16
73
12
74
0
42
0.000000001
43
0.0000000001
44
0.0000000001
40
0
40
0
40
0
40
0
40
0.45557728611424869
40
0.45557728611424869
40
0.73286629603654918
40
0.73286629603654918
40
0.97970649603865156
40
0.97970649603865156
40
1.2688917841593126
40
1.2688917841593126
40
1.8882348470036661
40
1.8882348470036661
40
1.8882348470036661
40
1.8882348470036661
10
13.837104143584744
20
-16.004896968192099
30
0
10
12.318514159911103
20
-16.003180521693984
30
0
10
11.181957761681982
20
-16.001895883792624
30
0
10
9.7561436871580547
20
-16.212794517660598
30
0
10
9.3098254669191576
20
-16.341539208471762
30
0
10
8.5849703476614927
20
-16.733393098318242
30
0
10
8.3049583765034818
20
-16.974464244576307
30
0
10
7.7736120986530892
20
-17.624263551030268
30
0
10
7.521715885336957
20
-18.071123898602334
30
0
10
6.7537593075437128
20
-19.870036285031567
30
0
10
6.2683604635442993
20
-21.665244140907159
30
0
10
5.5579098839411945
20
-24.292787402457236
30
0
0
SPLINE
5
139
100
AcDbEntity
8
0
100
AcDbSpline
70
0
71
3
72
12
73
8
74
0
42
0.000000001
43
0.0000000001
44
0.0000000001
40
0
40
0
40
0
40
0
40
0.41310606486654594
40
0.41310606486654594
40
0.65554644258594552
40
0.65554644258594552
40
1.0714210210769743
40
1.0714210210769743
40
1.0714210210769743
40
1.0714210210769743
10
22.336924471343515
20
-18.600684906627968
30
0
10
21.387718179907829
20
-17.603091757001074
30
0
10
20.804266015919517
20
-16.989897462798304
30
0
10
19.687126606066766
20
-16.391162359262278
30
0
10
19.232404867157435
20
-16.250889324634503
30
0
10
17.615673717593243
20
-16.009172889020689
30
0
10
16.181729317290667
20
-16.007550202814123
30
0
10
13.837104143584744
20
-16.004896968192099
30
0
0
SPLINE
5
140
100
AcDbEntity
8
0
100
AcDbSpline
70
0
71
3
72
14
73
10
74
0
42
0.000000001
43
0.0000000001
44
0.0000000001
40
0
40
0
40
0
40
0
40
1.3271395582133125
40
1.3271395582133125
40
1.7370268860780613
40
1.7370268860780613
40
2.1131897358766474
40
2.1131897358766474
40
2.6632960101479064
40
2.6632960101479064
40
2.6632960101479064
40
2.6632960101479064
10
21.342815254017673
20
-29.333710330313671
30
0
10
23.071561477467391
20
-25.261680135713256
30
0
10
23.935934589192254
20
-23.225665038413041
30
0
10
24.098577096107441
20
-21.469674719372978
30
0
10
24.066338817156527
20
-21.121875798228853
30
0
10
23.876677227590921
20
-20.506342038670233
30
0
10
23.730321138195627
20
-20.235782755265017
30
0
10
23.2430994215974
20
-19.55305611431028
30
0
10
22.84173659926434
20
-19.131232055151479
30
0
10
22.336924471343515
20
-18.600684906627968
30
0
0
SPLINE
5
141
100
AcDbEntity
8
0
100
AcDbSpline
70
0
71
3
72
16
73
12
74
0
42
0.000000001
43
0.0000000001
44
0.0000000001
40
0
40
0
40
0
40
0
40
0.47312427779371441
40
0.47312427779371441
40
0.75315967369852554
40
0.75315967369852554
40
0.99785053745365571
40
0.99785053745365571
40
1.2663690112948105
40
1.2663690112948105
40
1.9440319153483738
40
1.9440319153483738
40
1.9440319153483738
40
1.9440319153483738
10
11.686008053903754
20
-36.310190178539585
30
0
10
13.235840779428665
20
-36.60208531378332
30
0
10
14.398215323572339
20
-36.821006665216117
30
0
10
15.871989240164341
20
-36.879811026709305
30
0
10
16.3364842828699
20
-36.83793426270617
30
0
10
17.110452137192201
20
-36.598216719969663
30
0
10
17.424004008109488
20
-36.42293094820198
30
0
10
18.03032551703161
20
-35.915556697334196
30
0
10
18.326982630337259
20
-35.562597137460507
30
0
10
19.385788947625304
20
-33.943471626918289
30
0
10
20.163006684709384
20
-32.112740873968207
30
0
10
21.342815254017673
20
-29.333710330313671
30
0
0
SPLINE
5
142
100
AcDbEntity
8
0
100
AcDbSpline
70
0
71
3
72
12
73
8
74
0
42
0.000000001
43
0.0000000001
44
0.0000000001
40
0
40
0
40
0
40
0
40
0.18356090068291789
40
0.18356090068291789
40
0.31351342916727643
40
0.31351342916727643
40
0.50280212826495285
40
0.50280212826495285
40
0.50280212826495285
40
0.50280212826495285
10
4.4009068627009729
20
-33.865055189119019
30
0
10
4.7971512957284475
20
-34.331289938003337
30
0
10
5.0487890359029279
20
-34.627375507467811
30
0
10
5.8363588482760109
20
-35.045449539595033
30
0
10
6.2678132512596649
20
-35.193058754775677
30
0
10
7.895837346365755
20
-35.596350308563331
30
0
10
9.3512833726571571
20
-35.870468674815015
30
0
10
11.686008053903754
20
-36.310190178539585
30
0
0
SPLINE
5
143
100
AcDbEntity
8
0
100
AcDbSpline
70
0
71
3
72
14
73
10
74
0
42
0.000000001
43
0.0000000001
44
0.0000000001
40
0
40
0
40
0
40
0
40
1.2888858690385698
40
1.2888858690385698
40
1.7863400283825441
40
1.7863400283825441
40
2.139016612221003
40
2.139016612221003
40
2.4602251352082662
40
2.4602251352082662
40
2.4602251352082662
40
2.4602251352082662
10
5.5579098839411945
20
-24.292787402457236
30
0
10
4.4365232287694853
20
-28.4401440715653
30
0
10
3.8758299011836295
20
-30.513822406119338
30
0
10
3.6753853874907048
20
-32.17216601128915
30
0
10
3.6778452768584842
20
-32.524384168136173
30
0
10
3.8059330736525796
20
-33.030837080014088
30
0
10
3.8931867565413421
20
-33.203698737824638
30
0
10
4.1167782922582505
20
-33.530739797785721
30
0
10
4.2480882125518651
20
-33.685243539948999
30
0
10
4.4009068627009729
20
-33.865055189119019
30
0
0
SPLINE
5
144
100
AcDbEntity
8
0
100
AcDbSpline
70
0
71
3
72
16
73
12
74
0
42
0.000000001
43
0.0000000001
44
0.0000000001
40
0
40
0
40
0
40
0
40
0.41021042446426548
40
0.41021042446426548
40
0.64170704423331371
40
0.64170704423331371
40
0.84575679399896364
40
0.84575679399896364
40
1.0725860437958781
40
1.0725860437958781
40
1.5523960108088601
40
1.5523960108088601
40
1.5523960108088601
40
1.5523960108088601
10
-80.297225906565785
20
16.687277434680638
30
0
10
-80.470879749841572
20
18.043573793575177
30
0
10
-80.59747626877558
20
19.032336232919839
30
0
10
-80.927452684051687
20
20.181819670627078
30
0
10
-81.073164422890599
20
20.515085718927921
30
0
10
-81.441838957404826
20
21.028747063464735
30
0
10
-81.650195768430109
20
21.217426986446768
30
0
10
-82.181861082792352
20
21.544037497620828
30
0
10
-82.523047234273605
20
21.678764525791067
30
0
10
-83.841242045703893
20
22.034488746581843
30
0
10
-85.098596813622891
20
22.182660233448409
30
0
10
-86.900505020335316
20
22.395003976835596
30
0
0
SPLINE
5
145
100
AcDbEntity
8
0
100
AcDbSpline
70
0
71
3
72
14
73
10
74
0
42
0.000000001
43
0.0000000001
44
0.0000000001
40
0
40
0
40
0
40
0
40
0.78723279420677772
40
0.78723279420677772
40
1.1157216742687106
40
1.1157216742687106
40
1.4347683500820272
40
1.4347683500820272
40
1.8901588232407871
40
1.8901588232407871
40
1.8901588232407871
40
1.8901588232407871
10
-84.833011708771195
20
8.0639988804000406
30
0
10
-82.682197892771228
20
9.5673117622858168
30
0
10
-81.425018434930948
20
10.446018259219274
30
0
10
-80.448696684370162
20
11.68273623516326
30
0
10
-80.259901793002882
20
12.045832541266481
30
0
10
-80.036289528192057
20
12.851806768876786
30
0
10
-79.997715628333196
20
13.290693921390837
30
0
10
-80.024916536991313
20
14.560450848779805
30
0
10
-80.142357845102168
20
15.477706456853129
30
0
10
-80.297225906565785
20
16.687277434680638
30
0
0
SPLINE
5
146
100
AcDbEntity
8
0
100
AcDbSpline
70
0
71
3
72
16
73
12
74
0
42
0.000000001
43
0.0000000001
44
0.0000000001
40
0
40
0
40
0
40
0
40
0.56030403925346484
40
0.56030403925346484
40
0.84530224140918286
40
0.84530224140918286
40
1.0748027027468141
40
1.0748027027468141
40
1.3019609026832468
40
1.3019609026832468
40
1.9580843597803064
40
1.9580843597803064
40
1.9580843597803064
40
1.9580843597803064
10
-94.515087876831501
20
9.2145261987187421
30
0
10
-93.232445835767948
20
7.8569333047887913
30
0
10
-92.314954359625986
20
6.8858284537277594
30
0
10
-91.14464521430763
20
5.9637984142795233
30
0
10
-90.787752214155688
20
5.7467438720453696
30
0
10
-90.156453945381472
20
5.5155066049563288
30
0
10
-89.873520019133579
20
5.4679512432333333
30
0
10
-89.276382928703541
20
5.4951413380814893
30
0
10
-88.973810201860289
20
5.5676929159266511
30
0
10
-87.714973784104146
20
6.0496464663049219
30
0
10
-86.563101434219931
20
6.8547496522830365
30
0
10
-84.833011708771195
20
8.0639988804000406
30
0
0
SPLINE
5
147
100
AcDbEntity
8
0
100
AcDbSpline
70
0
71
3
72
16
73
12
74
0
42
0.000000001
43
0.0000000001
44
0.0000000001
40
0
40
0
40
0
40
0
40
0.43793926427414037
40
0.43793926427414037
40
0.68676345691498686
40
0.68676345691498686
40
0.89985424618356369
40
0.89985424618356369
40
1.1278831693540921
40
1.1278831693540921
40
1.6734057529146071
40
1.6734057529146071
40
1.6734057529146071
40
1.6734057529146071
10
-95.94174901854494
20
18.54045081775763
30
0
10
-96.758957122534653
20
17.330831127650249
30
0
10
-97.359252882693269
20
16.442281971283887
30
0
10
-97.91862565650726
20
15.278889620498147
30
0
10
-98.042396725544663
20
14.905368485756401
30
0
10
-98.117812472538773
20
14.240398928349578
30
0
10
-98.091049502806854
20
13.94850284230229
30
0
10
-97.912311202209864
20
13.335742848608534
30
0
10
-97.750438525764338
20
13.009715991530433
30
0
10
-96.950812179552543
20
11.792581415281473
30
0
10
-95.966843478764247
20
10.751114760304198
30
0
10
-94.515087876831501
20
9.2145261987187421
30
0
0
SPLINE
5
148
100
AcDbEntity
8
0
100
AcDbSpline
70
0
71
3
72
14
73
10
74
0
42
0.000000001
43
0.0000000001
44
0.0000000001
40
0
40
0
40
0
40
0
40
0.68541199797379015
40
0.68541199797379015
40
0.99988012528240411
40
0.99988012528240411
40
1.2948326981103828
40
1.2948326981103828
40
1.7941583250097497
40
1.7941583250097497
40
1.7941583250097497
40
1.7941583250097497
10
-86.900505020335316
20
22.395003976835596
30
0
10
-89.169510614141274
20
22.662395332579276
30
0
10
-90.575048080325317
20
22.828031137822528
30
0
10
-92.092689558774822
20
22.611333362520444
30
0
10
-92.493742946243486
20
22.477236437360425
30
0
10
-93.218642955939231
20
22.045243419279132
30
0
10
-93.544000068818889
20
21.75886427115973
30
0
10
-94.461502223402434
20
20.731497604114999
30
0
10
-95.081422351351463
20
19.813897911551429
30
0
10
-95.94174901854494
20
18.54045081775763
30
0
0
SPLINE
5
149
100
AcDbEntity
8
0
100
AcDbSpline
70
0
71
3
72
14
73
10
74
0
42
0.000000001
43
0.0000000001
44
0.0000000001
40
0
40
0
40
0
40
0
40
1.1292089366866431
40
1.1292089366866431
40
1.5462374721654202
40
1.5462374721654202
40
1.8799428677414503
40
1.8799428677414503
40
2.2470840107202354
40
2.2470840107202354
40
2.2470840107202354
40
2.2470840107202354
10
-82.849742907399957
20
-5.8163635031245331
30
0
10
-80.066668274119422
20
-8.35061207769939
30
0
10
-78.675130957479269
20
-9.617736364986726
30
0
10
-77.433726056840783
20
-10.398895767640802
30
0
10
-77.165137999656324
20
-10.514510709422776
30
0
10
-76.718568606296969
20
-10.603433391372068
30
0
10
-76.532118595339298
20
-10.600917113690491
30
0
10
-76.111204495163292
20
-10.534040267451708
30
0
10
-75.877418038114286
20
-10.464083073519381
30
0
10
-75.597012156362339
20
-10.380175695405622
30
0
0
SPLINE
5
150
100
AcDbEntity
8
0
100
AcDbSpline
70
0
71
3
72
14
73
10
74
0
42
0.000000001
43
0.0000000001
44
0.0000000001
40
0
40
0
40
0
40
0
40
0.09164324580144978
40
0.09164324580144978
40
0.14841239044833621
40
0.14841239044833621
40
0.24416957210423651
40
0.24416957210423651
40
0.36578446967299744
40
0.36578446967299744
40
0.36578446967299744
40
0.36578446967299744
10
-88.315115056549516
20
0.46988069853560965
30
0
10
-88.340309335902347
20
0.16544393540782304
30
0
10
-88.359205045416957
20
-0.062883636937809961
30
0
10
-88.241309634092971
20
-0.46846224032785094
30
0
10
-88.161106722292004
20
-0.63208839931661154
30
0
10
-87.794786927684243
20
-1.1591445237208557
30
0
10
-87.405848040817233
20
-1.5812792321851004
30
0
10
-85.938593539248615
20
-3.0036774122703873
30
0
10
-84.702536012931816
20
-4.1292228743654755
30
0
10
-82.849742907399957
20
-5.8163635031245331
30
0
0
SPLINE
5
151
100
AcDbEntity
8
0
100
AcDbSpline
70
0
71
3
72
12
73
8
74
0
42
0.000000001
43
0.0000000001
44
0.0000000001
40
0
40
0
40
0
40
0
40
0.947362890567361
40
0.947362890567361
40
1.3798999285712472
40
1.3798999285712472
40
1.8947485941066062
40
1.8947485941066062
40
1.8947485941066062
40
1.8947485941066062
10
-83.03771996708214
20
5.3058258279301551
30
0
10
-85.626028953110293
20
3.496726789488096
30
0
10
-86.920183446124241
20
2.5921772702671539
30
0
10
-87.881045062552545
20
1.7116909744310762
30
0
10
-88.04996741631733
20
1.4982499127970759
30
0
10
-88.267789460289151
20
1.041742712797965
30
0
10
-88.287732013986528
20
0.80076552860827377
30
0
10
-88.315115056549516
20
0.46988069853560965
30
0
0
SPLINE
5
152
100
AcDbEntity
8
0
100
AcDbSpline
70
0
71
3
72
14
73
10
74
0
42
0.000000001
43
0.0000000001
44
0.0000000001
40
0
40
0
40
0
40
0
40
0.47837303272651266
40
0.47837303272651266
40
0.7395052483476654
40
0.7395052483476654
40
0.96951610990698867
40
0.96951610990698867
40
1.5270994555205948
40
1.5270994555205948
40
1.5270994555205948
40
1.5270994555205948
10
-73.437914294118684
20
6.3187000497319001
30
0
10
-74.811865087275379
20
7.1279801691970137
30
0
10
-75.759033001281622
20
7.6858779967017341
30
0
10
-77.00826275545532
20
8.1127843243187847
30
0
10
-77.409575079033175
20
8.1805493840785335
30
0
10
-78.18193126675807
20
8.1364086955245565
30
0
10
-78.54822276584126
20
8.0448635706259193
30
0
10
-79.933031851847218
20
7.4758529956934217
30
0
10
-81.136096549778784
20
6.6349688288498694
30
0
10
-83.03771996708214
20
5.3058258279301551
30
0
0
SPLINE
5
153
100
AcDbEntity
8
0
100
AcDbSpline
70
0
71
3
72
16
73
12
74
0
42
0.000000001
43
0.0000000001
44
0.0000000001
40
0
40
0
40
0
40
0
40
0.7758333007246333
40
0.7758333007246333
40
1.0855932768297563
40
1.0855932768297563
40
1.3535678367071633
40
1.3535678367071633
40
1.6411939367594561
40
1.6411939367594561
40
2.1732184888822728
40
2.1732184888822728
40
2.1732184888822728
40
2.1732184888822728
10
-71.462574595327183
20
-3.0810653463862625
30
0
10
-70.586020472348508
20
-0.64803781133794902
30
0
10
-70.023353130676099
20
0.91374268740563847
30
0
10
-69.802162245755852
20
2.4839259270938157
30
0
10
-69.803635615193841
20
2.8607506449409055
30
0
10
-69.936260998139147
20
3.4843641001695511
30
0
10
-70.049920509664702
20
3.7415015338925297
30
0
10
-70.400142737636401
20
4.2446578184743906
30
0
10
-70.645388598008708
20
4.4889611940416394
30
0
10
-71.541089808859994
20
5.201435071142968
30
0
10
-72.357566509133392
20
5.6823550667138347
30
0
10
-73.437914294118684
20
6.3187000497319001
30
0
0
SPLINE
5
154
100
AcDbEntity
8
0
100
AcDbSpline
70
0
71
3
72
14
73
10
74
0
42
0.000000001
43
0.0000000001
44
0.0000000001
40
0
40
0
40
0
40
0
40
0.1367543373329364
40
0.1367543373329364
40
0.22708213458928234
40
0.22708213458928234
40
0.35535991467371997
40
0.35535991467371997
40
0.54486440395141122
40
0.54486440395141122
40
0.54486440395141122
40
0.54486440395141122
10
-75.597012156362339
20
-10.380175695405622
30
0
10
-75.160297370124312
20
-10.249495153086761
30
0
10
-74.836663277747959
20
-10.15265236223707
30
0
10
-74.367849656372613
20
-9.8376134840671874
30
0
10
-74.19916586551048
20
-9.6716745984345547
30
0
10
-73.783761620859451
20
-9.0815960737947226
30
0
10
-73.542552277318336
20
-8.5909648951936024
30
0
10
-72.828069511533727
20
-6.8712200946060733
30
0
10
-72.282713146208096
20
-5.3574941971467771
30
0
10
-71.462574595327183
20
-3.0810653463862625
30
0
0
SPLINE
5
155
100
AcDbEntity
8
0
100
AcDbSpline
70
0
71
3
72
14
73
10
74
0
42
0.000000001
43
0.0000000001
44
0.0000000001
40
0
40
0
40
0
40
0
40
0.38745996072709249
40
0.38745996072709249
40
0.61721478399375829
40
0.61721478399375829
40
0.83551079203039635
40
0.83551079203039635
40
1.2713377444288916
40
1.2713377444288916
40
1.2713377444288916
40
1.2713377444288916
10
-34.915378715708847
20
-3.1050222174189823
30
0
10
-35.589389197009105
20
-4.206733560766259
30
0
10
-36.058374047456347
20
-4.9733179744077169
30
0
10
-36.436180877723572
20
-6.0780600488017891
30
0
10
-36.495376964956684
20
-6.4636543441973089
30
0
10
-36.440620710048563
20
-7.2728962758664659
30
0
10
-36.335247372747872
20
-7.6934368261505783
30
0
10
-35.766320580827156
20
-9.1778629892478119
30
0
10
-35.051931486500926
20
-10.460795752078688
30
0
10
-33.963611875091992
20
-12.415250120149279
30
0
0
SPLINE
5
156
100
AcDbEntity
8
0
100
AcDbSpline
70
0
71
3
72
12
73
8
74
0
42
0.000000001
43
0.0000000001
44
0.0000000001
40
0
40
0
40
0
40
0
40
0.8375338441749417
40
0.8375338441749417
40
1.1971771442048893
40
1.1971771442048893
40
1.6798223890387443
40
1.6798223890387443
40
1.6798223890387443
40
1.6798223890387443
10
-27.178770846242728
20
1.3514241123336301
30
0
10
-29.939184556519002
20
0.93411269825078402
30
0
10
-31.319391411657136
20
0.72545699120936114
30
0
10
-32.701737059450736
20
-0.070802725257869847
30
0
10
-33.039042532912497
20
-0.37295230010420577
30
0
10
-33.828678396748266
20
-1.328746613794427
30
0
10
-34.281304205712651
20
-2.0685901272326812
30
0
10
-34.915378715708847
20
-3.1050222174189823
30
0
0
SPLINE
5
157
100
AcDbEntity
8
0
100
AcDbSpline
70
0
71
3
72
14
73
10
74
0
42
0.000000001
43
0.0000000001
44
0.0000000001
40
0
40
0
40
0
40
0
40
0.69156928374375992
40
0.69156928374375992
40
1.0048436025560659
40
1.0048436025560659
40
1.289780164338044
40
1.289780164338044
40
1.8754843332373192
40
1.8754843332373192
40
1.8754843332373192
40
1.8754843332373192
10
-18.251521827891494
20
-3.0423968410355062
30
0
10
-19.509905315912491
20
-1.1109308924338104
30
0
10
-20.303422974070497
20
0.10702241904572737
30
0
10
-21.434870425518447
20
1.1618165632918456
30
0
10
-21.785619617971225
20
1.3913047565154142
30
0
10
-22.539507353309702
20
1.6752427150933704
30
0
10
-22.926512520044081
20
1.7404925746045832
30
0
10
-24.288160103892654
20
1.7884183396708218
30
0
10
-25.468582789237317
20
1.6099654294411636
30
0
10
-27.178770846242728
20
1.3514241123336301
30
0
0
SPLINE
5
158
100
AcDbEntity
8
0
100
AcDbSpline
70
0
71
3
72
14
73
10
74
0
42
0.000000001
43
0.0000000001
44
0.0000000001
40
0
40
0
40
0
40
0
40
0.67508313422010635
40
0.67508313422010635
40
0.99881694144466993
40
0.99881694144466993
40
1.2913350155033378
40
1.2913350155033378
40
1.9222254493219428
40
1.9222254493219428
40
1.9222254493219428
40
1.9222254493219428
10
-18.259402483815961
20
-13.6766960557165
30
0
10
-17.057750710265363
20
-11.774124084616195
30
0
10
-16.2790160886168
20
-10.54115568504718
30
0
10
-15.752059267626466
20
-9.0217205742055242
30
0
10
-15.677285623504563
20
-8.5747892158965975
30
0
10
-15.72514208813524
20
-7.7074031309889088
30
0
10
-15.828808471049431
20
-7.2984502164047118
30
0
10
-16.394773673173685
20
-5.8922799411438822
30
0
10
-17.142673098588112
20
-4.7443450811287491
30
0
10
-18.251521827891494
20
-3.0423968410355062
30
0
0
SPLINE
5
159
100
AcDbEntity
8
0
100
AcDbSpline
70
0
71
3
72
14
73
10
74
0
42
0.000000001
43
0.0000000001
44
0.0000000001
40
0
40
0
40
0
40
0
40
0.41329073810497213
40
0.41329073810497213
40
0.65102263360932655
40
0.65102263360932655
40
0.86482408882580741
40
0.86482408882580741
40
1.3691821607207673
40
1.3691821607207673
40
1.3691821607207673
40
1.3691821607207673
10
-26.234892735992894
20
-18.593103005077669
30
0
10
-24.865120724527259
20
-18.74008945561868
30
0
10
-23.906705439429995
20
-18.842934352230319
30
0
10
-22.704711132402831
20
-18.725656206127351
30
0
10
-22.329556800093627
20
-18.624317915989423
30
0
10
-21.658699176179127
20
-18.268393195625322
30
0
10
-21.360123516135815
20
-18.030820417018841
30
0
10
-20.317679692720006
20
-16.935560738988642
30
0
10
-19.521989290127223
20
-15.675746297760423
30
0
10
-18.259402483815961
20
-13.6766960557165
30
0
0
SPLINE
5
160
100
AcDbEntity
8
0
100
AcDbSpline
70
0
71
3
72
12
73
8
74
0
42
0.000000001
43
0.0000000001
44
0.0000000001
40
0
40
0
40
0
40
0
40
0.97662843982576708
40
0.97662843982576708
40
1.3585658475746578
40
1.3585658475746578
40
1.9546236895611875
40
1.9546236895611875
40
1.9546236895611875
40
1.9546236895611875
10
-33.963611875091992
20
-12.415250120149279
30
0
10
-32.379842267548042
20
-15.259452320720976
30
0
10
-31.587957463776068
20
-16.681553421006825
30
0
10
-30.24405155241562
20
-17.755787438590527
30
0
10
-29.840094737397322
20
-17.958084994332101
30
0
10
-28.590741701740335
20
-18.340302913101137
30
0
10
-27.624493984859342
20
-18.44398846987966
30
0
10
-26.234892735992894
20
-18.593103005077669
30
0
0
SPLINE
5
161
100
AcDbEntity
8
0
100
AcDbSpline
70
0
71
3
72
14
73
10
74
0
42
0.000000001
43
0.0000000001
44
0.0000000001
40
0
40
0
40
0
40
0
40
0.55962701347145916
40
0.55962701347145916
40
0.8594110492723106
40
0.8594110492723106
40
1.1503611449416495
40
1.1503611449416495
40
1.6187049331016967
40
1.6187049331016967
40
1.6187049331016967
40
1.6187049331016967
10
-72.946229189748578
20
-33.715645704255707
30
0
10
-71.09053428518061
20
-33.905910785755317
30
0
10
-69.875364164030714
20
-34.030502625484658
30
0
10
-68.409956670481449
20
-33.823800077069016
30
0
10
-67.973571257981604
20
-33.677391510606043
30
0
10
-67.145211197501581
20
-33.182602878193634
30
0
10
-66.752825506007298
20
-32.840677284741403
30
0
10
-65.62684173571175
20
-31.616544037190227
30
0
10
-64.833288904863451
20
-30.534199092735506
30
0
10
-63.715663737172889
20
-29.009844439810735
30
0
0
SPLINE
5
162
100
AcDbEntity
8
0
100
AcDbSpline
70
0
71
3
72
16
73
12
74
0
42
0.000000001
43
0.0000000001
44
0.0000000001
40
0
40
0
40
0
40
0
40
0.49301566311556161
40
0.49301566311556161
40
0.7443471752181694
40
0.7443471752181694
40
0.96757973857904034
40
0.96757973857904034
40
1.2457091856434803
40
1.2457091856434803
40
1.6592910891808745
40
1.6592910891808745
40
1.6592910891808745
40
1.6592910891808745
10
-79.346839795624234
20
-27.930372215893087
30
0
10
-79.031191096176997
20
-29.543159227200022
30
0
10
-78.812804434949044
20
-30.658992022607983
30
0
10
-78.347213852989867
20
-31.848903793866622
30
0
10
-78.166817909047751
20
-32.165078401501489
30
0
10
-77.73565214671352
20
-32.643927703382111
30
0
10
-77.500806862041699
20
-32.812818856824187
30
0
10
-76.893169823605319
20
-33.113666888300848
30
0
10
-76.48376556095829
20
-33.234857927001556
30
0
10
-75.214370566793292
20
-33.483092334144203
30
0
10
-74.234697345200232
20
-33.583538590094221
30
0
10
-72.946229189748578
20
-33.715645704255707
30
0
0
SPLINE
5
163
100
AcDbEntity
8
0
100
AcDbSpline
70
0
71
3
72
12
73
8
74
0
42
0.000000001
43
0.0000000001
44
0.0000000001
40
0
40
0
40
0
40
0
40
0.66299107731298113
40
0.66299107731298113
40
1.0027543057348989
40
1.0027543057348989
40
1.3560481501130124
40
1.3560481501130124
40
1.3560481501130124
40
1.3560481501130124
10
-78.013402130320685
20
-18.85045163789016
30
0
10
-79.168490172819986
20
-20.734527048811305
30
0
10
-79.75770594058018
20
-21.695602654236158
30
0
10
-80.030133026886276
20
-23.367842985980495
30
0
10
-80.014972127989225
20
-23.969432285858375
30
0
10
-79.810077872369746
20
-25.563486641435581
30
0
10
-79.613048876335014
20
-26.570193801047253
30
0
10
-79.346839795624234
20
-27.930372215893087
30
0
0
SPLINE
5
164
100
AcDbEntity
8
0
100
AcDbSpline
70
0
71
3
72
12
73
8
74
0
42
0.000000001
43
0.0000000001
44
0.0000000001
40
0
40
0
40
0
40
0
40
0.19689740571216011
40
0.19689740571216011
40
0.32305916573390175
40
0.32305916573390175
40
0.52799382720057031
40
0.52799382720057031
40
0.52799382720057031
40
0.52799382720057031
10
-73.968994603668662
20
-14.499901622122744
30
0
10
-74.597772624048574
20
-14.688051281053539
30
0
10
-74.992134577044936
20
-14.806056466582636
30
0
10
-75.598414020588493
20
-15.254460003249575
30
0
10
-75.825010085087527
20
-15.493336518647316
30
0
10
-76.53796975148525
20
-16.443859444773889
30
0
10
-77.097980594125929
20
-17.357298611008844
30
0
10
-78.013402130320685
20
-18.85045163789016
30
0
0
SPLINE
5
165
100
AcDbEntity
8
0
100
AcDbSpline
70
0
71
3
72
12
73
8
74
0
42
0.000000001
43
0.0000000001
44
0.0000000001
40
0
40
0
40
0
40
0
40
1.0018839319294928
40
1.0018839319294928
40
1.4888865701663829
40
1.4888865701663829
40
2.0040128435731108
40
2.0040128435731108
40
2.0040128435731108
40
2.0040128435731108
10
-66.424154744659873
20
-17.203467219656936
30
0
10
-69.353283931925901
20
-15.599341942455599
30
0
10
-70.817848525558929
20
-14.797279303854921
30
0
10
-72.219384469760101
20
-14.295062632161684
30
0
10
-72.554546619250203
20
-14.240473772917175
30
0
10
-73.213498529657969
20
-14.273830420087281
30
0
10
-73.535549749315848
20
-14.370199559318593
30
0
10
-73.968994603668662
20
-14.499901622122744
30
0
0
SPLINE
5
166
100
AcDbEntity
8
0
100
AcDbSpline
70
0
71
3
72
12
73
8
74
0
42
0.000000001
43
0.0000000001
44
0.0000000001
40
0
40
0
40
0
40
0
40
0.14548200247518656
40
0.14548200247518656
40
0.23999569554677527
40
0.23999569554677527
40
0.51100190515882249
40
0.51100190515882249
40
0.51100190515882249
40
0.51100190515882249
10
-60.213608441864459
20
-22.082263415640817
30
0
10
-60.313672750052589
20
-21.607759521211129
30
0
10
-60.385314665732011
20
-21.268034312394661
30
0
10
-60.691396030789164
20
-20.745504111442166
30
0
10
-60.859687119505146
20
-20.549568890651642
30
0
10
-61.853314323514077
20
-19.706668747772948
30
0
10
-63.312171485069513
20
-18.907731760339658
30
0
10
-66.424154744659873
20
-17.203467219656936
30
0
0
SPLINE
5
167
100
AcDbEntity
8
0
100
AcDbSpline
70
0
71
3
72
12
73
8
74
0
42
0.000000001
43
0.0000000001
44
0.0000000001
40
0
40
0
40
0
40
0
40
0.97779148642272518
40
0.97779148642272518
40
1.4235572976424367
40
1.4235572976424367
40
1.9557981868832366
40
1.9557981868832366
40
1.9557981868832366
40
1.9557981868832366
10
-63.715663737172889
20
-29.009844439810735
30
0
10
-61.788488088165735
20
-26.381334822958948
30
0
10
-60.824900263662144
20
-25.067080014533033
30
0
10
-60.187574151499064
20
-23.806355123425874
30
0
10
-60.097314298990916
20
-23.504797705040946
30
0
10
-60.04797884288088
20
-22.86766681876491
30
0
10
-60.117753129905665
20
-22.536802270301784
30
0
10
-60.213608441864459
20
-22.082263415640817
30
0
0
SPLINE
5
168
100
AcDbEntity
8
0
100
AcDbSpline
70
0
71
3
72
16
73
12
74
0
42
0.000000001
43
0.0000000001
44
0.0000000001
40
0
40
0
40
0
40
0
40
0.57299522417884441
40
0.57299522417884441
40
0.86191127741265783
40
0.86191127741265783
40
1.0935277331080642
40
1.0935277331080642
40
1.3208312244018066
40
1.3208312244018066
40
1.9867081767038999
40
1.9867081767038999
40
1.9867081767038999
40
1.9867081767038999
10
-64.813997858876988
20
-13.975119377758336
30
0
10
-63.138776825963554
20
-14.892547129145424
30
0
10
-61.942600131776537
20
-15.547628263663595
30
0
10
-60.524517646292288
20
-16.072639148673918
30
0
10
-60.114820611901962
20
-16.170456700429494
30
0
10
-59.440110306228881
20
-16.197540699884076
30
0
10
-59.155298602420451
20
-16.156580915913022
30
0
10
-58.596309910122613
20
-15.948493607122705
30
0
10
-58.332705423353737
20
-15.788168043141139
30
0
10
-57.282712304282029
20
-14.941818713228017
30
0
10
-56.437755606419756
20
-13.809730879503995
30
0
10
-55.166056396678094
20
-12.1058859284582
30
0
0
SPLINE
5
169
100
AcDbEntity
8
0
100
AcDbSpline
70
0
71
3
72
16
73
12
74
0
42
0.000000001
43
0.0000000001
44
0.0000000001
40
0
40
0
40
0
40
0
40
0.63610697717796394
40
0.63610697717796394
40
0.95065123037581889
40
0.95065123037581889
40
1.2056608505383661
40
1.2056608505383661
40
1.4615932224270769
40
1.4615932224270769
40
2.163655132762325
40
2.163655132762325
40
2.163655132762325
40
2.163655132762325
10
-68.224400156850621
20
-3.9724434312047752
30
0
10
-68.943090397283555
20
-5.9672858835248901
30
0
10
-69.450773272275242
20
-7.3764428392938797
30
0
10
-69.765157411721276
20
-8.9854407042010216
30
0
10
-69.796312439397028
20
-9.4351806520050054
30
0
10
-69.703327018149707
20
-10.158421887764622
30
0
10
-69.606612517084528
20
-10.454989594845046
30
0
10
-69.278440367112978
20
-11.021997387243106
30
0
10
-69.0529597976697
20
-11.282121616776033
30
0
10
-67.981475011961535
20
-12.240463839754172
30
0
10
-66.701955032671464
20
-12.941187573752091
30
0
10
-64.813997858876988
20
-13.975119377758336
30
0
0
SPLINE
5
170
100
AcDbEntity
8
0
100
AcDbSpline
70
0
71
3
72
14
73
10
74
0
42
0.000000001
43
0.0000000001
44
0.0000000001
40
0
40
0
40
0
40
0
40
0.23159669258080248
40
0.23159669258080248
40
0.38767936128696745
40
0.38767936128696745
40
0.57179775626326712
40
0.57179775626326712
40
0.86351631709790988
40
0.86351631709790988
40
0.86351631709790988
40
0.86351631709790988
10
-63.088045392548054
20
3.5297229989506551
30
0
10
-63.83459977431783
20
3.3331942911297352
30
0
10
-64.373847584773131
20
3.1912385569301547
30
0
10
-65.113596346062053
20
2.7760704327326842
30
0
10
-65.367240546476708
20
2.5607379125796665
30
0
10
-65.897151412920167
20
1.8790913853810898
30
0
10
-66.158928476486679
20
1.3888514366429301
30
0
10
-66.898007636530053
20
-0.29082378602710779
30
0
10
-67.433402970112184
20
-1.7769012087013667
30
0
10
-68.224400156850621
20
-3.9724434312047752
30
0
0
SPLINE
5
171
100
AcDbEntity
8
0
100
AcDbSpline
70
0
71
3
72
14
73
10
74
0
42
0.000000001
43
0.0000000001
44
0.0000000001
40
0
40
0
40
0
40
0
40
1.0825430617409937
40
1.0825430617409937
40
1.4209173502193739
40
1.4209173502193739
40
1.7274151612635069
40
1.7274151612635069
40
2.1715831558632934
40
2.1715831558632934
40
2.1715831558632934
40
2.1715831558632934
10
-55.887951932465036
20
-1.3954689439000934
30
0
10
-58.14374931863447
20
1.4209975465275622
30
0
10
-59.271648011719186
20
2.8292307917413906
30
0
10
-60.452979508151699
20
3.6373153534656986
30
0
10
-60.711719044153611
20
3.7521146824101423
30
0
10
-61.214307488239044
20
3.8595534363124253
30
0
10
-61.456396740746904
20
3.8625579854583365
30
0
10
-62.106514576703603
20
3.7881087075269528
30
0
10
-62.541784059445966
20
3.6735250267045991
30
0
10
-63.088045392548054
20
3.5297229989506551
30
0
0
SPLINE
5
172
100
AcDbEntity
8
0
100
AcDbSpline
70
0
71
3
72
16
73
12
74
0
42
0.000000001
43
0.0000000001
44
0.0000000001
40
0
40
0
40
0
40
0
40
0.53120881351787552
40
0.53120881351787552
40
0.82364396686777863
40
0.82364396686777863
40
1.0813427113905025
40
1.0813427113905025
40
1.3734268615740586
40
1.3734268615740586
40
1.952128417957421
40
1.952128417957421
40
1.952128417957421
40
1.952128417957421
10
-55.166056396678094
20
-12.1058859284582
30
0
10
-54.106938084148759
20
-10.686860599559992
30
0
10
-53.343815920634022
20
-9.6644161131787687
30
0
10
-52.643965707371727
20
-8.3315111902421997
30
0
10
-52.49025259779107
20
-7.9082359524718431
30
0
10
-52.383019499089734
20
-7.1314434080651239
30
0
10
-52.409316389805809
20
-6.7835939876298745
30
0
10
-52.607751017732589
20
-6.0276094690608737
30
0
10
-52.801952719270638
20
-5.6053990940472875
30
0
10
-53.655970357140561
20
-4.1822102771768792
30
0
10
-54.583331573851694
20
-3.0243531236692101
30
0
10
-55.887951932465036
20
-1.3954689439000934
30
0
0
SPLINE
5
173
100
AcDbEntity
8
0
100
AcDbSpline
70
0
71
3
72
16
73
12
74
0
42
0.000000001
43
0.0000000001
44
0.0000000001
40
0
40
0
40
0
40
0
40
0.57989354262047565
40
0.57989354262047565
40
0.87899435544886728
40
0.87899435544886728
40
1.1371812770989518
40
1.1371812770989518
40
1.4717209988948692
40
1.4717209988948692
40
1.8736539714156615
40
1.8736539714156615
40
1.8736539714156615
40
1.8736539714156615
10
-38.434689094737166
20
-24.525412092195182
30
0
10
-37.147970168364466
20
-23.082928057316416
30
0
10
-36.262192287366311
20
-22.08992140636856
30
0
10
-35.48317322087609
20
-20.792884027552731
30
0
10
-35.317197572713525
20
-20.388407731601376
30
0
10
-35.184397478597361
20
-19.623250515682088
30
0
10
-35.193607094906405
20
-19.265879623547349
30
0
10
-35.368060512809635
20
-18.374495248664118
30
0
10
-35.57791353049263
20
-17.822196504286314
30
0
10
-36.270116049555341
20
-16.367599313435186
30
0
10
-36.800017146806695
20
-15.415978573248825
30
0
10
-37.472829200938349
20
-14.207711769726101
30
0
0
SPLINE
5
174
100
AcDbEntity
8
0
100
AcDbSpline
70
0
71
3
72
16
73
12
74
0
42
0.000000001
43
0.0000000001
44
0.0000000001
40
0
40
0
40
0
40
0
40
0.71867868826629733
40
0.71867868826629733
40
1.0491139687971198
40
1.0491139687971198
40
1.3398743608849875
40
1.3398743608849875
40
1.6881713921154731
40
1.6881713921154731
40
2.213648641013068
40
2.213648641013068
40
2.213648641013068
40
2.213648641013068
10
-49.011966596161322
20
-25.947208382274933
30
0
10
-46.867097225937933
20
-27.014173140565916
30
0
10
-45.435713764761381
20
-27.726214503027485
30
0
10
-43.819390611924184
20
-28.17113129785885
30
0
10
-43.379623914020016
20
-28.224997754034963
30
0
10
-42.610598398273567
20
-28.155772886945631
30
0
10
-42.281854298815773
20
-28.053501860999489
30
0
10
-41.576415998424103
20
-27.692912019306139
30
0
10
-41.190441770049446
20
-27.401383912233378
30
0
10
-40.120924768913753
20
-26.415773097271192
30
0
10
-39.387801269727163
20
-25.593902171403169
30
0
10
-38.434689094737166
20
-24.525412092195182
30
0
0
SPLINE
5
175
100
AcDbEntity
8
0
100
AcDbSpline
70
0
71
3
72
14
73
10
74
0
42
0.000000001
43
0.0000000001
44
0.0000000001
40
0
40
0
40
0
40
0
40
0.1369188174171897
40
0.1369188174171897
40
0.22597978519635978
40
0.22597978519635978
40
0.35885314493654441
40
0.35885314493654441
40
0.51052366809635896
40
0.51052366809635896
40
0.51052366809635896
40
0.51052366809635896
10
-55.812140991404647
20
-21.069155035005238
30
0
10
-55.717965352120629
20
-21.515729005110625
30
0
10
-55.648964710470537
20
-21.842924983983334
30
0
10
-55.36223480773242
20
-22.339717595806611
30
0
10
-55.204812448817371
20
-22.524755565615347
30
0
10
-54.609547414061851
20
-23.023871660725472
30
0
10
-54.073081494674469
20
-23.355556479715894
30
0
10
-52.279469312759886
20
-24.321791968179443
30
0
10
-50.931415282825078
20
-24.992380285126451
30
0
10
-49.011966596161322
20
-25.947208382274933
30
0
0
SPLINE
5
176
100
AcDbEntity
8
0
100
AcDbSpline
70
0
71
3
72
12
73
8
74
0
42
0.000000001
43
0.0000000001
44
0.0000000001
40
0
40
0
40
0
40
0
40
0.95037116098723307
40
0.95037116098723307
40
1.3777200393296627
40
1.3777200393296627
40
1.9008633512744677
40
1.9008633512744677
40
1.9008633512744677
40
1.9008633512744677
10
-52.374753906443708
20
-14.321117315278675
30
0
10
-54.26959545027713
20
-16.859855279908803
30
0
10
-55.217016222193834
20
-18.129224262223868
30
0
10
-55.839898794851578
20
-19.352023729192418
30
0
10
-55.928407380363574
20
-19.64518423934064
30
0
10
-55.979356343994155
20
-20.276232104657417
30
0
10
-55.909087873857104
20
-20.609440033171687
30
0
10
-55.812140991404647
20
-21.069155035005238
30
0
0
SPLINE
5
177
100
AcDbEntity
8
0
100
AcDbSpline
70
0
71
3
72
12
73
8
74
0
42
0.000000001
43
0.0000000001
44
0.0000000001
40
0
40
0
40
0
40
0
40
0.45534526124358721
40
0.45534526124358721
40
0.7214597564473153
40
0.7214597564473153
40
1.196269421305721
40
1.196269421305721
40
1.196269421305721
40
1.196269421305721
10
-44.612719617401567
20
-8.8814703400792983
30
0
10
-46.124268054735474
20
-9.0192796237691013
30
0
10
-47.060646130089417
20
-9.1046500880163279
30
0
10
-48.310547053269246
20
-9.631687442932396
30
0
10
-48.721268177976867
20
-9.9105465844676992
30
0
10
-49.962864639933741
20
-11.089625687585215
30
0
10
-50.870109536682932
20
-12.3051683448793
30
0
10
-52.374753906443708
20
-14.321117315278675
30
0
0
SPLINE
5
178
100
AcDbEntity
8
0
100
AcDbSpline
70
0
71
3
72
14
73
10
74
0
42
0.000000001
43
0.0000000001
44
0.0000000001
40
0
40
0
40
0
40
0
40
0.9169098978091712
40
0.9169098978091712
40
1.2241689854226379
40
1.2241689854226379
40
1.5260451065183132
40
1.5260451065183132
40
1.9487179796179244
40
1.9487179796179244
40
1.9487179796179244
40
1.9487179796179244
10
-37.472829200938349
20
-14.207711769726101
30
0
10
-38.959750501552449
20
-11.537423364951502
30
0
10
-39.748672364734148
20
-10.120637619359448
30
0
10
-40.856132653376463
20
-9.1670461963407615
30
0
10
-41.138655839138025
20
-9.0063432448476473
30
0
10
-41.766249855878534
20
-8.8029401863142933
30
0
10
-42.108843964028033
20
-8.7587883932263448
30
0
10
-43.071894258678768
20
-8.740989005680543
30
0
10
-43.748241663326624
20
-8.8026534801027605
30
0
10
-44.612719617401567
20
-8.8814703400792983
30
0
0
SPLINE
5
179
100
AcDbEntity
8
0
100
AcDbSpline
70
0
71
3
72
16
73
12
74
0
42
0.000000001
43
0.0000000001
44
0.0000000001
40
0
40
0
40
0
40
0
40
0.96034583429829645
40
0.96034583429829645
40
1.2895140630932254
40
1.2895140630932254
40
1.5479053080823466
40
1.5479053080823466
40
1.7941669472176205
40
1.7941669472176205
40
2.5063075138270183
40
2.5063075138270183
40
2.5063075138270183
40
2.5063075138270183
10
-51.032660438731334
20
-43.880367638256374
30
0
10
-47.878056981838697
20
-43.336441028290764
30
0
10
-45.902984466443826
20
-42.995892838188553
30
0
10
-44.290878503528575
20
-42.35333268605789
30
0
10
-43.97191356331173
20
-42.17385159656439
30
0
10
-43.534372722772822
20
-41.800795738478286
30
0
10
-43.379853842783902
20
-41.611908804310417
30
0
10
-43.156234476537577
20
-41.170183569356183
30
0
10
-43.08809745906234
20
-40.930597341473799
30
0
10
-42.940817003653827
20
-39.88198300779603
30
0
10
-43.08315437420746
20
-38.83254603773721
30
0
10
-43.284215436493383
20
-37.350146080639192
30
0
0
SPLINE
5
180
100
AcDbEntity
8
0
100
AcDbSpline
70
0
71
3
72
16
73
12
74
0
42
0.000000001
43
0.0000000001
44
0.0000000001
40
0
40
0
40
0
40
0
40
0.39070037314485528
40
0.39070037314485528
40
0.63623647877974188
40
0.63623647877974188
40
0.84972808995763693
40
0.84972808995763693
40
1.1343629198987029
40
1.1343629198987029
40
1.5608664083496842
40
1.5608664083496842
40
1.5608664083496842
40
1.5608664083496842
10
-62.02328480294846
20
-40.854389549877467
30
0
10
-61.378405600216006
20
-41.985851508903203
30
0
10
-60.896371175628275
20
-42.831596901297488
30
0
10
-60.088393374344619
20
-43.822922839481713
30
0
10
-59.771076028264062
20
-44.111808690664702
30
0
10
-59.085412129776209
20
-44.499600010623396
30
0
10
-58.732936597044031
20
-44.616588223899107
30
0
10
-57.765944705355338
20
-44.768417352296375
30
0
10
-57.09987126788036
20
-44.762795824039259
30
0
10
-54.988515530930648
20
-44.562448565136037
30
0
10
-53.320894294287449
20
-44.274912087620272
30
0
10
-51.032660438731334
20
-43.880367638256374
30
0
0
SPLINE
5
181
100
AcDbEntity
8
0
100
AcDbSpline
70
0
71
3
72
14
73
10
74
0
42
0.000000001
43
0.0000000001
44
0.0000000001
40
0
40
0
40
0
40
0
40
0.77460530516462323
40
0.77460530516462323
40
1.0956927728531654
40
1.0956927728531654
40
1.3914994012134072
40
1.3914994012134072
40
1.9594219609106873
40
1.9594219609106873
40
1.9594219609106873
40
1.9594219609106873
10
-60.722718193247928
20
-31.116676435456895
30
0
10
-62.249420948684715
20
-33.198981412260601
30
0
10
-63.171397770737094
20
-34.456486789925343
30
0
10
-63.734482877429599
20
-35.924564287910776
30
0
10
-63.810423643038696
20
-36.318319430474453
30
0
10
-63.790456638160876
20
-37.093498170900304
30
0
10
-63.707864366555484
20
-37.464901438484091
30
0
10
-63.280167032348579
20
-38.649147973600925
30
0
10
-62.757177203545858
20
-39.566750981637682
30
0
10
-62.02328480294846
20
-40.854389549877467
30
0
0
SPLINE
5
182
100
AcDbEntity
8
0
100
AcDbSpline
70
0
71
3
72
16
73
12
74
0
42
0.000000001
43
0.0000000001
44
0.0000000001
40
0
40
0
40
0
40
0
40
0.65013236452198497
40
0.65013236452198497
40
0.96601359442485424
40
0.96601359442485424
40
1.2255039390168234
40
1.2255039390168234
40
1.4864070050215641
40
1.4864070050215641
40
2.1382376625263451
40
2.1382376625263451
40
2.1382376625263451
40
2.1382376625263451
10
-50.420496577138707
20
-29.067140684114115
30
0
10
-52.360792518031019
20
-28.101942138292468
30
0
10
-53.717214491542016
20
-27.427191195015613
30
0
10
-55.282246632217067
20
-26.93914878697899
30
0
10
-55.721192690564123
20
-26.861612896506195
30
0
10
-56.449475139729117
20
-26.879759151769061
30
0
10
-56.75536599359269
20
-26.947183424588175
30
0
10
-57.357106265139855
20
-27.217252661135952
30
0
10
-57.649831460218522
20
-27.41912210966461
30
0
10
-58.711195797459581
20
-28.373114808423718
30
0
10
-59.533494848748028
20
-29.494667383619678
30
0
10
-60.722718193247928
20
-31.116676435456895
30
0
0
SPLINE
5
183
100
AcDbEntity
8
0
100
AcDbSpline
70
0
71
3
72
14
73
10
74
0
42
0.000000001
43
0.0000000001
44
0.0000000001
40
0
40
0
40
0
40
0
40
0.52787866845149323
40
0.52787866845149323
40
0.83266462973178446
40
0.83266462973178446
40
1.1624711856300334
40
1.1624711856300334
40
1.5623969234598198
40
1.5623969234598198
40
1.5623969234598198
40
1.5623969234598198
10
-43.284215436493383
20
-37.350146080639192
30
0
10
-43.520707776536028
20
-35.606515410695245
30
0
10
-43.675956067143112
20
-34.46188772038581
30
0
10
-44.249073834823747
20
-33.071509605825383
30
0
10
-44.525111840996402
20
-32.657868362942239
30
0
10
-45.334444791615127
20
-31.851649403231747
30
0
10
-45.89215418460217
20
-31.459221747490425
30
0
10
-47.572903087846612
20
-30.483673614493767
30
0
10
-48.79072976847042
20
-29.877866780377353
30
0
10
-50.420496577138707
20
-29.067140684114115
30
0
0
SPLINE
5
184
100
AcDbEntity
8
0
100
AcDbSpline
70
0
71
3
72
14
73
10
74
0
42
0.000000001
43
0.0000000001
44
0.0000000001
40
0
40
0
40
0
40
0
40
0.78464968697102155
40
0.78464968697102155
40
1.1317240158610276
40
1.1317240158610276
40
1.4942715962904032
40
1.4942715962904032
40
1.8472315932097219
40
1.8472315932097219
40
1.8472315932097219
40
1.8472315932097219
10
-14.886352557058151
20
-0.70148675599319255
30
0
10
-13.458597050540426
20
-2.8929130051349352
30
0
10
-12.629264521312724
20
-4.1658347802709015
30
0
10
-11.350385393863284
20
-5.2197662022430276
30
0
10
-10.941011153353834
20
-5.4418015333760517
30
0
10
-9.9421004346606594
20
-5.7396465966001999
30
0
10
-9.3545606320211974
20
-5.8066306491076203
30
0
10
-7.9018208353100512
20
-5.8532272035513575
30
0
10
-7.043906139754629
20
-5.8348361916388436
30
0
10
-5.9802908759464923
20
-5.8120356019201136
30
0
0
SPLINE
5
185
100
AcDbEntity
8
0
100
AcDbSpline
70
0
71
3
72
14
73
10
74
0
42
0.000000001
43
0.0000000001
44
0.0000000001
40
0
40
0
40
0
40
0
40
0.4282013653025098
40
0.4282013653025098
40
0.67317866354282097
40
0.67317866354282097
40
0.93068800212718394
40
0.93068800212718394
40
1.3614923590752552
40
1.3614923590752552
40
1.3614923590752552
40
1.3614923590752552
10
-16.442572166636602
20
8.4808339023726997
30
0
10
-17.047530721994441
20
7.1880390298672463
30
0
10
-17.454686628760005
20
6.3179479072357552
30
0
10
-17.69829152814674
20
5.1099987074297184
30
0
10
-17.705112227537068
20
4.7001508082214052
30
0
10
-17.521562063994423
20
3.797352514781192
30
0
10
-17.3263523060597
20
3.3251758515088197
30
0
10
-16.604585300181689
20
1.9357919962373997
30
0
10
-15.89471598714522
20
0.84622874374791746
30
0
10
-14.886352557058151
20
-0.70148675599319255
30
0
0
SPLINE
5
186
100
AcDbEntity
8
0
100
AcDbSpline
70
0
71
3
72
12
73
8
74
0
42
0.000000001
43
0.0000000001
44
0.0000000001
40
0
40
0
40
0
40
0
40
0.88786271782101445
40
0.88786271782101445
40
1.2636681600374362
40
1.2636681600374362
40
1.7792588386750832
40
1.7792588386750832
40
1.7792588386750832
40
1.7792588386750832
10
-8.852919151499874
20
13.881868893319149
30
0
10
-11.722644664958128
20
13.158289836261448
30
0
10
-13.157507421687257
20
12.796500307732597
30
0
10
-14.507772877772922
20
11.83560908374117
30
0
10
-14.821019012705751
20
11.494791620383012
30
0
10
-15.527770709970943
20
10.435762255833742
30
0
10
-15.907923264865008
20
9.6233772265052622
30
0
10
-16.442572166636602
20
8.4808339023726997
30
0
0
SPLINE
5
187
100
AcDbEntity
8
0
100
AcDbSpline
70
0
71
3
72
14
73
10
74
0
42
0.000000001
43
0.0000000001
44
0.0000000001
40
0
40
0
40
0
40
0
40
0.47371464475350561
40
0.47371464475350561
40
0.73264666298974301
40
0.73264666298974301
40
1.0160828870694762
40
1.0160828870694762
40
1.4319177911790648
40
1.4319177911790648
40
1.4319177911790648
40
1.4319177911790648
10
0.21033577708899465
20
12.220390850716614
30
0
10
-0.9429246686443431
20
13.298994349287103
30
0
10
-1.6960372939859669
20
14.003353815976823
30
0
10
-2.8274515529491961
20
14.621247581705292
30
0
10
-3.2228290652358442
20
14.7496137483199
30
0
10
-4.1729776875670872
20
14.848473026256329
30
0
10
-4.7150626869665002
20
14.799995232030385
30
0
10
-6.2039356731846489
20
14.549784889937866
30
0
10
-7.3250700086017497
20
14.267101527390121
30
0
10
-8.852919151499874
20
13.881868893319149
30
0
0
SPLINE
5
188
100
AcDbEntity
8
0
100
AcDbSpline
70
0
71
3
72
12
73
8
74
0
42
0.000000001
43
0.0000000001
44
0.0000000001
40
0
40
0
40
0
40
0
40
1.1505435824832508
40
1.1505435824832508
40
1.5309507495751609
40
1.5309507495751609
40
2.258642029653219
40
2.258642029653219
40
2.258642029653219
40
2.258642029653219
10
1.5267444430639276
20
1.70881508828578
30
0
10
2.5304380236913637
20
5.4102929655847731
30
0
10
3.0322848140050818
20
7.2610319042342697
30
0
10
2.8133277852791734
20
9.0094125216351593
30
0
10
2.6849376748830913
20
9.3942278797910266
30
0
10
2.0458371930763168
20
10.503716084054055
30
0
10
1.3099942988052189
20
11.191921997610192
30
0
10
0.21033577708899465
20
12.220390850716614
30
0
0
SPLINE
5
189
100
AcDbEntity
8
0
100
AcDbSpline
70
0
71
3
72
16
73
12
74
0
42
0.000000001
43
0.0000000001
44
0.0000000001
40
0
40
0
40
0
40
0
40
0.42719441769829064
40
0.42719441769829064
40
0.68367508968166957
40
0.68367508968166957
40
0.90361802094131327
40
0.90361802094131327
40
1.1611488055901362
40
1.1611488055901362
40
1.6533276063155995
40
1.6533276063155995
40
1.6533276063155995
40
1.6533276063155995
10
-5.9802908759464923
20
-5.8120356019201136
30
0
10
-4.5566365569665148
20
-5.7815169888289519
30
0
10
-3.5015133806728316
20
-5.7588985093627443
30
0
10
-2.1943006560212948
20
-5.52655812438132
30
0
10
-1.7901650056444178
20
-5.3953032769085514
30
0
10
-1.1464972106562938
20
-5.0173501456838618
30
0
10
-0.89271057507876228
20
-4.7904543864260871
30
0
10
-0.39507253244532031
20
-4.1461277130452618
30
0
10
-0.160307458342967
20
-3.7027980786898573
30
0
10
0.50958214096816323
20
-2.0423335007849488
30
0
10
0.92923836510346314
20
-0.49470157437909584
30
0
10
1.5267444430639276
20
1.70881508828578
30
0
0
SPLINE
5
190
100
AcDbEntity
8
0
100
AcDbSpline
70
0
71
3
72
12
73
8
74
0
42
0.000000001
43
0.0000000001
44
0.0000000001
40
0
40
0
40
0
40
0
40
1.0726011624001555
40
1.0726011624001555
40
1.5151333834870448
40
1.5151333834870448
40
2.0082227718814556
40
2.0082227718814556
40
2.0082227718814556
40
2.0082227718814556
10
-37.577377083018433
20
-54.639626925772653
30
0
10
-37.774603084105593
20
-58.209520209248794
30
0
10
-37.877909170581276
20
-60.079414149291701
30
0
10
-37.269923158444684
20
-61.966898894137913
30
0
10
-37.00268743170075
20
-62.421911935404808
30
0
10
-36.208800034097621
20
-63.348996063704917
30
0
10
-35.648505267161077
20
-63.825828498685198
30
0
10
-34.90723570721282
20
-64.394521947832544
30
0
0
SPLINE
5
191
100
AcDbEntity
8
0
100
AcDbSpline
70
0
71
3
72
18
73
14
74
0
42
0.000000001
43
0.0000000001
44
0.0000000001
40
0
40
0
40
0
40
0
40
0.5230954946642189
40
0.5230954946642189
40
0.85237193677967005
40
0.85237193677967005
40
1.0741086491802248
40
1.0741086491802248
40
1.2840762813767803
40
1.2840762813767803
40
1.6192323184995319
40
1.6192323184995319
40
2.1577378212596909
40
2.1577378212596909
40
2.1577378212596909
40
2.1577378212596909
10
-30.188608123973026
20
-47.143556699739122
30
0
10
-31.932259768362176
20
-47.143431545879665
30
0
10
-33.239998501653574
20
-47.143337680485075
30
0
10
-34.848740690929375
20
-47.334089962977515
30
0
10
-35.341408791875928
20
-47.453810985814769
30
0
10
-36.003555116404911
20
-47.780022722445025
30
0
10
-36.234308916462332
20
-47.94963885966218
30
0
10
-36.615429713208954
20
-48.386232740917556
30
0
10
-36.762248416717703
20
-48.638777751748833
30
0
10
-37.074225375872963
20
-49.414762856181113
30
0
10
-37.190830444615351
20
-49.993703663045721
30
0
10
-37.411604894714628
20
-51.639057562871699
30
0
10
-37.483954274934568
20
-52.948621826540347
30
0
10
-37.577377083018433
20
-54.639626925772653
30
0
0
SPLINE
5
192
100
AcDbEntity
8
0
100
AcDbSpline
70
0
71
3
72
14
73
10
74
0
42
0.000000001
43
0.0000000001
44
0.0000000001
40
0
40
0
40
0
40
0
40
0.72740515112979121
40
0.72740515112979121
40
1.088149543506076
40
1.088149543506076
40
1.429810969265557
40
1.429810969265557
40
2.0044537849965569
40
2.0044537849965569
40
2.0044537849965569
40
2.0044537849965569
10
-20.000752912079321
20
-53.023995567943885
30
0
10
-21.163493554048578
20
-50.896291192471693
30
0
10
-21.905486860738762
20
-49.538514274532403
30
0
10
-23.108171326728751
20
-48.242321317307109
30
0
10
-23.522233714474932
20
-47.932981362619003
30
0
10
-24.477241130110897
20
-47.499347753662164
30
0
10
-25.008914010069134
20
-47.366885704676235
30
0
10
-26.754023030889709
20
-47.143803223510893
30
0
10
-28.182930719819939
20
-47.143700660987776
30
0
10
-30.188608123973026
20
-47.143556699739122
30
0
0
SPLINE
5
193
100
AcDbEntity
8
0
100
AcDbSpline
70
0
71
3
72
16
73
12
74
0
42
0.000000001
43
0.0000000001
44
0.0000000001
40
0.11024970738118808
40
0.11024970738118808
40
0.11024970738118808
40
0.11024970738118808
40
0.73906712895158688
40
0.73906712895158688
40
1.082874712284102
40
1.082874712284102
40
1.3678695416067912
40
1.3678695416067912
40
1.6588703836785306
40
1.6588703836785306
40
2.3378834521957339
40
2.3378834521957339
40
2.3378834521957339
40
2.3378834521957339
10
-22.083688412427939
20
-63.163845980832647
30
0
10
-20.601775320955078
20
-61.966688380970382
30
0
10
-19.546323760563531
20
-61.084350415509803
30
0
10
-18.48793348532109
20
-59.888364384703834
30
0
10
-18.225616643819418
20
-59.499309813547505
30
0
10
-17.930897415756085
20
-58.786095741825861
30
0
10
-17.865778123613062
20
-58.45937199804348
30
0
10
-17.869372944509948
20
-57.751933781444379
30
0
10
-17.940807634677768
20
-57.373080335640118
30
0
10
-18.393130533298802
20
-55.965798444135075
30
0
10
-19.058907840262574
20
-54.747486468399487
30
0
10
-20.000752912079321
20
-53.023995567943885
30
0
0
LINE
5
194
100
AcDbEntity
8
0
100
AcDbLine
10
-22.083688412427939
20
-63.163845980832647
30
0
11
-34.90723570721282
21
-64.394521947832544
31
0
0
LINE
5
195
100
AcDbEntity
8
0
100
AcDbLine
10
0.61962576266904934
20
19.960330579485767
30
0
11
14.685397016052368
21
19.960330579485767
31
0
0
SPLINE
5
196
100
AcDbEntity
8
0
100
AcDbSpline
70
4
71
5
72
16
73
10
74
0
42
0.000000001
43
0.0000000001
44
0.0000000001
40
-1
40
-1
40
-1
40
-1
40
-1
40
-1
40
-0.80000000000000004
40
-0.60000000000000009
40
-0.40000000000000002
40
-0.20000000000000001
40
0
40
0
40
0
40
0
40
0
40
0
41
1
41
1
41
1
41
1
41
1
41
1
41
1
41
1
41
1
41
1
10
19.046942776911319
20
16.683535608466244
30
0
10
19.086285257211372
20
16.96862044654975
30
0
10
19.096779989708537
20
17.500261775967438
30
0
10
18.908140943068609
20
18.182236597617184
30
0
10
18.309016704427915
20
18.887135410363292
30
0
10
17.208220012535595
20
19.504063473214089
30
0
10
16.204519270759725
20
19.812900338457958
30
0
10
15.442450798778113
20
19.933513901616621
30
0
10
14.937268139119546
20
19.960330579485767
30
0
10
14.685397016052368
20
19.960330579485767
30
0
0
ARC
5
197
100
AcDbEntity
8
0
100
AcDbCircle
10
24.000000357626732
20
16.000000238418647
30
0
40
4.9999999999988534
210
0
220
0
230
1
100
AcDbArc
50
172.14265669101309
51
178.94908279865555
0
SPLINE
5
198
100
AcDbEntity
8
0
100
AcDbSpline
70
0
71
3
72
14
73
10
74
0
42
0.000000001
43
0.0000000001
44
0.0000000001
40
0
40
0
40
0
40
0
40
0.53520984643256353
40
0.53520984643256353
40
0.8297860990225947
40
0.8297860990225947
40
1.0838845852004997
40
1.0838845852004997
40
1.1740643991180979
40
1.1740643991180979
40
1.1740643991180979
40
1.1740643991180979
10
12.860403424387163
20
13.454093001697212
30
0
10
14.628344974320601
20
13.693165760498413
30
0
10
15.878586183067451
20
13.862231652384551
30
0
10
17.305896578695574
20
14.322463065514505
30
0
10
17.712429789739957
20
14.524438688949452
30
0
10
18.342211408374137
20
15.033794154960793
30
0
10
18.581373831811042
20
15.321370253765
30
0
10
18.863881836350874
20
15.808782773133427
30
0
10
18.933881946756038
20
15.945349663048871
30
0
10
19.000841400653105
20
16.091704917125501
30
0
0
SPLINE
5
199
100
AcDbEntity
8
0
100
AcDbSpline
70
0
71
3
72
12
73
8
74
0
42
0.000000001
43
0.0000000001
44
0.0000000001
40
0
40
0
40
0
40
0
40
0.52816116953548131
40
0.52816116953548131
40
0.82893709511706404
40
0.82893709511706404
40
1.3721408228426795
40
1.3721408228426795
40
1.3721408228426795
40
1.3721408228426795
10
3.4991046725561059
20
15.74628190041957
30
0
10
4.7849169874958388
20
14.543710474162362
30
0
10
5.5733120737038844
20
13.806354491287191
30
0
10
6.8805865928629135
20
13.170961938942426
30
0
10
7.3656487297252671
20
13.049565878333318
30
0
10
9.0389886880251762
20
12.937336006207186
30
0
10
10.480719374151983
20
13.132296372738333
30
0
10
12.860403424387163
20
13.454093001697212
30
0
0
SPLINE
5
200
100
AcDbEntity
8
0
100
AcDbSpline
70
0
71
3
72
12
73
8
74
0
42
0.000000001
43
0.0000000001
44
0.0000000001
40
0.79564690667092497
40
0.79564690667092497
40
0.79564690667092497
40
0.79564690667092497
40
0.97210299539951706
40
0.97210299539951706
40
1.3409369811043776
40
1.3409369811043776
40
1.9452433371488786
40
1.9452433371488786
40
1.9452433371488786
40
1.9452433371488786
10
0.61962576266904945
20
19.960330579485763
30
0
10
0.63688542329039843
20
19.710515985040512
30
0
10
0.67046006549994908
20
19.481342283251507
30
0
10
0.8298834467904499
20
18.814971142095544
30
0
10
1.0162738086614311
20
18.423786803532781
30
0
10
1.7557673800662026
20
17.376759062535744
30
0
10
2.4672777549928817
20
16.711310430234782
30
0
10
3.4991046725561059
20
15.74628190041957
30
0
0
SPLINE
5
201
100
AcDbEntity
8
0
100
AcDbSpline
70
0
71
3
72
8
73
4
74
0
42
0.000000001
43
0.0000000001
44
0.0000000001
40
0
40
0
40
0
40
0
40
0.090988895773639375
40
0.090988895773639375
40
0.090988895773639375
40
0.090988895773639375
10
-58.343607920522508
20
-62.278598635977723
30
0
10
-58.134746234432022
20
-62.498520106851501
30
0
10
-57.937118490209684
20
-62.706612768595193
30
0
10
-57.749172304324077
20
-62.903162357366746
30
0
0
SPLINE
5
202
100
AcDbEntity
8
0
100
AcDbSpline
70
0
71
3
72
14
73
10
74
0
42
0.000000001
43
0.0000000001
44
0.0000000001
40
0
40
0
40
0
40
0
40
0.49423911906520268
40
0.49423911906520268
40
0.75429712729208109
40
0.75429712729208109
40
0.99571209351102863
40
0.99571209351102863
40
1.4550074164924121
40
1.4550074164924121
40
1.4550074164924121
40
1.4550074164924121
10
-60.685333524261928
20
-53.572863874421735
30
0
10
-61.207054143935295
20
-55.135536052899774
30
0
10
-61.55219102761896
20
-56.169299691064431
30
0
10
-61.670859959270757
20
-57.454966682997991
30
0
10
-61.637987335382356
20
-57.845697332100166
30
0
10
-61.403901211436249
20
-58.594900184566256
30
0
10
-61.215213727505216
20
-58.952424179560417
30
0
10
-60.413935696432787
20
-60.09864146819077
30
0
10
-59.573558932631514
20
-60.983518428837591
30
0
10
-58.343607920522508
20
-62.278598635977723
30
0
0
SPLINE
5
203
100
AcDbEntity
8
0
100
AcDbSpline
70
0
71
3
72
12
73
8
74
0
42
0.000000001
43
0.0000000001
44
0.0000000001
40
0
40
0
40
0
40
0
40
1.2842020615180993
40
1.2842020615180993
40
1.7203007663275012
40
1.7203007663275012
40
2.5673878734623656
40
2.5673878734623656
40
2.5673878734623656
40
2.5673878734623656
10
-50.707050468638563
20
-47.501222206737815
30
0
10
-54.925478381032732
20
-48.228567991243018
30
0
10
-57.034692337229856
20
-48.592240883495627
30
0
10
-58.705539988623755
20
-49.608927638521862
30
0
10
-59.029659187571248
20
-49.912102246966377
30
0
10
-59.835519971473552
20
-51.027465241315284
30
0
10
-60.17641399633235
20
-52.048525898753184
30
0
10
-60.685333524261928
20
-53.572863874421735
30
0
0
SPLINE
5
204
100
AcDbEntity
8
0
100
AcDbSpline
70
0
71
3
72
14
73
10
74
0
42
0.000000001
43
0.0000000001
44
0.0000000001
40
0
40
0
40
0
40
0
40
0.028775469170549885
40
0.028775469170549885
40
0.048681410355823566
40
0.048681410355823566
40
0.083563494766300372
40
0.083563494766300372
40
0.19620640412654486
40
0.19620640412654486
40
0.19620640412654486
40
0.19620640412654486
10
-41.857808639720105
20
-46.45790733653925
30
0
10
-41.925715454672606
20
-46.390165389132946
30
0
10
-41.982440403161469
20
-46.33357816029816
30
0
10
-42.126330748744969
20
-46.264597499288264
30
0
10
-42.198751931613273
20
-46.243915113195946
30
0
10
-42.472574279847422
20
-46.212144149667765
30
0
10
-42.714499837263638
20
-46.221904509444002
30
0
10
-44.065600257461512
20
-46.356082556704202
30
0
10
-46.162181095585552
20
-46.717581592441313
30
0
10
-50.707050468638563
20
-47.501222206737815
30
0
0
SPLINE
5
205
100
AcDbEntity
8
0
100
AcDbSpline
70
0
71
3
72
14
73
10
74
0
42
0.000000001
43
0.0000000001
44
0.0000000001
40
0
40
0
40
0
40
0
40
1.1261979895145009
40
1.1261979895145009
40
1.6892969983124049
40
1.6892969983124049
40
1.9713237163657973
40
1.9713237163657973
40
2.2538902997796755
40
2.2538902997796755
40
2.2538902997796755
40
2.2538902997796755
10
-41.859576942637588
20
-54.365854876822453
30
0
10
-41.652495751892545
20
-50.617577530529346
30
0
10
-41.548955156520023
20
-48.743438857382763
30
0
10
-41.548623599720244
20
-47.260698681255803
30
0
10
-41.574342889634877
20
-46.987863553482583
30
0
10
-41.651669119049387
20
-46.725236167065425
30
0
10
-41.683910655299499
20
-46.662250917664196
30
0
10
-41.761153777554625
20
-46.554327535218249
30
0
10
-41.806259379898449
20
-46.509331442501448
30
0
10
-41.857808639720105
20
-46.45790733653925
30
0
0
SPLINE
5
206
100
AcDbEntity
8
0
100
AcDbSpline
70
0
71
3
72
14
73
10
74
0
42
0.000000001
43
0.0000000001
44
0.0000000001
40
0
40
0
40
0
40
0
40
0.61433400653448478
40
0.61433400653448478
40
0.94268924938670662
40
0.94268924938670662
40
1.2350905693700871
40
1.2350905693700871
40
1.9683903519445773
40
1.9683903519445773
40
1.9683903519445773
40
1.9683903519445773
10
-48.36709316781662
20
-64.114904508577013
30
0
10
-46.44634696001831
20
-63.404878436635769
30
0
10
-45.131058122563459
20
-62.91866669094307
30
0
10
-43.729062651523748
20
-62.047458564699653
30
0
10
-43.355569746928779
20
-61.720781077808098
30
0
10
-42.807479361605701
20
-60.971191074306873
30
0
10
-42.618742171435272
20
-60.567750446410777
30
0
10
-42.108382145680316
20
-58.869368266005679
30
0
10
-42.012043464736976
20
-57.125584236496927
30
0
10
-41.859576942637588
20
-54.365854876822453
30
0
0
SPLINE
5
207
100
AcDbEntity
8
0
100
AcDbSpline
70
0
71
3
72
10
73
6
74
0
42
0.000000001
43
0.0000000001
44
0.0000000001
40
0.96637075378395165
40
0.96637075378395165
40
0.96637075378395165
40
0.96637075378395165
40
1.0692991611205009
40
1.0692991611205009
40
1.707920694627703
40
1.707920694627703
40
1.707920694627703
40
1.707920694627703
10
-53.63637675358013
20
-65.625189437655763
30
0
10
-53.474452293771442
20
-65.626443499060457
30
0
10
-53.306665176870041
20
-65.616763572542354
30
0
10
-52.039638540457887
20
-65.472503422153153
30
0
10
-50.619764441715091
20
-64.947630523855423
30
0
10
-48.36709316781662
20
-64.114904508577013
30
0
0
SPLINE
5
208
100
AcDbEntity
8
0
100
AcDbSpline
70
4
71
5
72
12
73
6
74
0
42
0.000000001
43
0.0000000001
44
0.0000000001
40
0.63450887224765418
40
0.63450887224765418
40
0.63450887224765418
40
0.63450887224765418
40
0.63450887224765418
40
0.63450887224765418
40
0.75092837681144953
40
0.75092837681144953
40
0.75092837681144953
40
0.75092837681144953
40
0.75092837681144953
40
0.75092837681144953
41
1
41
1
41
1
41
1
41
1
41
1
10
-54.463221028891169
20
-65.130366894520762
30
0
10
-54.301915639344216
20
-65.242569703983165
30
0
10
-54.138996815832314
20
-65.349470147255019
30
0
10
-53.97403478760387
20
-65.449716416611992
30
0
10
-53.806617947444188
20
-65.542011506530912
30
0
10
-53.636376753580095
20
-65.625189437655763
30
0
0
SPLINE
5
209
100
AcDbEntity
8
0
100
AcDbSpline
70
4
71
5
72
15
73
9
74
0
42
0.000000001
43
0.0000000001
44
0.0000000001
40
0.16391024901754603
40
0.16391024901754603
40
0.16391024901754603
40
0.16391024901754603
40
0.16391024901754603
40
0.16391024901754603
40
0.20000000000000001
40
0.40000000000000002
40
0.60000000000000009
40
0.63450887224756392
40
0.63450887224756392
40
0.63450887224756392
40
0.63450887224756392
40
0.63450887224756392
40
0.63450887224756392
41
1
41
1
41
1
41
1
41
1
41
1
41
1
41
1
41
1
10
-57.749172304324077
20
-62.903162357366718
30
0
10
-57.694120876665508
20
-62.923404140090604
30
0
10
-57.336100840853305
20
-63.062254117094589
30
0
10
-56.699635130397468
20
-63.3943730950581
30
0
10
-56.05288462276274
20
-63.874244570703951
30
0
10
-55.424073922560154
20
-64.406438767592761
30
0
10
-54.834995999465107
20
-64.867926947265559
30
0
10
-54.511034899098298
20
-65.097107927888715
30
0
10
-54.463221028891795
20
-65.130366894520336
30
0
0
SPLINE
5
210
100
AcDbEntity
8
0
100
AcDbSpline
70
0
71
3
72
8
73
4
74
0
42
0.000000001
43
0.0000000001
44
0.0000000001
40
0
40
0
40
0
40
0
40
0.62257814693423796
40
0.62257814693423796
40
0.62257814693423796
40
0.62257814693423796
10
-39.739317149038122
20
8.5094981734094777
30
0
10
-40.777822111074357
20
10.306221174951824
30
0
10
-41.48488952120897
20
11.529522291336411
30
0
10
-42.130763249806506
20
12.359995965664154
30
0
0
SPLINE
5
211
100
AcDbEntity
8
0
100
AcDbSpline
70
0
71
3
72
14
73
10
74
0
42
0.000000001
43
0.0000000001
44
0.0000000001
40
0
40
0
40
0
40
0
40
0.38166829747457592
40
0.38166829747457592
40
0.60819843809725582
40
0.60819843809725582
40
0.81992943598555845
40
0.81992943598555845
40
1.2707208624488984
40
1.2707208624488984
40
1.2707208624488984
40
1.2707208624488984
10
-38.701105326528349
20
-0.74206082978469645
30
0
10
-38.037169116949535
20
0.34318196518000332
30
0
10
-37.572174680056762
20
1.1032427286329802
30
0
10
-37.192721398474148
20
2.1928519385778174
30
0
10
-37.131178840317773
20
2.5719466989475439
30
0
10
-37.178663274026192
20
3.3554949662044917
30
0
10
-37.276760619022106
20
3.7562663992747778
30
0
10
-37.836483847626717
20
5.2174042478419915
30
0
10
-38.582146483255883
20
6.5074759695512068
30
0
10
-39.739317149038122
20
8.5094981734094777
30
0
0
SPLINE
5
212
100
AcDbEntity
8
0
100
AcDbSpline
70
0
71
3
72
12
73
8
74
0
42
0.000000001
43
0.0000000001
44
0.0000000001
40
0
40
0
40
0
40
0
40
0.49249637254202516
40
0.49249637254202516
40
0.74551263334000017
40
0.74551263334000017
40
1.1980091730643307
40
1.1980091730643307
40
1.1980091730643307
40
1.1980091730643307
10
-44.889236976817244
20
-4.7260473028681904
30
0
10
-43.254362990700848
20
-4.5769943136386964
30
0
10
-42.292343144358064
20
-4.4892860651662172
30
0
10
-41.201608322564383
20
-4.0289619963928498
30
0
10
-40.895816719597534
20
-3.81600667919558
30
0
10
-40.057718058203861
20
-2.9595241513621975
30
0
10
-39.537129626626538
20
-2.1085917329154609
30
0
10
-38.701105326528349
20
-0.74206082978469645
30
0
0
SPLINE
5
213
100
AcDbEntity
8
0
100
AcDbSpline
70
0
71
3
72
12
73
8
74
0
42
0.000000001
43
0.0000000001
44
0.0000000001
40
0
40
0
40
0
40
0
40
1.0825415474494746
40
1.0825415474494746
40
1.4945802836009561
40
1.4945802836009561
40
2.1643448818172866
40
2.1643448818172866
40
2.1643448818172866
40
2.1643448818172866
10
-53.373174876088896
20
0.54471463204799342
30
0
10
-51.117385564361996
20
-2.2717518583796865
30
0
10
-49.98949090849856
20
-3.6799851035934958
30
0
10
-48.525352379425385
20
-4.5896011000926693
30
0
10
-48.13163938342705
20
-4.7318132487085425
30
0
10
-46.96842994623691
20
-4.9156131100266984
30
0
10
-46.119273015325781
20
-4.8381931103537772
30
0
10
-44.889236976817244
20
-4.7260473028681904
30
0
0
SPLINE
5
214
100
AcDbEntity
8
0
100
AcDbSpline
70
0
71
3
72
16
73
12
74
0
42
0.000000001
43
0.0000000001
44
0.0000000001
40
0
40
0
40
0
40
0
40
0.35426298994303512
40
0.35426298994303512
40
0.57335899947005864
40
0.57335899947005864
40
0.76352107904852973
40
0.76352107904852973
40
1.0156249987479429
40
1.0156249987479429
40
1.3843475655364361
40
1.3843475655364361
40
1.3843475655364361
40
1.3843475655364361
10
-55.498400451853868
20
10.084224405302384
30
0
10
-56.113980861425922
20
9.0764891315050846
30
0
10
-56.57076697984489
20
8.3287078880575258
30
0
10
-56.994012253483639
20
7.2741619836093214
30
0
10
-57.081015929039474
20
6.9081037300715886
30
0
10
-57.088041706201615
20
6.2207597936854331
30
0
10
-57.028818182607218
20
5.9032898104358544
30
0
10
-56.738685560716533
20
5.1079730681160118
30
0
10
-56.456789255672589
20
4.6093316470005146
30
0
10
-55.444235143104031
20
3.1305376126697215
30
0
10
-54.566532523318671
20
2.0346817167600055
30
0
10
-53.373174876088896
20
0.54471463204799342
30
0
0
SPLINE
5
215
100
AcDbEntity
8
0
100
AcDbSpline
70
0
71
3
72
8
73
4
74
0
42
0.000000001
43
0.0000000001
44
0.0000000001
40
1.4420105917648822
40
1.4420105917648822
40
1.4420105917648822
40
1.4420105917648822
40
1.5034792359068654
40
1.5034792359068654
40
1.5034792359068654
40
1.5034792359068654
10
-55.215208618563281
20
10.547251044219777
30
0
10
-55.30590571943641
20
10.399348359545895
30
0
10
-55.400129674723793
20
10.245098812029806
30
0
10
-55.498400451853868
20
10.084224405302384
30
0
0
ARC
5
216
100
AcDbEntity
8
0
100
AcDbCircle
10
-51.602859486244917
20
14.004263301391966
30
0
40
4.9999999999999991
210
0
220
0
230
1
100
AcDbArc
50
223.7412278320669
51
313.46404493429628
0
SPLINE
5
217
100
AcDbEntity
8
0
100
AcDbSpline
70
4
71
5
72
15
73
9
74
0
42
0.000000001
43
0.0000000001
44
0.0000000001
40
-0.77904962054110283
40
-0.77904962054110283
40
-0.77904962054110283
40
-0.77904962054110283
40
-0.77904962054110283
40
-0.77904962054110283
40
-0.60000000000000009
40
-0.40000000000000002
40
-0.20000000000000001
40
0
40
0
40
0
40
0
40
0
40
0
41
1
41
1
41
1
41
1
41
1
41
1
41
1
41
1
41
1
10
-42.130763249806506
20
12.359995965664151
30
0
10
-42.431743785239703
20
12.387513759586263
30
0
10
-43.066822319373799
20
12.415447187165555
30
0
10
-44.028637324343187
20
12.364378550374482
30
0
10
-45.295938533507076
20
12.119701916166186
30
0
10
-46.496370892212099
20
11.631011929617383
30
0
10
-47.358318138770272
20
11.079268469826079
30
0
10
-47.900438393955824
20
10.624425332061156
30
0
10
-48.163363271726269
20
10.375232330139204
30
0
0
SPLINE
5
218
100
AcDbEntity
8
0
100
AcDbSpline
70
4
71
5
72
15
73
9
74
0
42
0.000000001
43
0.0000000001
44
0.0000000001
40
0
40
0
40
0
40
0
40
0
40
0
40
0.20000000000000001
40
0.40000000000000002
40
0.60000000000000009
40
0.64484904794302877
40
0.64484904794302877
40
0.64484904794302877
40
0.64484904794302877
40
0.64484904794302877
40
0.64484904794302877
41
1
41
1
41
1
41
1
41
1
41
1
41
1
41
1
41
1
10
-91.283561467430786
20
-12.607412382455296
30
0
10
-91.674848152908936
20
-12.838107340289213
30
0
10
-92.470418570738417
20
-13.299921691467375
30
0
10
-93.702696847278276
20
-13.993936383497005
30
0
10
-95.057866226741936
20
-14.756278252206585
30
0
10
-96.328673192278131
20
-15.597259879262236
30
0
10
-97.107693616987376
20
-16.247484734684178
30
0
10
-97.496716794818354
20
-16.632587574378427
30
0
10
-97.566577866913192
20
-16.70407690204631
30
0
0
ARC
5
219
100
AcDbEntity
8
0
100
AcDbCircle
10
-94.000001400709152
20
-8.0000001192092896
30
0
40
5.3485786592906237
210
0
220
0
230
1
100
AcDbArc
50
-59.477232195253343
51
51.221473797678669
0
SPLINE
5
220
100
AcDbEntity
8
0
100
AcDbSpline
70
0
71
3
72
14
73
10
74
0
42
0.000000001
43
0.0000000001
44
0.0000000001
40
0
40
0
40
0
40
0
40
0.69099087347796784
40
0.69099087347796784
40
1.0057362474950671
40
1.0057362474950671
40
1.2522728226579676
40
1.2522728226579676
40
1.2649896161737932
40
1.2649896161737932
40
1.2649896161737932
40
1.2649896161737932
10
-84.724563870941623
20
-7.7358280595006779
30
0
10
-86.427596063945359
20
-6.1850586852394045
30
0
10
-87.609564499670711
20
-5.1087663761471793
30
0
10
-88.99368151458647
20
-4.1940889427433579
30
0
10
-89.377527418640426
20
-4.0015403775435221
30
0
10
-90.025917051483333
20
-3.8178810431092547
30
0
10
-90.309800868679019
20
-3.7890202479469508
30
0
10
-90.619740368019734
20
-3.8262453376215233
30
0
10
-90.634935187243315
20
-3.8282371650081739
30
0
10
-90.650124112442953
20
-3.8303939233948969
30
0
0
SPLINE
5
221
100
AcDbEntity
8
0
100
AcDbSpline
70
0
71
3
72
16
73
12
74
0
42
0.000000001
43
0.0000000001
44
0.0000000001
40
0
40
0
40
0
40
0
40
0.33833248741780725
40
0.33833248741780725
40
0.52599243542871255
40
0.52599243542871255
40
0.69463178201351616
40
0.69463178201351616
40
0.8934917491916381
40
0.8934917491916381
40
1.4206933395231975
40
1.4206933395231975
40
1.4206933395231975
40
1.4206933395231975
10
-81.516240646556042
20
-16.650190267549174
30
0
10
-80.926784136012316
20
-15.68872400282461
30
0
10
-80.484691753104372
20
-14.967624304280942
30
0
10
-80.104424382169995
20
-14.003703120349565
30
0
10
-80.029582079247973
20
-13.691102288720252
30
0
10
-80.018841132164553
20
-13.111535876041403
30
0
10
-80.070121101366055
20
-12.853697451736942
30
0
10
-80.284733436502592
20
-12.298045231070308
30
0
10
-80.472630685380992
20
-11.985056297271502
30
0
10
-81.45537980947762
20
-10.712724528145596
30
0
10
-82.734061565654258
20
-9.5483657361911582
30
0
10
-84.724563870941623
20
-7.7358280595006779
30
0
0
SPLINE
5
222
100
AcDbEntity
8
0
100
AcDbSpline
70
0
71
3
72
14
73
10
74
0
42
0.000000001
43
0.0000000001
44
0.0000000001
40
0
40
0
40
0
40
0
40
0.89332368532396855
40
0.89332368532396855
40
1.2101713083526202
40
1.2101713083526202
40
1.4993418138406778
40
1.4993418138406778
40
2.1004622110337028
40
2.1004622110337028
40
2.1004622110337028
40
2.1004622110337028
10
-90.695484942312063
20
-19.088179375316912
30
0
10
-87.779204746633951
20
-19.690075366584868
30
0
10
-86.109687300804879
20
-20.034649889803049
30
0
10
-84.565340993584513
20
-19.894782614012637
30
0
10
-84.227775920113984
20
-19.801846405052096
30
0
10
-83.648384473541668
20
-19.500359817494068
30
0
10
-83.402838149122402
20
-19.303884708357451
30
0
10
-82.664047716868851
20
-18.522389613478374
30
0
10
-82.184979881198018
20
-17.740977378097917
30
0
10
-81.516240646556042
20
-16.650190267549174
30
0
0
SPLINE
5
223
100
AcDbEntity
8
0
100
AcDbSpline
70
0
71
3
72
12
73
8
74
0
42
0.000000001
43
0.0000000001
44
0.0000000001
40
0.34281604873504801
40
0.34281604873504801
40
0.34281604873504801
40
0.34281604873504801
40
0.45372329731468719
40
0.45372329731468719
40
0.61416066226030497
40
0.61416066226030497
40
1.0218426462275314
40
1.0218426462275314
40
1.0218426462275314
40
1.0218426462275314
10
-97.566577866913192
20
-16.704076902046317
30
0
10
-97.442051494073354
20
-16.884010850073746
30
0
10
-97.29736888080879
20
-17.04552795839232
30
0
10
-96.868312044058612
20
-17.405110482529324
30
0
10
-96.553032502581345
20
-17.585509790084462
30
0
10
-95.102388533880998
20
-18.17863110570941
30
0
10
-93.458527364481313
20
-18.517910386736325
30
0
10
-90.695484942312063
20
-19.088179375316912
30
0
0
SPLINE
5
224
100
AcDbEntity
8
0
100
AcDbSpline
70
0
71
3
72
16
73
12
74
0
42
0.000000001
43
0.0000000001
44
0.0000000001
40
0
40
0
40
0
40
0
40
0.8453071424589248
40
0.8453071424589248
40
1.1514300165615385
40
1.1514300165615385
40
1.4288337088364522
40
1.4288337088364522
40
1.8110971547317463
40
1.8110971547317463
40
1.835078010466727
40
1.835078010466727
40
1.835078010466727
40
1.835078010466727
10
-91.140297907705133
20
-22.020889577851914
30
0
10
-93.899825460854757
20
-21.451339496171485
30
0
10
-95.543017373304636
20
-21.112194454157219
30
0
10
-97.066274362271031
20
-21.200893441297421
30
0
10
-97.401950121435704
20
-21.277446778155284
30
0
10
-97.964114319500467
20
-21.53952584692906
30
0
10
-98.190254119020679
20
-21.710987321010187
30
0
10
-98.67879731358677
20
-22.209940061866362
30
0
10
-98.939164680771057
20
-22.588487320051541
30
0
10
-99.238085449631342
20
-23.099087641495913
30
0
10
-99.255813611646545
20
-23.129631881865812
30
0
10
-99.273634903340991
20
-23.16058237695497
30
0
0
SPLINE
5
225
100
AcDbEntity
8
0
100
AcDbSpline
70
0
71
3
72
14
73
10
74
0
42
0.000000001
43
0.0000000001
44
0.0000000001
40
0
40
0
40
0
40
0
40
0.46931354380281792
40
0.46931354380281792
40
0.73612957416132785
40
0.73612957416132785
40
0.97184712559131536
40
0.97184712559131536
40
1.6163375232728336
40
1.6163375232728336
40
1.6163375232728336
40
1.6163375232728336
10
-83.294491277252661
20
-28.662821048087093
30
0
10
-83.594964914942352
20
-27.127570052424112
30
0
10
-83.807303613789657
20
-26.042638937236696
30
0
10
-84.312686245478957
20
-24.784323745074129
30
0
10
-84.531331876958234
20
-24.419710772130561
30
0
10
-85.078401823927123
20
-23.847026771518564
30
0
10
-85.387349836563104
20
-23.629039114801984
30
0
10
-86.82075866302182
20
-22.912406572464604
30
0
10
-88.450025153806408
20
-22.576139511787872
30
0
10
-91.140297907705133
20
-22.020889577851914
30
0
0
SPLINE
5
226
100
AcDbEntity
8
0
100
AcDbSpline
70
0
71
3
72
16
73
12
74
0
42
0.000000001
43
0.0000000001
44
0.0000000001
40
0
40
0
40
0
40
0
40
0.0014200143622986282
40
0.0014200143622986282
40
0.002444803317267348
40
0.002444803317267348
40
0.0045040296182037604
40
0.0045040296182037604
40
0.013557018679698491
40
0.013557018679698491
40
0.022677652908869868
40
0.022677652908869868
40
0.022677652908869868
40
0.022677652908869868
10
-82.313612034037718
20
-33.939969867056817
30
0
10
-82.310249307763911
20
-33.936638655615859
30
0
10
-82.307146479287098
20
-33.933564906259058
30
0
10
-82.303031526957469
20
-33.924521640150182
30
0
10
-82.301671559042333
20
-33.919592544226937
30
0
10
-82.299218671972184
20
-33.898373155307901
30
0
10
-82.300037959543346
20
-33.87777456277513
30
0
10
-82.313875283308448
20
-33.733555204929687
30
0
10
-82.3648240060554
20
-33.443178992152028
30
0
10
-82.657004482622384
20
-31.920019395679944
30
0
10
-82.899656300692527
20
-30.680205320289016
30
0
10
-83.294491277252661
20
-28.662821048087093
30
0
0
SPLINE
5
227
100
AcDbEntity
8
0
100
AcDbSpline
70
0
71
3
72
16
73
12
74
0
42
0.000000001
43
0.0000000001
44
0.0000000001
40
0
40
0
40
0
40
0
40
1.1427629764123042
40
1.1427629764123042
40
1.6094403917035534
40
1.6094403917035534
40
1.796802366868695
40
1.796802366868695
40
1.8855698516974007
40
1.8855698516974007
40
1.9747591555548254
40
1.9747591555548254
40
1.9747591555548254
40
1.9747591555548254
10
-89.936128030334928
20
-34.757006559358253
30
0
10
-86.146624599014743
20
-34.370038900361671
30
0
10
-84.25187288335465
20
-34.17655507086338
30
0
10
-82.909951441193215
20
-34.032718172788712
30
0
10
-82.605833049451661
20
-33.998648148285071
30
0
10
-82.397509508991334
20
-33.968281481330784
30
0
10
-82.362915018490241
20
-33.961693138378742
30
0
10
-82.333234917018743
20
-33.952872802073315
30
0
10
-82.327341406571506
20
-33.950290239328616
30
0
10
-82.31888071819148
20
-33.945189174101962
30
0
10
-82.316331354891261
20
-33.94266370295108
30
0
10
-82.313612034037718
20
-33.939969867056817
30
0
0
SPLINE
5
228
100
AcDbEntity
8
0
100
AcDbSpline
70
0
71
3
72
14
73
10
74
0
42
0.000000001
43
0.0000000001
44
0.0000000001
40
0.17407193860434125
40
0.17407193860434125
40
0.17407193860434125
40
0.17407193860434125
40
0.34628338191769875
40
0.34628338191769875
40
0.55939867738249704
40
0.55939867738249704
40
0.75716779845860449
40
0.75716779845860449
40
1.2134575944261183
40
1.2134575944261183
40
1.2134575944261183
40
1.2134575944261183
10
-98.979866196758849
20
-33.350144826669094
30
0
10
-98.720112915687039
20
-33.698844529783337
30
0
10
-98.478529938694948
20
-33.988982886079775
30
0
10
-97.919732660242076
20
-34.522892683513732
30
0
10
-97.591765586531025
20
-34.745414586792847
30
0
10
-96.819580929943001
20
-35.041597481808807
30
0
10
-96.389173465956475
20
-35.123929960531378
30
0
10
-94.617722932307458
20
-35.235070731200288
30
0
10
-92.829037888665837
20
-35.052417970339995
30
0
10
-89.936128030334928
20
-34.757006559358253
30
0
0
SPLINE
5
229
100
AcDbEntity
8
0
100
AcDbSpline
70
4
71
5
72
14
73
8
74
0
42
0.000000001
43
0.0000000001
44
0.0000000001
40
0.40774036021177518
40
0.40774036021177518
40
0.40774036021177518
40
0.40774036021177518
40
0.40774036021177518
40
0.40774036021177518
40
0.60000000000000009
40
0.80000000000000004
40
0.92353695845442874
40
0.92353695845442874
40
0.92353695845442874
40
0.92353695845442874
40
0.92353695845442874
40
0.92353695845442874
41
1
41
1
41
1
41
1
41
1
41
1
41
1
41
1
10
-99.273634903341033
20
-23.160582376955084
30
0
10
-99.292123916515067
20
-23.920753041131007
30
0
10
-99.317626601634856
20
-25.471698977502989
30
0
10
-99.316527501704144
20
-27.510893487305843
30
0
10
-99.261839654614178
20
-29.549235916042605
30
0
10
-99.136473552704786
20
-31.585960181043546
30
0
10
-99.026529896752336
20
-32.862743371523251
30
0
10
-98.979866196758891
20
-33.350144826669052
30
0
0
SPLINE
5
230
100
AcDbEntity
8
0
100
AcDbSpline
70
0
71
3
72
12
73
8
74
0
42
0.000000001
43
0.0000000001
44
0.0000000001
40
0
40
0
40
0
40
0
40
0.35512697434270968
40
0.35512697434270968
40
0.56269583007479218
40
0.56269583007479218
40
0.61921061698991497
40
0.61921061698991497
40
0.61921061698991497
40
0.61921061698991497
10
-78.273221542552122
20
27.877566614164692
30
0
10
-77.483085515632524
20
28.759022626885443
30
0
10
-76.977960866069751
20
29.322527067084671
30
0
10
-76.533358052307378
20
30.232614944790683
30
0
10
-76.446444092396959
20
30.570898580408794
30
0
10
-76.417312578696624
20
31.088779754413384
30
0
10
-76.415838147837576
20
31.20470354119691
30
0
10
-76.418882297540122
20
31.327034261894539
30
0
0
SPLINE
5
231
100
AcDbEntity
8
0
100
AcDbSpline
70
0
71
3
72
12
73
8
74
0
42
0.000000001
43
0.0000000001
44
0.0000000001
40
0
40
0
40
0
40
0
40
0.9005569525615249
40
0.9005569525615249
40
1.2567327540300601
40
1.2567327540300601
40
1.8005214727515593
40
1.8005214727515593
40
1.8005214727515593
40
1.8005214727515593
10
-86.426163818553078
20
26.136547238045715
30
0
10
-83.444936309372395
20
25.785228242887833
30
0
10
-81.954322554782024
20
25.609568745308895
30
0
10
-80.532137432172206
20
25.913269148313141
30
0
10
-80.202933609423411
20
26.06075240013158
30
0
10
-79.397128595971594
20
26.623761671589513
30
0
10
-78.935202880479537
20
27.139075409878121
30
0
10
-78.273221542552122
20
27.877566614164692
30
0
0
SPLINE
5
232
100
AcDbEntity
8
0
100
AcDbSpline
70
0
71
3
72
14
73
10
74
0
42
0.000000001
43
0.0000000001
44
0.0000000001
40
0
40
0
40
0
40
0
40
0.61847034342428475
40
0.61847034342428475
40
0.92993626191067358
40
0.92993626191067358
40
1.2360911358052373
40
1.2360911358052373
40
1.6796228678960503
40
1.6796228678960503
40
1.6796228678960503
40
1.6796228678960503
10
-94.651937566315141
20
31.968967396431943
30
0
10
-93.81974940891439
20
30.082827234158355
30
0
10
-93.29354373864777
20
28.89019112238536
30
0
10
-92.347611358432289
20
27.703771288341748
30
0
10
-92.004723870455564
20
27.408653739471028
30
0
10
-91.167919477616778
20
26.952628744672786
30
0
10
-90.677361807287213
20
26.789844622529095
30
0
10
-89.164260763645444
20
26.459215037055696
30
0
10
-88.003976515207597
20
26.322482710853578
30
0
10
-86.426163818553078
20
26.136547238045715
30
0
0
SPLINE
5
233
100
AcDbEntity
8
0
100
AcDbSpline
70
0
71
3
72
12
73
8
74
0
42
0.000000001
43
0.0000000001
44
0.0000000001
40
0
40
0
40
0
40
0
40
0.52501453571905443
40
0.52501453571905443
40
0.81047392054905287
40
0.81047392054905287
40
1.2789905637929186
40
1.2789905637929186
40
1.2789905637929186
40
1.2789905637929186
10
-95.147397472575335
20
40.979060195300761
30
0
10
-95.872961980892853
20
39.386506984256769
30
0
10
-96.300741028848208
20
38.447567870464681
30
0
10
-96.448538352101778
20
37.045540190402406
30
0
10
-96.40245204916944
20
36.560776471168104
30
0
10
-96.00663035186669
20
35.039355322104626
30
0
10
-95.481202132377547
20
33.848481289162692
30
0
10
-94.651937566315141
20
31.968967396431943
30
0
0
SPLINE
5
234
100
AcDbEntity
8
0
100
AcDbSpline
70
0
71
3
72
14
73
10
74
0
42
0.000000001
43
0.0000000001
44
0.0000000001
40
1.0904773070321447
40
1.0904773070321447
40
1.0904773070321447
40
1.0904773070321447
40
1.3691533322639025
40
1.3691533322639025
40
1.6342010385897778
40
1.6342010385897778
40
1.9300489787880086
40
1.9300489787880086
40
2.4925506111151146
40
2.4925506111151146
40
2.4925506111151146
40
2.4925506111151146
10
-92.194253567623164
20
44.054284967310942
30
0
10
-92.505453794497953
20
44.063161137493481
30
0
10
-92.770603836405684
20
44.03075569028799
30
0
10
-93.226654045935717
20
43.8845848775467
30
0
10
-93.421177358037951
20
43.774623401716411
30
0
10
-93.798530547052195
20
43.455637446153474
30
0
10
-93.972863010763902
20
43.240760610062729
30
0
10
-94.457606772197806
20
42.493092899824589
30
0
10
-94.760072091757749
20
41.82920690433729
30
0
10
-95.147397472575335
20
40.979060195300761
30
0
0
LINE
5
235
100
AcDbEntity
8
0
100
AcDbLine
10
-92.194253567623164
20
44.054284967310942
30
0
11
-86.361938704672667
21
39.863042819075702
31
0
0
SPLINE
5
236
100
AcDbEntity
8
0
100
AcDbSpline
70
0
71
3
72
16
73
12
74
0
42
0.000000001
43
0.0000000001
44
0.0000000001
40
0.80122674604783506
40
0.80122674604783506
40
0.80122674604783506
40
0.80122674604783506
40
1.0380105385455192
40
1.0380105385455192
40
1.1976473957057752
40
1.1976473957057752
40
1.27558942679737
40
1.27558942679737
40
1.2973825687645943
40
1.2973825687645943
40
1.5126054316829389
40
1.5126054316829389
40
1.5126054316829389
40
1.5126054316829389
10
-76.418882297540094
20
31.327034261894518
30
0
10
-76.834402213540386
20
31.620587279130909
30
0
10
-77.219019816039548
20
31.939497138666525
30
0
10
-77.949149155314842
20
32.578050712966593
30
0
10
-78.245689959243521
20
32.850356279487144
30
0
10
-78.665821310300998
20
33.249056224982539
30
0
10
-78.803284206340834
20
33.381677078413233
30
0
10
-78.977009933406919
20
33.551936547079364
30
0
10
-79.124838932395178
20
33.698293712068512
30
0
10
-81.397201240221349
20
35.896000969061063
30
0
10
-83.736027809130903
20
37.829102266307828
30
0
10
-86.361938704672667
20
39.863042819075702
30
0
0
SPLINE
5
237
100
AcDbEntity
8
0
100
AcDbSpline
70
0
71
3
72
8
73
4
74
0
42
0.000000001
43
0.0000000001
44
0.0000000001
40
0
40
0
40
0
40
0
40
0.064621762807345676
40
0.064621762807345676
40
0.064621762807345676
40
0.064621762807345676
10
-20.337545985097705
20
10.526655410144512
30
0
10
-20.246249012597417
20
10.721756804906716
30
0
10
-20.159457027790786
20
10.907231052586724
30
0
10
-20.077464768803988
20
11.084273594772867
30
0
0
SPLINE
5
238
100
AcDbEntity
8
0
100
AcDbSpline
70
0
71
3
72
12
73
8
74
0
42
0.000000001
43
0.0000000001
44
0.0000000001
40
0
40
0
40
0
40
0
40
0.77840710327156593
40
0.77840710327156593
40
1.1143910000617527
40
1.1143910000617527
40
1.6986734413127493
40
1.6986734413127493
40
1.6986734413127493
40
1.6986734413127493
10
-27.708575393870476
20
5.7381557051477561
30
0
10
-25.14303651446675
20
6.1260065021724284
30
0
10
-23.769708374567244
20
6.3336223048065454
30
0
10
-22.451448724222157
20
7.0607662383391503
30
0
10
-22.142660660842548
20
7.3340741090362336
30
0
10
-21.376145761502357
20
8.3071703666988181
30
0
10
-20.962338643361154
20
9.1914751108854116
30
0
10
-20.337545985097705
20
10.526655410144512
30
0
0
SPLINE
5
239
100
AcDbEntity
8
0
100
AcDbSpline
70
0
71
3
72
14
73
10
74
0
42
0.000000001
43
0.0000000001
44
0.0000000001
40
0
40
0
40
0
40
0
40
0.70665378116712219
40
0.70665378116712219
40
1.0228440848414371
40
1.0228440848414371
40
1.3031678770784767
40
1.3031678770784767
40
1.9621291554746132
40
1.9621291554746132
40
1.9621291554746132
40
1.9621291554746132
10
-36.483387011403849
20
10.533268378589336
30
0
10
-35.304637866742269
20
8.4939081649325736
30
0
10
-34.552888197778621
20
7.1933020330365078
30
0
10
-33.479077663233738
20
6.0501226309515301
30
0
10
-33.149280033174684
20
5.7991690030748142
30
0
10
-32.460617910346727
20
5.4799463692341011
30
0
10
-32.111978423525535
20
5.3952013126906975
30
0
10
-30.774588487639939
20
5.2746446542519116
30
0
10
-29.548016357166805
20
5.460074305009269
30
0
10
-27.708575393870476
20
5.7381557051477561
30
0
0
SPLINE
5
240
100
AcDbEntity
8
0
100
AcDbSpline
70
0
71
3
72
8
73
4
74
0
42
0.000000001
43
0.0000000001
44
0.0000000001
40
1.7475950790498853
40
1.7475950790498853
40
1.7475950790498853
40
1.7475950790498853
40
1.8183958740959225
40
1.8183958740959225
40
1.8183958740959225
40
1.8183958740959225
10
-36.850850151737305
20
11.169680793949023
30
0
10
-36.7333663379993
20
10.965757878322155
30
0
10
-36.610874060422212
20
10.753833858156341
30
0
10
-36.483387011403849
20
10.533268378589336
30
0
0
SPLINE
5
241
100
AcDbEntity
8
0
100
AcDbSpline
70
4
71
5
72
12
73
6
74
0
42
0.000000001
43
0.0000000001
44
0.0000000001
40
0
40
0
40
0
40
0
40
0
40
0
40
0.088580045928044623
40
0.088580045928044623
40
0.088580045928044623
40
0.088580045928044623
40
0.088580045928044623
40
0.088580045928044623
41
1
41
1
41
1
41
1
41
1
41
1
10
-34.361727924017217
20
11.004263301391966
30
0
10
-34.858449780275066
20
11.004263301391966
30
0
10
-35.356067153752072
20
11.020768293179877
30
0
10
-35.854580803184497
20
11.053776932243043
30
0
10
-36.353241583966167
20
11.103375680862737
30
0
10
-36.850850151737298
20
11.169680793949016
30
0
0
LINE
5
242
100
AcDbEntity
8
0
100
AcDbLine
10
-34.361727924017217
20
11.004263301391966
30
0
11
-22.401695812835008
21
11.004263301391966
31
0
0
SPLINE
5
243
100
AcDbEntity
8
0
100
AcDbSpline
70
4
71
5
72
13
73
7
74
0
42
0.000000001
43
0.0000000001
44
0.0000000001
40
0.83826414603433375
40
0.83826414603433375
40
0.83826414603433375
40
0.83826414603433375
40
0.83826414603433375
40
0.83826414603433375
40
0.89999999999999991
40
1
40
1
40
1
40
1
40
1
40
1
41
1
41
1
41
1
41
1
41
1
41
1
41
1
10
-20.077464768803985
20
11.084273594772869
30
0
10
-20.260671710863175
20
11.067047530567617
30
0
10
-20.740110036793219
20
11.030859352436819
30
0
10
-21.215358008210487
20
11.01408875524676
30
0
10
-21.679624618259755
20
11.006975911394425
30
0
10
-22.129273193305437
20
11.004263301391966
30
0
10
-22.401695812835008
20
11.004263301391966
30
0
0
SPLINE
5
244
100
AcDbEntity
8
0
100
AcDbSpline
70
0
71
3
72
10
73
6
74
0
42
0.000000001
43
0.0000000001
44
0.0000000001
40
0
40
0
40
0
40
0
40
0.57617341165313929
40
0.57617341165313929
40
0.83584673557621247
40
0.83584673557621247
40
0.83584673557621247
40
0.83584673557621247
10
-9.8282633643498141
20
18.060966196073871
30
0
10
-7.9659710089868883
20
18.530526827351547
30
0
10
-6.7079416187864922
20
18.847727868813834
30
0
10
-5.4230579741250882
20
19.475498926813614
30
0
10
-5.0995918089003816
20
19.693953700733864
30
0
10
-4.8305082780907647
20
19.960330579485785
30
0
0
SPLINE
5
245
100
AcDbEntity
8
0
100
AcDbSpline
70
0
71
3
72
8
73
4
74
0
42
0.000000001
43
0.0000000001
44
0.0000000001
40
1.5719223748706874
40
1.5719223748706874
40
1.5719223748706874
40
1.5719223748706874
40
2.2273412860641271
40
2.2273412860641271
40
2.2273412860641271
40
2.2273412860641271
10
-13.635126569551051
20
17.276872317545923
30
0
10
-12.688373253241528
20
17.33981668249022
30
0
10
-11.502515577555844
20
17.638819419875091
30
0
10
-9.8282633643498141
20
18.060966196073871
30
0
0
SPLINE
5
246
100
AcDbEntity
8
0
100
AcDbSpline
70
4
71
5
72
14
73
8
74
0
42
0.000000001
43
0.0000000001
44
0.0000000001
40
0
40
0
40
0
40
0
40
0
40
0
40
0.10000000000000001
40
0.20000000000000001
40
0.27338695649520489
40
0.27338695649520489
40
0.27338695649520489
40
0.27338695649520489
40
0.27338695649520489
40
0.27338695649520489
41
1
41
1
41
1
41
1
41
1
41
1
41
1
41
1
10
-10.076752795984003
20
20.000000298023224
30
0
10
-10.45055568176976
20
20.000000298023224
30
0
10
-11.149698814291169
20
19.91463588618986
30
0
10
-11.972895845411117
20
19.564581580893488
30
0
10
-12.632914089551186
20
18.927533442752363
30
0
10
-13.182755617842831
20
18.098956548546187
30
0
10
-13.503287036326771
20
17.525775424002749
30
0
10
-13.635126569551051
20
17.276872317545916
30
0
0
LINE
5
247
100
AcDbEntity
8
0
100
AcDbLine
10
-10.076752795984003
20
20.000000298023224
30
0
11
-6.9234961688086223
21
19.960330579485767
31
0
0
LINE
5
248
100
AcDbEntity
8
0
100
AcDbLine
10
-6.9234961688086223
20
19.960330579485767
30
0
11
-4.8305082780907656
21
19.960330579485785
31
0
0
ARC
5
249
100
AcDbEntity
8
0
100
AcDbCircle
10
23.760018713662703
20
-45.579089703115727
30
0
40
7.2500000000000018
210
0
220
-0
230
1
100
AcDbArc
50
50.971599755136658
51
107.12618144308071
0
SPLINE
5
250
100
AcDbEntity
8
0
100
AcDbSpline
70
0
71
3
72
10
73
6
74
0
42
0.000000001
43
0.0000000001
44
0.0000000001
40
0
40
0
40
0
40
0
40
1.3271386116081947
40
1.3271386116081947
40
1.6600300605916205
40
1.6600300605916205
40
1.6600300605916205
40
1.6600300605916205
10
24.574029523019966
20
-30.511496966666208
30
0
10
22.845291374012795
20
-34.58352716126663
30
0
10
21.980922299509214
20
-36.619542258566845
30
0
10
21.649207418954628
20
-38.163860295516933
30
0
10
21.620464352947977
20
-38.422609966218204
30
0
10
21.625060127144579
20
-38.650565196844141
30
0
0
SPLINE
5
251
100
AcDbEntity
8
0
100
AcDbSpline
70
0
71
3
72
12
73
8
74
0
42
0.000000001
43
0.0000000001
44
0.0000000001
40
0.59076644241428355
40
0.59076644241428355
40
0.59076644241428355
40
0.59076644241428355
40
0.66819267313825126
40
0.66819267313825126
40
0.90208231653336102
40
0.90208231653336102
40
1.2634139555193391
40
1.2634139555193391
40
1.2634139555193391
40
1.2634139555193391
10
28.325383789553456
20
-23.239620883443273
30
0
10
28.205386983466884
20
-23.342507824357092
30
0
10
28.087766425793678
20
-23.460375135990439
30
0
10
27.617249711493621
20
-24.001995915267486
30
0
10
27.269643704469168
20
-24.56201333875979
30
0
10
26.274096181294702
20
-26.507002260915684
30
0
10
25.566510450794972
20
-28.173715326464716
30
0
10
24.574029523019966
20
-30.511496966666208
30
0
0
LINE
5
252
100
AcDbEntity
8
0
100
AcDbLine
10
28.325383789553456
20
-23.239620883443273
30
0
11
28.32538378955325
21
-39.947043740604506
31
0
0
SPLINE
5
253
100
AcDbEntity
8
0
100
AcDbSpline
70
0
71
3
72
8
73
4
74
0
42
0.000000001
43
0.0000000001
44
0.0000000001
40
0
40
0
40
0
40
0
40
0.11833331075481902
40
0.11833331075481902
40
0.11833331075481902
40
0.11833331075481902
10
-96.807979252055276
20
7.006626405729639
30
0
10
-97.078866607132355
20
7.293342992691942
30
0
10
-97.333467059535295
20
7.5628209560736721
30
0
10
-97.573222487635775
20
7.8160452830782043
30
0
0
SPLINE
5
254
100
AcDbEntity
8
0
100
AcDbSpline
70
0
71
3
72
12
73
8
74
0
42
0.000000001
43
0.0000000001
44
0.0000000001
40
0
40
0
40
0
40
0
40
0.10124246182832222
40
0.10124246182832222
40
0.16633821896066003
40
0.16633821896066003
40
0.36650291968507281
40
0.36650291968507281
40
0.36650291968507281
40
0.36650291968507281
10
-92.40329817346236
20
1.0201539580164098
30
0
10
-92.37546472385668
20
1.3564790817109551
30
0
10
-92.355318544306456
20
1.5999151783928336
30
0
10
-92.487310071044831
20
2.0544716915520218
30
0
10
-92.580509864478614
20
2.2461211280643054
30
0
10
-93.230328747455502
20
3.2199168277540142
30
0
10
-94.347074495693462
20
4.4019193222903823
30
0
10
-96.807979252055276
20
7.006626405729639
30
0
0
SPLINE
5
255
100
AcDbEntity
8
0
100
AcDbSpline
70
0
71
3
72
12
73
8
74
0
42
0.000000001
43
0.0000000001
44
0.0000000001
40
0.6045040641462619
40
0.6045040641462619
40
0.6045040641462619
40
0.6045040641462619
40
0.9238535580483096
40
0.9238535580483096
40
1.3858044898032569
40
1.3858044898032569
40
1.8477795765242346
40
1.8477795765242346
40
1.8477795765242346
40
1.8477795765242346
10
-93.88971433452555
20
-1.4157755786439346
30
0
10
-93.531005515736112
20
-1.0693711197096292
30
0
10
-93.262976706191438
20
-0.79426171270625634
30
0
10
-92.770205795565928
20
-0.22795517340196364
30
0
10
-92.618247983411663
20
0.015557020650961255
30
0
10
-92.447388162329801
20
0.48738962254308749
30
0
10
-92.428492452815178
20
0.71571719488895424
30
0
10
-92.40329817346236
20
1.0201539580164098
30
0
0
SPLINE
5
256
100
AcDbEntity
8
0
100
AcDbSpline
70
4
71
5
72
15
73
9
74
0
42
0.000000001
43
0.0000000001
44
0.0000000001
40
-1
40
-1
40
-1
40
-1
40
-1
40
-1
40
-0.80000000000000004
40
-0.60000000000000009
40
-0.40000000000000002
40
-0.35390349043084546
40
-0.35390349043084546
40
-0.35390349043084546
40
-0.35390349043084546
40
-0.35390349043084546
40
-0.35390349043084546
41
1
41
1
41
1
41
1
41
1
41
1
41
1
41
1
41
1
10
-97.250786788881783
20
4.1548616278535331
30
0
10
-97.245709765338717
20
3.6742882499821676
30
0
10
-97.155459686647703
20
2.7672041367997973
30
0
10
-96.780018686826082
20
1.5686146609681209
30
0
10
-96.045691594777466
20
0.49983715476115964
30
0
10
-95.09413949932366
20
-0.42692711740478062
30
0
10
-94.375952681365476
20
-1.0296695552879189
30
0
10
-93.966777308217658
20
-1.3550519868530631
30
0
10
-93.88971433452555
20
-1.4157755786439168
30
0
0
SPLINE
5
257
100
AcDbEntity
8
0
100
AcDbSpline
70
4
71
5
72
13
73
7
74
0
42
0.000000001
43
0.0000000001
44
0.0000000001
40
0.7224714902198448
40
0.7224714902198448
40
0.7224714902198448
40
0.7224714902198448
40
0.7224714902198448
40
0.7224714902198448
40
0.80000000000000004
40
0.89537870350125115
40
0.89537870350125115
40
0.89537870350125115
40
0.89537870350125115
40
0.89537870350125115
40
0.89537870350125115
41
1
41
1
41
1
41
1
41
1
41
1
41
1
10
-97.573222487635746
20
7.8160452830781946
30
0
10
-97.519994446041537
20
7.4913528830742013
30
0
10
-97.412896163985437
20
6.765111170566569
30
0
10
-97.332208985919593
20
6.0345292296249671
30
0
10
-97.27917913290797
20
5.3002551021565587
30
0
10
-97.255095198764906
20
4.5626807118554291
30
0
10
-97.250786788881783
20
4.1548616278535349
30
0
0
SPLINE
5
258
100
AcDbEntity
8
0
100
AcDbSpline
70
4
71
5
72
13
73
7
74
0
42
0.000000001
43
0.0000000001
44
0.0000000001
40
0.24503991614509463
40
0.24503991614509463
40
0.24503991614509463
40
0.24503991614509463
40
0.24503991614509463
40
0.24503991614509463
40
0.40000000000000002
40
0.51685252419059502
40
0.51685252419059502
40
0.51685252419059502
40
0.51685252419059502
40
0.51685252419059502
40
0.51685252419059502
41
1
41
1
41
1
41
1
41
1
41
1
41
1
10
-102.86374530933529
20
16.011932767046243
30
0
10
-102.60775564990682
20
15.510232950744303
30
0
10
-102.21332331996135
20
14.616464839255022
30
0
10
-101.90643549010325
20
13.699985277105851
30
0
10
-101.67164633154943
20
12.763225597925816
30
0
10
-101.4959734475608
20
11.807626543066952
30
0
10
-101.43045944288538
20
11.393409583246275
30
0
0
SPLINE
5
259
100
AcDbEntity
8
0
100
AcDbSpline
70
4
71
5
72
14
73
8
74
0
42
0.000000001
43
0.0000000001
44
0.0000000001
40
0.51685252419059335
40
0.51685252419059335
40
0.51685252419059335
40
0.51685252419059335
40
0.51685252419059335
40
0.51685252419059335
40
0.60000000000000009
40
0.80000000000000004
40
0.89014651333652772
40
0.89014651333652772
40
0.89014651333652772
40
0.89014651333652772
40
0.89014651333652772
40
0.89014651333652772
41
1
41
1
41
1
41
1
41
1
41
1
41
1
41
1
10
-101.43045944288539
20
11.393409583246308
30
0
10
-101.38384235731829
20
11.098669740139792
30
0
10
-101.24234980943869
20
10.089104069952041
30
0
10
-101.12822541193636
20
8.7321996289275798
30
0
10
-101.08888379913725
20
7.3424041486640537
30
0
10
-101.10771592771906
20
5.9183605114419437
30
0
10
-101.15420115902359
20
4.7896969740770725
30
0
10
-101.1716520450674
20
4.4368952801950741
30
0
0
SPLINE
5
260
100
AcDbEntity
8
0
100
AcDbSpline
70
4
71
5
72
12
73
6
74
0
42
0.000000001
43
0.0000000001
44
0.0000000001
40
0.89014651333658024
40
0.89014651333658024
40
0.89014651333658024
40
0.89014651333658024
40
0.89014651333658024
40
0.89014651333658024
40
1
40
1
40
1
40
1
40
1
40
1
41
1
41
1
41
1
41
1
41
1
41
1
10
-101.17165204506748
20
4.4368952801940464
30
0
10
-101.19291787783601
20
4.0069674356304317
30
0
10
-101.21865099123532
20
3.5738709547275818
30
0
10
-101.24873190348865
20
3.1375546266650458
30
0
10
-101.28311358444395
20
2.6979789643522309
30
0
10
-101.32179700736134
20
2.2551426000506791
30
0
0
LINE
5
261
100
AcDbEntity
8
0
100
AcDbLine
10
-101.32179700736134
20
2.2551426000506796
30
0
11
-102.80767421611438
21
-14.754739444979778
31
0
0
SPLINE
5
262
100
AcDbEntity
8
0
100
AcDbSpline
70
0
71
3
72
8
73
4
74
0
42
0.000000001
43
0.0000000001
44
0.0000000001
40
0
40
0
40
0
40
0
40
0.14534287605048793
40
0.14534287605048793
40
0.14534287605048793
40
0.14534287605048793
10
-102.80767421611438
20
-14.754739444979778
30
0
10
-102.8938706650394
20
-15.741490853695204
30
0
10
-102.97041479117475
20
-16.727227598069891
30
0
10
-103.03618936160905
20
-17.713103776760889
30
0
0
SPLINE
5
263
100
AcDbEntity
8
0
100
AcDbSpline
70
0
71
3
72
8
73
4
74
0
42
0.000000001
43
0.0000000001
44
0.0000000001
40
0.14534287605048807
40
0.14534287605048807
40
0.14534287605048807
40
0.14534287605048807
40
0.3746995216426155
40
0.3746995216426155
40
0.3746995216426155
40
0.3746995216426155
10
-103.03618936160905
20
-17.713103776760892
30
0
10
-103.13998416222134
20
-19.2688542852014
30
0
10
-103.21696055790532
20
-20.824952013718526
30
0
10
-103.26272822582933
20
-22.385932154242735
30
0
0
SPLINE
5
264
100
AcDbEntity
8
0
100
AcDbSpline
70
0
71
3
72
11
73
7
74
0
42
0.000000001
43
0.0000000001
44
0.0000000001
40
0.37469952164261633
40
0.37469952164261633
40
0.37469952164261633
40
0.37469952164261633
40
0.67801271907320482
40
0.67801271907320482
40
0.67801271907320482
40
0.95659463591256833
40
0.95659463591256833
40
0.95659463591256833
40
0.95659463591256833
10
-103.26272822582933
20
-22.385932154242745
30
0
10
-103.32325377834226
20
-24.450253754018966
30
0
10
-103.32919901774974
20
-26.523114105458045
30
0
10
-103.27040996196048
20
-28.615002245336456
30
0
10
-103.21641439569535
20
-30.53632387841251
30
0
10
-103.09749872114389
20
-32.478390333280615
30
0
10
-102.89150754697206
20
-34.424671483420461
30
0
0
SPLINE
5
265
100
AcDbEntity
8
0
100
AcDbSpline
70
0
71
3
72
8
73
4
74
0
42
0.000000001
43
0.0000000001
44
0.0000000001
40
0.95659463591256821
40
0.95659463591256821
40
0.95659463591256821
40
0.95659463591256821
40
1
40
1
40
1
40
1
10
-102.89150754697206
20
-34.424671483420454
30
0
10
-102.85941242028487
20
-34.727918165390264
30
0
10
-102.82520343010999
20
-35.03126716420563
30
0
10
-102.78879677512566
20
-35.334655955741781
30
0
0
LINE
5
266
100
AcDbEntity
8
0
100
AcDbLine
10
-102.78879677512566
20
-35.334655955741773
30
0
11
-99.788796730422177
21
-60.334656328270881
31
0
0
SPLINE
5
267
100
AcDbEntity
8
0
100
AcDbSpline
70
0
71
3
72
20
73
16
74
0
42
0.000000001
43
0.0000000001
44
0.0000000001
40
-1
40
-1
40
-1
40
-1
40
-0.99032961220498306
40
-0.99032961220498306
40
-0.99032961220498306
40
-0.80778318786144321
40
-0.80778318786144321
40
-0.80778318786144321
40
-0.61976440982799463
40
-0.61976440982799463
40
-0.61976440982799463
40
-0.36291265934012851
40
-0.36291265934012851
40
-0.36291265934012851
40
-0.15971621943882008
40
-0.15971621943882008
40
-0.15971621943882008
40
-0.15971621943882008
10
-99.788796730422177
20
-60.334656328270881
30
0
10
-99.782363093753673
20
-60.388269967175191
30
0
10
-99.775352402229046
20
-60.442044611941903
30
0
10
-99.767738682517091
20
-60.495965774327487
30
0
10
-99.624015665526116
20
-61.513827270534293
30
0
10
-99.227688393274974
20
-62.607909761929065
30
0
10
-98.586194716044389
20
-63.49394511380811
30
0
10
-97.925470422249973
20
-64.406541921736931
30
0
10
-97.069280838726414
20
-65.049498767945494
30
0
10
-96.28695173264596
20
-65.462335562459728
30
0
10
-95.218214862551932
20
-66.026310365646239
30
0
10
-94.263949775159958
20
-66.247423004044975
30
0
10
-93.40177770611399
20
-66.399328140391475
30
0
10
-92.719709958163165
20
-66.519500897048587
30
0
10
-92.085719470284161
20
-66.588782949682198
30
0
10
-91.476116371748333
20
-66.626488841970712
30
0
0
SPLINE
5
268
100
AcDbEntity
8
0
100
AcDbSpline
70
0
71
3
72
8
73
4
74
0
42
0.000000001
43
0.0000000001
44
0.0000000001
40
-0.15971621943882539
40
-0.15971621943882539
40
-0.15971621943882539
40
-0.15971621943882539
40
-0.11856548987200374
40
-0.11856548987200374
40
-0.11856548987200374
40
-0.11856548987200374
10
-91.47611637174839
20
-66.62648884197074
30
0
10
-91.352661392600481
20
-66.634124925444411
30
0
10
-91.230206616563777
20
-66.640465971824455
30
0
10
-91.10855527901208
20
-66.645672404905895
30
0
0
SPLINE
5
269
100
AcDbEntity
8
0
100
AcDbSpline
70
0
71
3
72
8
73
4
74
0
42
0.000000001
43
0.0000000001
44
0.0000000001
40
-0.11856548987200365
40
-0.11856548987200365
40
-0.11856548987200365
40
-0.11856548987200365
40
0
40
0
40
0
40
0
10
-91.10855527901208
20
-66.645672404905909
30
0
10
-90.758047509593794
20
-66.660673433934704
30
0
10
-90.414209560767219
20
-66.666255363326457
30
0
10
-90.0723350274219
20
-66.666255363326457
30
0
0
LINE
5
270
100
AcDbEntity
8
0
100
AcDbLine
10
-90.0723350274219
20
-66.666255363326457
30
0
11
-59.108173770916309
21
-66.666255363326457
31
0
0
SPLINE
5
271
100
AcDbEntity
8
0
100
AcDbSpline
70
0
71
3
72
14
73
10
74
0
42
0.000000001
43
0.0000000001
44
0.0000000001
40
0.19862249706136467
40
0.19862249706136467
40
0.19862249706136467
40
0.19862249706136467
40
0.39398882867434026
40
0.39398882867434026
40
0.39398882867434026
40
0.67636728762579179
40
0.67636728762579179
40
0.67636728762579179
40
0.8171783485143963
40
0.8171783485143963
40
0.8171783485143963
40
0.8171783485143963
10
-59.108173770916309
20
-66.666255363326457
30
0
10
-59.038824332110238
20
-66.696993105977924
30
0
10
-58.840743171879168
20
-66.808671691503122
30
0
10
-58.513207928288523
20
-67.056534445450339
30
0
10
-58.039795254908164
20
-67.414790148534991
30
0
10
-57.353105168336128
20
-68.045879327448247
30
0
10
-56.306763815897149
20
-68.706657226885255
30
0
10
-55.784994427270085
20
-69.036161245630069
30
0
10
-55.149018824957508
20
-69.370262949436921
30
0
10
-54.421689315053435
20
-69.617990077768553
30
0
0
SPLINE
5
272
100
AcDbEntity
8
0
100
AcDbSpline
70
0
71
3
72
11
73
7
74
0
42
0.000000001
43
0.0000000001
44
0.0000000001
40
0.8171783485151245
40
0.8171783485151245
40
0.8171783485151245
40
0.8171783485151245
40
0.8876648911288797
40
0.8876648911288797
40
0.8876648911288797
40
0.89341490714151617
40
0.89341490714151617
40
0.89341490714151617
40
0.89341490714151617
10
-54.421689315042144
20
-69.61799007777239
30
0
10
-54.057606109002549
20
-69.741996165628535
30
0
10
-53.670631837610401
20
-69.844358887545056
30
0
10
-53.263632911110783
20
-69.913667411785823
30
0
10
-53.230431533121191
20
-69.919321329674517
30
0
10
-53.197136534519977
20
-69.924744821135079
30
0
10
-53.163756369979026
20
-69.929938205334636
30
0
0
SPLINE
5
273
100
AcDbEntity
8
0
100
AcDbSpline
70
0
71
3
72
8
73
4
74
0
42
0.000000001
43
0.0000000001
44
0.0000000001
40
0.89341490714151628
40
0.89341490714151628
40
0.89341490714151628
40
0.89341490714151628
40
0.9615083725561332
40
0.9615083725561332
40
0.9615083725561332
40
0.9615083725561332
10
-53.163756369979026
20
-69.929938205334636
30
0
10
-52.768458152598626
20
-69.991439864912678
30
0
10
-52.361216240109947
20
-70.020671218127092
30
0
10
-51.956071886824517
20
-70.018162327805186
30
0
0
SPLINE
5
274
100
AcDbEntity
8
0
100
AcDbSpline
70
0
71
3
72
8
73
4
74
0
42
0.000000001
43
0.0000000001
44
0.0000000001
40
0.96150837255613264
40
0.96150837255613264
40
0.96150837255613264
40
0.96150837255613264
40
1
40
1
40
1
40
1
10
-51.95607188682451
20
-70.018162327805157
30
0
10
-51.72705335453665
20
-70.016744111373072
30
0
10
-51.498705070826617
20
-70.005183700595936
30
0
10
-51.273563264411251
20
-69.983576839097083
30
0
0
LINE
5
275
100
AcDbEntity
8
0
100
AcDbLine
10
-51.273563264411266
20
-69.983576839097083
30
0
11
-14.764887226523467
21
-66.479838820749706
31
0
0
SPLINE
5
276
100
AcDbEntity
8
0
100
AcDbSpline
70
0
71
3
72
8
73
4
74
0
42
0.000000001
43
0.0000000001
44
0.0000000001
40
0
40
0
40
0
40
0
40
0.033623868513582553
40
0.033623868513582553
40
0.033623868513582553
40
0.033623868513582553
10
-14.764887226523468
20
-66.479838820749706
30
0
10
-14.399763582500377
20
-66.444797900842516
30
0
10
-14.037053213423601
20
-66.393514381844184
30
0
10
-13.678583456227802
20
-66.326953889447722
30
0
0
SPLINE
5
277
100
AcDbEntity
8
0
100
AcDbSpline
70
0
71
3
72
8
73
4
74
0
42
0.000000001
43
0.0000000001
44
0.0000000001
40
0.03362386851367636
40
0.03362386851367636
40
0.03362386851367636
40
0.03362386851367636
40
0.13979111546090431
40
0.13979111546090431
40
0.13979111546090431
40
0.13979111546090431
10
-13.678583456224798
20
-66.326953889447168
30
0
10
-12.546716454664784
20
-66.116789368064431
30
0
10
-11.457127438051593
20
-65.754316720051548
30
0
10
-10.467340166086903
20
-65.269933415778524
30
0
0
SPLINE
5
278
100
AcDbEntity
8
0
100
AcDbSpline
70
0
71
3
72
11
73
7
74
0
42
0.000000001
43
0.0000000001
44
0.0000000001
40
0.13979111546090439
40
0.13979111546090439
40
0.13979111546090439
40
0.13979111546090439
40
0.17112855423075315
40
0.17112855423075315
40
0.17112855423075315
40
0.26486295477409799
40
0.26486295477409799
40
0.26486295477409799
40
0.26486295477409799
10
-10.467340166086899
20
-65.269933415778524
30
0
10
-10.175184167676324
20
-65.126957756380122
30
0
10
-9.8917234582212537
20
-64.97336055537771
30
0
10
-9.6184373712197324
20
-64.809923541858652
30
0
10
-8.8010027451784119
20
-64.321061940841574
30
0
10
-8.0772833817080816
20
-63.761672823424092
30
0
10
-7.4281574522895895
20
-63.170243417368241
30
0
0
SPLINE
5
279
100
AcDbEntity
8
0
100
AcDbSpline
70
0
71
3
72
17
73
13
74
0
42
0.000000001
43
0.0000000001
44
0.0000000001
40
0.26486295477409844
40
0.26486295477409844
40
0.26486295477409844
40
0.26486295477409844
40
0.38593495030313996
40
0.38593495030313996
40
0.38593495030313996
40
0.63272958992324757
40
0.63272958992324757
40
0.63272958992324757
40
0.82115989298640035
40
0.82115989298640035
40
0.82115989298640035
40
0.84867834679106413
40
0.84867834679106413
40
0.84867834679106413
40
0.84867834679106413
10
-7.4281574522895788
20
-63.170243417368226
30
0
10
-6.5897142428725797
20
-62.406323895926079
30
0
10
-5.8757196261303504
20
-61.588949685333034
30
0
10
-5.2449673132594938
20
-60.801058242162149
30
0
10
-3.9592340678107352
20
-59.19501066751485
30
0
10
-2.9563221952932182
20
-57.675880427908353
30
0
10
-2.0481530835205568
20
-56.624606163257496
30
0
10
-1.3547564148273759
20
-55.82194720520404
30
0
10
-0.75744547827287023
20
-55.317303263549277
30
0
10
-0.22336572609860245
20
-55.031325281366428
30
0
10
-0.14536845735097362
20
-54.989560916697265
30
0
10
-0.06809841768653721
20
-54.950832821778363
30
0
10
0.009864759752103271
20
-54.915195439469485
30
0
0
SPLINE
5
280
100
AcDbEntity
8
0
100
AcDbSpline
70
0
71
3
72
8
73
4
74
0
42
0.000000001
43
0.0000000001
44
0.0000000001
40
0.84867834679106424
40
0.84867834679106424
40
0.84867834679106424
40
0.84867834679106424
40
1
40
1
40
1
40
1
10
0.0098647597521041991
20
-54.915195439469493
30
0
10
0.43857768756337467
20
-54.719228484156616
30
0
10
0.88824976536231537
20
-54.616718719568809
30
0
10
1.5950547713119168
20
-54.616718719568809
30
0
0
LINE
5
281
100
AcDbEntity
8
0
100
AcDbLine
10
1.5950547713119168
20
-54.616718719568809
30
0
11
25.00000037252903
21
-54.616718719568809
31
0
0
SPLINE
5
282
100
AcDbEntity
8
0
100
AcDbSpline
70
4
71
5
72
15
73
9
74
0
42
0.000000001
43
0.0000000001
44
0.0000000001
40
0
40
0
40
0
40
0
40
0
40
0
40
0.20000000000000001
40
0.40000000000000002
40
0.60000000000000009
40
0.76446581845910977
40
0.76446581845910977
40
0.76446581845910977
40
0.76446581845910977
40
0.76446581845910977
40
0.76446581845910977
41
1
41
1
41
1
41
1
41
1
41
1
41
1
41
1
41
1
10
25.00000037252903
20
-54.616718719568809
30
0
10
25.648382628988632
20
-54.616718719568809
30
0
10
26.854922997840159
20
-54.501246125175662
30
0
10
28.394291772316713
20
-53.981932646169525
30
0
10
29.899438038166029
20
-52.751347674748487
30
0
10
30.960244054835144
20
-51.045246434564298
30
0
10
31.535190407859858
20
-49.627114759457527
30
0
10
31.818310551518884
20
-48.661512354985788
30
0
10
31.92780183816317
20
-48.21666019416142
30
0
0
SPLINE
5
283
100
AcDbEntity
8
0
100
AcDbSpline
70
4
71
5
72
13
73
7
74
0
42
0.000000001
43
0.0000000001
44
0.0000000001
40
0.76446581845911876
40
0.76446581845911876
40
0.76446581845911876
40
0.76446581845911876
40
0.76446581845911876
40
0.76446581845911876
40
0.80000000000000004
40
1
40
1
40
1
40
1
40
1
40
1
41
1
41
1
41
1
41
1
41
1
41
1
41
1
10
31.927801838163205
20
-48.216660194161307
30
0
10
31.951458323706611
20
-48.120546256385737
30
0
10
32.10261034986334
20
-47.480643551246416
30
0
10
32.216153236333447
20
-46.822494893622576
30
0
10
32.290999796849043
20
-46.148900263612234
30
0
10
32.32538378955325
20
-45.46086696968559
30
0
10
32.32538378955325
20
-44.86622086563515
30
0
0
LINE
5
284
100
AcDbEntity
8
0
100
AcDbLine
10
32.32538378955325
20
-44.86622086563515
30
0
11
32.32538378955325
21
16.000000238418579
31
0
0
SPLINE
5
285
100
AcDbEntity
8
0
100
AcDbSpline
70
4
71
5
72
15
73
9
74
0
42
0.000000001
43
0.0000000001
44
0.0000000001
40
0
40
0
40
0
40
0
40
0
40
0
40
0.20000000000000001
40
0.40000000000000002
40
0.60000000000000009
40
0.7108518841610284
40
0.7108518841610284
40
0.7108518841610284
40
0.7108518841610284
40
0.7108518841610284
40
0.7108518841610284
41
1
41
1
41
1
41
1
41
1
41
1
41
1
41
1
41
1
10
32.32538378955325
20
16.000000238418579
30
0
10
32.32538378955325
20
16.452187097095489
30
0
10
32.274963636720727
20
17.351867277967095
30
0
10
32.048191660369099
20
18.687286918265059
30
0
10
31.534625833771095
20
20.222688579093617
30
0
10
30.760762904395122
20
21.594765339311085
30
0
10
30.06014673743849
20
22.42198664801229
30
0
10
29.574320303044573
20
22.847373719801062
30
0
10
29.393208871283623
20
22.988310893631979
30
0
0
SPLINE
5
286
100
AcDbEntity
8
0
100
AcDbSpline
70
4
71
5
72
13
73
7
74
0
42
0.000000001
43
0.0000000001
44
0.0000000001
40
0.7108518841610274
40
0.7108518841610274
40
0.7108518841610274
40
0.7108518841610274
40
0.7108518841610274
40
0.7108518841610274
40
0.80000000000000004
40
1
40
1
40
1
40
1
40
1
40
1
41
1
41
1
41
1
41
1
41
1
41
1
41
1
10
29.393208871283623
20
22.988310893631976
30
0
10
29.247557374057529
20
23.101653879128236
30
0
10
28.758649794318373
20
23.446708274261397
30
0
10
28.214630639458104
20
23.71395022896095
30
0
10
27.60992669092375
20
23.888800128612001
30
0
10
26.939290070595963
20
23.96033057948577
30
0
10
26.443848820488792
20
23.96033057948577
30
0
0
LINE
5
287
100
AcDbEntity
8
0
100
AcDbLine
10
26.443848820488789
20
23.960330579485777
30
0
11
-10.099999774247408
21
23.960330579485767
31
0
0
SPLINE
5
288
100
AcDbEntity
8
0
100
AcDbSpline
70
4
71
5
72
16
73
10
74
0
42
0.000000001
43
0.0000000001
44
0.0000000001
40
0
40
0
40
0
40
0
40
0
40
0
40
0.10000000000000001
40
0.20000000000000001
40
0.30000000000000004
40
0.40000000000000002
40
0.40973494252384696
40
0.40973494252384696
40
0.40973494252384696
40
0.40973494252384696
40
0.40973494252384696
40
0.40973494252384696
41
1
41
1
41
1
41
1
41
1
41
1
41
1
41
1
41
1
41
1
10
-10.099999774247408
20
23.960330579485767
30
0
10
-10.669717957222755
20
23.960330579485767
30
0
10
-11.733048699581365
20
23.868216270644886
30
0
10
-13.099742863439392
20
23.45372302858026
30
0
10
-14.493450592942219
20
22.400477628432981
30
0
10
-15.462399030654666
20
20.873796385492007
30
0
10
-16.020313833679204
20
19.630747414743265
30
0
10
-16.349265884124307
20
18.803447419485192
30
0
10
-16.512213391804412
20
18.381575559614433
30
0
10
-16.526599800457493
20
18.344241183336631
30
0
0
SPLINE
5
289
100
AcDbEntity
8
0
100
AcDbSpline
70
4
71
5
72
15
73
9
74
0
42
0.000000001
43
0.0000000001
44
0.0000000001
40
0.40973494252384723
40
0.40973494252384723
40
0.40973494252384723
40
0.40973494252384723
40
0.40973494252384723
40
0.40973494252384723
40
0.5
40
0.59999999999999998
40
0.69999999999999996
40
0.74781921181067967
40
0.74781921181067967
40
0.74781921181067967
40
0.74781921181067967
40
0.74781921181067967
40
0.74781921181067967
41
1
41
1
41
1
41
1
41
1
41
1
41
1
41
1
41
1
10
-16.526599800457497
20
18.344241183336628
30
0
10
-16.659994527829006
20
17.998066605284734
30
0
10
-16.928631060131558
20
17.28491856103685
30
0
10
-17.31390364370629
20
16.276320087193035
30
0
10
-17.774623050862125
20
15.329380628752549
30
0
10
-18.321324597825758
20
14.721097280788962
30
0
10
-18.781286265312531
20
14.431194877614359
30
0
10
-19.07766809681581
20
14.303998834243821
30
0
10
-19.175869520108506
20
14.267280943252922
30
0
0
SPLINE
5
290
100
AcDbEntity
8
0
100
AcDbSpline
70
4
71
5
72
14
73
8
74
0
42
0.000000001
43
0.0000000001
44
0.0000000001
40
0.7478192118108592
40
0.7478192118108592
40
0.7478192118108592
40
0.7478192118108592
40
0.7478192118108592
40
0.7478192118108592
40
0.79999999999999993
40
0.89999999999999991
40
1
40
1
40
1
40
1
40
1
40
1
41
1
41
1
41
1
41
1
41
1
41
1
41
1
41
1
10
-19.175869520110346
20
14.267280943252239
30
0
10
-19.28302786661337
20
14.227214024120862
30
0
10
-19.603611328763058
20
14.125745492918814
30
0
10
-20.174156793313006
20
14.025436510212534
30
0
10
-20.809989784078976
20
14.003703486258313
30
0
10
-21.507262808274334
20
14.004142753820181
30
0
10
-22.097366779384913
20
14.004263301391966
30
0
10
-22.401695812835008
20
14.004263301391966
30
0
0
LINE
5
291
100
AcDbEntity
8
0
100
AcDbLine
10
-22.401695812835008
20
14.004263301391966
30
0
11
-34.361727924017217
21
14.004263301391966
31
0
0
SPLINE
5
292
100
AcDbEntity
8
0
100
AcDbSpline
70
4
71
5
72
13
73
7
74
0
42
0.000000001
43
0.0000000001
44
0.0000000001
40
-1
40
-1
40
-1
40
-1
40
-1
40
-1
40
-0.89999999999999991
40
-0.82722728164473247
40
-0.82722728164473247
40
-0.82722728164473247
40
-0.82722728164473247
40
-0.82722728164473247
40
-0.82722728164473247
41
1
41
1
41
1
41
1
41
1
41
1
41
1
10
-34.361727924017217
20
14.004263301391966
30
0
10
-34.85160455160802
20
14.004263301391966
30
0
10
-35.70045511749943
20
14.034337058089228
30
0
10
-36.553579560249801
20
14.116372903824265
30
0
10
-37.405432846847717
20
14.253567240337027
30
0
10
-38.245359578143862
20
14.451778532184452
30
0
10
-38.596167817201355
20
14.546539793936537
30
0
0
SPLINE
5
293
100
AcDbEntity
8
0
100
AcDbSpline
70
4
71
5
72
15
73
9
74
0
42
0.000000001
43
0.0000000001
44
0.0000000001
40
-0.82722728164449988
40
-0.82722728164449988
40
-0.82722728164449988
40
-0.82722728164449988
40
-0.82722728164449988
40
-0.82722728164449988
40
-0.79999999999999993
40
-0.69999999999999996
40
-0.59999999999999998
40
-0.52707260034662873
40
-0.52707260034662873
40
-0.52707260034662873
40
-0.52707260034662873
40
-0.52707260034662873
40
-0.52707260034662873
41
1
41
1
41
1
41
1
41
1
41
1
41
1
41
1
41
1
10
-38.596167817206968
20
14.546539793938052
30
0
10
-38.727419678397574
20
14.581993898457281
30
0
10
-39.338786967032078
20
14.755037544763683
30
0
10
-40.412705915475897
20
15.126550266507618
30
0
10
-41.769064769561794
20
15.774835150223501
30
0
10
-42.994310340547898
20
16.653700880601747
30
0
10
-43.96740493403064
20
17.647789865628901
30
0
10
-44.52776952657382
20
18.348455207153297
30
0
10
-44.754507054244471
20
18.655610374440109
30
0
0
SPLINE
5
294
100
AcDbEntity
8
0
100
AcDbSpline
70
4
71
5
72
15
73
9
74
0
42
0.000000001
43
0.0000000001
44
0.0000000001
40
-0.52707260034666681
40
-0.52707260034666681
40
-0.52707260034666681
40
-0.52707260034666681
40
-0.52707260034666681
40
-0.52707260034666681
40
-0.5
40
-0.40000000000000002
40
-0.30000000000000004
40
-0.29134070401662415
40
-0.29134070401662415
40
-0.29134070401662415
40
-0.29134070401662415
40
-0.29134070401662415
40
-0.29134070401662415
41
1
41
1
41
1
41
1
41
1
41
1
41
1
41
1
41
1
10
-44.754507054243874
20
18.655610374439313
30
0
10
-44.83867808597401
20
18.769634583829649
30
0
10
-45.227560311633965
20
19.312386032586069
30
0
10
-45.87132426805718
20
20.343702597001467
30
0
10
-46.45446653031221
20
21.50974228503334
30
0
10
-46.991048860268904
20
22.717595917885482
30
0
10
-47.473102880584158
20
23.766292991615749
30
0
10
-47.732439829659299
20
24.299251556419968
30
0
10
-47.753162951844587
20
24.341636819363476
30
0
0
SPLINE
5
295
100
AcDbEntity
8
0
100
AcDbSpline
70
4
71
5
72
14
73
8
74
0
42
0.000000001
43
0.0000000001
44
0.0000000001
40
-0.29134070401662299
40
-0.29134070401662299
40
-0.29134070401662299
40
-0.29134070401662299
40
-0.29134070401662299
40
-0.29134070401662299
40
-0.20000000000000001
40
-0.10000000000000001
40
0
40
0
40
0
40
0
40
0
40
0
41
1
41
1
41
1
41
1
41
1
41
1
41
1
41
1
10
-47.753162951844608
20
24.341636819363512
30
0
10
-47.971756307870507
20
24.788728564999928
30
0
10
-48.442717692908566
20
25.704933979659117
30
0
10
-49.226829334912637
20
27.004826093372483
30
0
10
-50.195580332575616
20
28.063367895133258
30
0
10
-51.452950800539952
20
28.761483484944304
30
0
10
-52.467633333258767
20
29.053333419803042
30
0
10
-53.012857274071557
20
29.15240697255113
30
0
0
LINE
5
296
100
AcDbEntity
8
0
100
AcDbLine
10
-53.012857274071557
20
29.15240697255113
30
0
11
-68.622496606925466
21
31.988860602075757
31
0
0
SPLINE
5
297
100
AcDbEntity
8
0
100
AcDbSpline
70
0
71
3
72
10
73
6
74
0
42
0.000000001
43
0.0000000001
44
0.0000000001
40
0.16245433259404377
40
0.16245433259404377
40
0.16245433259404377
40
0.16245433259404377
40
0.26978069817554579
40
0.26978069817554579
40
0.53948561234994474
40
0.53948561234994474
40
0.53948561234994474
40
0.53948561234994474
10
-72.243751199105873
20
32.979145069523533
30
0
10
-71.909848205442003
20
32.855160635205266
30
0
10
-71.572597199334183
20
32.739437068872213
30
0
10
-70.373756629996791
20
32.362054328241278
30
0
10
-69.507038921139781
20
32.149592263078368
30
0
10
-68.622496606925466
20
31.988860602075757
30
0
0
SPLINE
5
298
100
AcDbEntity
8
0
100
AcDbSpline
70
0
71
3
72
8
73
4
74
0
42
0.000000001
43
0.0000000001
44
0.0000000001
40
0
40
0
40
0
40
0
40
0.16245433259506004
40
0.16245433259506004
40
0.16245433259506004
40
0.16245433259506004
10
-73.73927986113722
20
33.598805755439784
30
0
10
-73.24690362669925
20
33.3734093609757
30
0
10
-72.749162778937645
20
33.166813853608559
30
0
10
-72.243751199096394
20
32.979145069520001
30
0
0
SPLINE
5
299
100
AcDbEntity
8
0
100
AcDbSpline
70
0
71
3
72
10
73
6
74
0
42
0.000000001
43
0.0000000001
44
0.0000000001
40
0.036248021115407321
40
0.036248021115407321
40
0.036248021115407321
40
0.036248021115407321
40
0.19614362250703274
40
0.19614362250703274
40
0.36850904690606345
40
0.36850904690606345
40
0.36850904690606345
40
0.36850904690606345
10
-77.230250124996928
20
36.093240595556608
30
0
10
-76.767191716850505
20
35.676476227291587
30
0
10
-76.163888285349827
20
35.156398615037944
30
0
10
-74.914752911302031
20
34.223526034540207
30
0
10
-74.34248859198712
20
33.874938240180889
30
0
10
-73.73927986113722
20
33.598805755439791
30
0
0
SPLINE
5
300
100
AcDbEntity
8
0
100
AcDbSpline
70
0
71
3
72
8
73
4
74
0
42
0.000000001
43
0.0000000001
44
0.0000000001
40
0
40
0
40
0
40
0
40
0.036248021115404129
40
0.036248021115404129
40
0.036248021115404129
40
0.036248021115404129
10
-77.52189175057039
20
36.35871863961178
30
0
10
-77.432991528670598
20
36.276890460280676
30
0
10
-77.335224563380962
20
36.187720265350791
30
0
10
-77.230250124996957
20
36.093240595556637
30
0
0
SPLINE
5
301
100
AcDbEntity
8
0
100
AcDbSpline
70
0
71
3
72
8
73
4
74
0
42
0.000000001
43
0.0000000001
44
0.0000000001
40
0.69048346618014134
40
0.69048346618014134
40
0.69048346618014134
40
0.69048346618014134
40
1.2925160645548637
40
1.2925160645548637
40
1.2925160645548637
40
1.2925160645548637
10
-84.007012214448764
20
41.582824278122878
30
0
10
-81.829841166107428
20
39.990536863255258
30
0
10
-79.549803828453918
20
38.225309629156364
30
0
10
-77.521891750626992
20
36.358718639550283
30
0
0
SPLINE
5
302
100
AcDbEntity
8
0
100
AcDbSpline
70
0
71
3
72
10
73
6
74
0
42
0.000000001
43
0.0000000001
44
0.0000000001
40
0
40
0
40
0
40
0
40
0.6809478886201622
40
0.6809478886201622
40
0.69048346618014056
40
0.69048346618014056
40
0.69048346618014056
40
0.69048346618014056
10
-91.931997074059026
20
47.129834576059352
30
0
10
-90.057856471676956
20
45.849323578920043
30
0
10
-86.569157103858444
20
43.453144338655711
30
0
10
-84.075954711277802
20
41.633221284227574
30
0
10
-84.04149636605257
20
41.608044474144215
30
0
10
-84.00701221444875
20
41.582824278122871
30
0
0
SPLINE
5
303
100
AcDbEntity
8
0
100
AcDbSpline
70
0
71
3
72
12
73
8
74
0
42
0.000000001
43
0.0000000001
44
0.0000000001
40
0
40
0
40
0
40
0
40
0.17241385814177065
40
0.17241385814177065
40
0.41656550342665066
40
0.41656550342665066
40
0.9531403925718207
40
0.9531403925718207
40
0.9531403925718207
40
0.9531403925718207
10
-102.00000151991846
20
50.702366539387775
30
0
10
-101.44221900856004
20
50.840835099051212
30
0
10
-100.86797937260775
20
50.867591275903948
30
0
10
-99.48594773794926
20
50.755579688955635
30
0
10
-98.623348681520298
20
50.539547069942955
30
0
10
-95.71926509695021
20
49.487755490637213
30
0
10
-93.540759870020551
20
48.22902555959547
30
0
10
-91.931997074058984
20
47.129834576059338
30
0
0
SPLINE
5
304
100
AcDbEntity
8
0
100
AcDbSpline
70
0
71
3
72
8
73
4
74
0
42
0.000000001
43
0.0000000001
44
0.0000000001
40
0.26529337747404708
40
0.26529337747404708
40
0.26529337747404708
40
0.26529337747404708
40
0.32362285417759673
40
0.32362285417759673
40
0.32362285417759673
40
0.32362285417759673
10
-102.54942212950192
20
50.526281465181228
30
0
10
-102.37193236742814
20
50.596782147719274
30
0
10
-102.18890311881964
20
50.655472038779756
30
0
10
-102.00000151992
20
50.702366539387356
30
0
0
SPLINE
5
305
100
AcDbEntity
8
0
100
AcDbSpline
70
0
71
3
72
10
73
6
74
0
42
0.000000001
43
0.0000000001
44
0.0000000001
40
0
40
0
40
0
40
0
40
0.16155381936618521
40
0.16155381936618521
40
0.26529337747404635
40
0.26529337747404635
40
0.26529337747404635
40
0.26529337747404635
10
-104.59420128744277
20
48.914829456608267
30
0
10
-104.26398054638682
20
49.340211900843045
30
0
10
-103.88566241133645
20
49.726203673203919
30
0
10
-103.16323482806112
20
50.238150437047707
30
0
10
-102.86508944775653
20
50.400895295681202
30
0
10
-102.54942212950192
20
50.526281465181228
30
0
0
LINE
5
306
100
AcDbEntity
8
0
100
AcDbLine
10
-104.59420128744277
20
48.914829456608267
30
0
11
-113.27403343357588
21
37.73367771531251
31
0
0
SPLINE
5
307
100
AcDbEntity
8
0
100
AcDbSpline
70
0
71
3
72
10
73
6
74
0
42
0.000000001
43
0.0000000001
44
0.0000000001
40
0.3550521063951691
40
0.3550521063951691
40
0.3550521063951691
40
0.3550521063951691
40
0.37956249519858998
40
0.37956249519858998
40
0.50201653707816263
40
0.50201653707816263
40
0.50201653707816263
40
0.50201653707816263
10
-114.36383778655701
20
35.954152595516348
30
0
10
-114.31588013551266
20
36.059717737695458
30
0
10
-114.2654753751425
20
36.164418408321808
30
0
10
-113.94883362260948
20
36.787261626604668
30
0
10
-113.63091738032918
20
37.273948368534889
30
0
10
-113.27403343357588
20
37.73367771531251
30
0
0
SPLINE
5
308
100
AcDbEntity
8
0
100
AcDbSpline
70
0
71
3
72
10
73
6
74
0
42
0.000000001
43
0.0000000001
44
0.0000000001
40
0.0028633057683172649
40
0.0028633057683172649
40
0.0028633057683172649
40
0.0028633057683172649
40
0.2566817701913911
40
0.2566817701913911
40
0.35505210639516888
40
0.35505210639516888
40
0.35505210639516888
40
0.35505210639516888
10
-114.93168386912031
20
31.564513424096084
30
0
10
-115.06005081741091
20
32.40548853063396
30
0
10
-115.10625497865745
20
33.467013758620155
30
0
10
-114.70936880479402
20
35.092874900031966
30
0
10
-114.55631169199404
20
35.530475981863077
30
0
10
-114.36383778655701
20
35.954152595516348
30
0
0
LINE
5
309
100
AcDbEntity
8
0
100
AcDbLine
10
-114.92730856843698
20
31.53613686509533
30
0
11
-114.93168386912031
21
31.564513424096084
31
0
0
SPLINE
5
310
100
AcDbEntity
8
0
100
AcDbSpline
70
4
71
5
72
14
73
8
74
0
42
0.000000001
43
0.0000000001
44
0.0000000001
40
0.44898385350180603
40
0.44898385350180603
40
0.44898385350180603
40
0.44898385350180603
40
0.44898385350180603
40
0.44898385350180603
40
0.60000000000000009
40
0.80000000000000004
40
1
40
1
40
1
40
1
40
1
40
1
41
1
41
1
41
1
41
1
41
1
41
1
41
1
41
1
10
-114.92730856843698
20
31.53613686509533
30
0
10
-114.86263115060396
20
31.120822136725653
30
0
10
-114.65650810678119
20
30.159840939021258
30
0
10
-114.14252557718811
20
28.672777420868009
30
0
10
-113.36602442614219
20
27.241419416552702
30
0
10
-112.33431539149936
20
25.902713919157478
30
0
10
-111.44278624032845
20
24.988876474210965
30
0
10
-110.96135150937764
20
24.546464239728571
30
0
0
LINE
5
311
100
AcDbEntity
8
0
100
AcDbLine
10
-110.96135150937766
20
24.546464239728571
30
0
11
-105.75924584845851
21
19.766013139087224
31
0
0
SPLINE
5
312
100
AcDbEntity
8
0
100
AcDbSpline
70
4
71
5
72
13
73
7
74
0
42
0.000000001
43
0.0000000001
44
0.0000000001
40
0
40
0
40
0
40
0
40
0
40
0
40
0.20000000000000001
40
0.24503991614511411
40
0.24503991614511411
40
0.24503991614511411
40
0.24503991614511411
40
0.24503991614511411
40
0.24503991614511411
41
1
41
1
41
1
41
1
41
1
41
1
41
1
10
-105.75924584845851
20
19.766013139087224
30
0
10
-105.13253622959071
20
19.190101213690145
30
0
10
-104.44511111976178
20
18.465395696962503
30
0
10
-103.85612696799397
20
17.717310565890116
30
0
10
-103.35725412403669
20
16.947495440944028
30
0
10
-102.93814997218668
20
16.157754304400136
30
0
10
-102.86374530933513
20
16.011932767045931
30
0
0
ARC
5
313
100
AcDbEntity
8
0
100
AcDbCircle
10
-105
20
35
30
0
40
7.2499999999999964
210
0
220
-0
230
1
100
AcDbArc
50
50.668893861823243
51
111.14259746042799
0
LINE
5
314
100
AcDbEntity
8
0
100
AcDbLine
10
-107.61500487609995
20
41.76197082942344
30
0
11
-103.01435955084881
21
47.688411873843023
31
0
0
SPLINE
5
315
100
AcDbEntity
8
0
100
AcDbSpline
70
0
71
3
72
10
73
6
74
0
42
0.000000001
43
0.0000000001
44
0.0000000001
40
0
40
0
40
0
40
0
40
0.070190965522535634
40
0.070190965522535634
40
0.14040019920448243
40
0.14040019920448243
40
0.14040019920448243
40
0.14040019920448243
10
-102.00000151991847
20
48.649927238916952
30
0
10
-102.19705300299756
20
48.523782004609828
30
0
10
-102.37896110165075
20
48.375578323452402
30
0
10
-102.71553835356332
20
48.050633276687236
30
0
10
-102.87095358346475
20
47.873144004019395
30
0
10
-103.01435955084881
20
47.688411873843023
30
0
0
SPLINE
5
316
100
AcDbEntity
8
0
100
AcDbSpline
70
0
71
3
72
12
73
8
74
0
42
0.000000001
43
0.0000000001
44
0.0000000001
40
1.0740012608188418
40
1.0740012608188418
40
1.0740012608188418
40
1.0740012608188418
40
1.1897236612383291
40
1.1897236612383291
40
1.2779348447757695
40
1.2779348447757695
40
1.3659140627843742
40
1.3659140627843742
40
1.3659140627843742
40
1.3659140627843742
10
-100.20368820230972
20
49.069917035222787
30
0
10
-100.45021684970307
20
49.09451808138175
30
0
10
-100.69815319255312
20
49.09179607946308
30
0
10
-101.13367541250356
20
49.024860114343909
30
0
10
-101.31652838280598
20
48.976223714248583
30
0
10
-101.67168925621397
20
48.839153846903152
30
0
10
-101.83991764579514
20
48.752407146677754
30
0
10
-102.00000151991841
20
48.649927238916959
30
0
0
SPLINE
5
317
100
AcDbEntity
8
0
100
AcDbSpline
70
0
71
3
72
14
73
10
74
0
42
0.000000001
43
0.0000000001
44
0.0000000001
40
0
40
0
40
0
40
0
40
0.0093243129547520148
40
0.0093243129547520148
40
0.016852161804272566
40
0.016852161804272566
40
0.03711357160515176
40
0.03711357160515176
40
0.048000097977676855
40
0.048000097977676855
40
0.048000097977676855
40
0.048000097977676855
10
-97.42533498020471
20
47.163243443184875
30
0
10
-97.432346743185349
20
47.193523245450024
30
0
10
-97.43841154769629
20
47.219713674572532
30
0
10
-97.482741567528265
20
47.282224961802079
30
0
10
-97.514498358953773
20
47.315585475866413
30
0
10
-97.715807621458865
20
47.484610189426775
30
0
10
-98.025996110361447
20
47.696326515662911
30
0
10
-99.06612427882618
20
48.358568380633777
30
0
10
-99.605398850217611
20
48.697020268107366
30
0
10
-100.20368820230968
20
49.069917035222765
30
0
0
SPLINE
5
318
100
AcDbEntity
8
0
100
AcDbSpline
70
0
71
3
72
14
73
10
74
0
42
0.000000001
43
0.0000000001
44
0.0000000001
40
0
40
0
40
0
40
0
40
0.63960767985060252
40
0.63960767985060252
40
0.95960580826783626
40
0.95960580826783626
40
1.1196911705077777
40
1.1196911705077777
40
1.2797945402889563
40
1.2797945402889563
40
1.2797945402889563
40
1.2797945402889563
10
-99.14128321221969
20
43.058729766223614
30
0
10
-98.257349763428181
20
44.998883063012158
30
0
10
-97.81538303903244
20
45.968959711406413
30
0
10
-97.493577590551666
20
46.738711875234173
30
0
10
-97.44325529871972
20
46.88087575018664
30
0
10
-97.412780505526015
20
47.019077866475683
30
0
10
-97.410134886451075
20
47.052626089144852
30
0
10
-97.413166542962216
20
47.110694908016811
30
0
10
-97.418845147008767
20
47.135217557762132
30
0
10
-97.42533498020471
20
47.163243443184875
30
0
0
SPLINE
5
319
100
AcDbEntity
8
0
100
AcDbSpline
70
0
71
3
72
8
73
4
74
0
42
0.000000001
43
0.0000000001
44
0.0000000001
40
1.7810634116802826
40
1.7810634116802826
40
1.7810634116802826
40
1.7810634116802826
40
2.4589772549202822
40
2.4589772549202822
40
2.4589772549202822
40
2.4589772549202822
10
-100.40494347051741
20
40.607847670083345
30
0
10
-99.982386351778004
20
41.21257895486589
30
0
10
-99.629152287093547
20
41.987898085714555
30
0
10
-99.14128321221969
20
43.058729766223614
30
0
0
SPLINE
5
320
100
AcDbEntity
8
0
100
AcDbSpline
70
0
71
3
72
8
73
4
74
0
42
0.000000001
43
0.0000000001
44
0.0000000001
40
0
40
0
40
0
40
0
40
0.12206091663007666
40
0.12206091663007666
40
0.12206091663007666
40
0.12206091663007666
10
-98.337161590769881
20
30.208391720467603
30
0
10
-98.501401965504911
20
30.580639044257637
30
0
10
-98.653724087583157
20
30.925873901332981
30
0
10
-98.798025581618333
20
31.245267877232912
30
0
0
SPLINE
5
321
100
AcDbEntity
8
0
100
AcDbSpline
70
0
71
3
72
14
73
10
74
0
42
0.000000001
43
0.0000000001
44
0.0000000001
40
0
40
0
40
0
40
0
40
0.64034331606432404
40
0.64034331606432404
40
0.94941514777140823
40
0.94941514777140823
40
1.264479313359735
40
1.264479313359735
40
1.6250046046454005
40
1.6250046046454005
40
1.6250046046454005
40
1.6250046046454005
10
-99.152631841217485
20
20.521410328560854
30
0
10
-97.957734095907867
20
22.290086250358211
30
0
10
-97.226583219527072
20
23.372328605682661
30
0
10
-96.759431525635165
20
24.798800212481002
30
0
10
-96.701849069585478
20
25.242627288956321
30
0
10
-96.784208812428602
20
26.22916053523435
30
0
10
-96.926556948745741
20
26.765733442999668
30
0
10
-97.433965456474994
20
28.161313198436339
30
0
10
-97.828377388111477
20
29.055241065738613
30
0
10
-98.337161590769881
20
30.208391720467603
30
0
0
SPLINE
5
322
100
AcDbEntity
8
0
100
AcDbSpline
70
0
71
3
72
8
73
4
74
0
42
0.000000001
43
0.0000000001
44
0.0000000001
40
0.44765300697735072
40
0.44765300697735072
40
0.44765300697735072
40
0.44765300697735072
40
0.64191260100845282
40
0.64191260100845282
40
0.64191260100845282
40
0.64191260100845282
10
-101.24730480087068
20
17.501825408290699
30
0
10
-100.73501954373647
20
18.179175573009942
30
0
10
-100.08500406237012
20
19.141322112495047
30
0
10
-99.152631841217485
20
20.521410328560854
30
0
0
SPLINE
5
323
100
AcDbEntity
8
0
100
AcDbSpline
70
4
71
5
72
13
73
7
74
0
42
0.000000001
43
0.0000000001
44
0.0000000001
40
0
40
0
40
0
40
0
40
0
40
0
40
0.20000000000000001
40
0.22940642565328673
40
0.22940642565328673
40
0.22940642565328673
40
0.22940642565328673
40
0.22940642565328673
40
0.22940642565328673
41
1
41
1
41
1
41
1
41
1
41
1
41
1
10
-104.40597412149819
20
21.238648746768177
30
0
10
-103.76241141707456
20
20.647249755816112
30
0
10
-103.07186476799154
20
19.937601539987718
30
0
10
-102.43591872705615
20
19.192090045840299
30
0
10
-101.85140515692441
20
18.413629655303819
30
0
10
-101.31524438129597
20
17.605845184642281
30
0
10
-101.24730480087069
20
17.501825408290674
30
0
0
LINE
5
324
100
AcDbEntity
8
0
100
AcDbLine
10
-104.40597412149819
20
21.238648746768177
30
0
11
-109.60807978241732
21
26.019099847409528
31
0
0
SPLINE
5
325
100
AcDbEntity
8
0
100
AcDbSpline
70
4
71
5
72
14
73
8
74
0
42
0.000000001
43
0.0000000001
44
0.0000000001
40
-0.51366367456889239
40
-0.51366367456889239
40
-0.51366367456889239
40
-0.51366367456889239
40
-0.51366367456889239
40
-0.51366367456889239
40
-0.40000000000000002
40
-0.20000000000000001
40
0
40
0
40
0
40
0
40
0
40
0
41
1
41
1
41
1
41
1
41
1
41
1
41
1
41
1
10
-112.84332779638973
20
31.150643441891095
30
0
10
-112.78143239835731
20
30.904945510327629
30
0
10
-112.58166622053771
20
30.230169944975998
30
0
10
-112.13070454906341
20
29.142096738167741
30
0
10
-111.50320953071687
20
28.092847243458241
30
0
10
-110.71244461417565
20
27.102443507058645
30
0
10
-109.99341979953894
20
26.373206286040517
30
0
10
-109.60807978241732
20
26.019099847409528
30
0
0
SPLINE
5
326
100
AcDbEntity
8
0
100
AcDbSpline
70
0
71
3
72
8
73
4
74
0
42
0.000000001
43
0.0000000001
44
0.0000000001
40
0.47625755549440391
40
0.47625755549440391
40
0.47625755549440391
40
0.47625755549440391
40
0.57304592817493261
40
0.57304592817493261
40
0.57304592817493261
40
0.57304592817493261
10
-113.01639261048646
20
32.100551414827727
30
0
10
-112.98105661780944
20
31.780563583253215
30
0
10
-112.92207128412366
20
31.463220994913385
30
0
10
-112.84332779638974
20
31.150643441891109
30
0
0
SPLINE
5
327
100
AcDbEntity
8
0
100
AcDbSpline
70
0
71
3
72
8
73
4
74
0
42
0.000000001
43
0.0000000001
44
0.0000000001
40
0.3946926938007575
40
0.3946926938007575
40
0.3946926938007575
40
0.3946926938007575
40
0.59414482815900171
40
0.59414482815900171
40
0.59414482815900171
40
0.59414482815900171
10
-111.77876466446111
20
32.428842746183506
30
0
10
-112.23318075527797
20
32.309325456831267
30
0
10
-112.644239743722
20
32.200396327598277
30
0
10
-113.01639261048649
20
32.100551414827777
30
0
0
ARC
5
328
100
AcDbEntity
8
0
100
AcDbCircle
10
-105
20
35
30
0
40
7.249999999999984
210
0
220
0
230
1
100
AcDbArc
50
200.77152826429872
51
328.80890333640065
0
SPLINE
5
329
100
AcDbEntity
8
0
100
AcDbSpline
70
0
71
3
72
8
73
4
74
0
42
0.000000001
43
0.0000000001
44
0.0000000001
40
0
40
0
40
0
40
0
40
0.43433209057954042
40
0.43433209057954042
40
0.43433209057954042
40
0.43433209057954042
10
-59.073787834361198
20
12.317163044625294
30
0
10
-58.319077544676354
20
13.55266329861662
30
0
10
-57.803052650644801
20
14.397423064523668
30
0
10
-57.521404272676108
20
15.115446143317751
30
0
0
SPLINE
5
330
100
AcDbEntity
8
0
100
AcDbSpline
70
0
71
3
72
12
73
8
74
0
42
0.000000001
43
0.0000000001
44
0.0000000001
40
0
40
0
40
0
40
0
40
0.3436806375759886
40
0.3436806375759886
40
0.54191177609234897
40
0.54191177609234897
40
0.8340141644835658
40
0.8340141644835658
40
0.8340141644835658
40
0.8340141644835658
10
-64.148647644236675
20
7.7028452142216519
30
0
10
-63.040788448589034
20
7.9944823723545246
30
0
10
-62.389447352372507
20
8.1659439326520786
30
0
10
-61.522343086724547
20
8.7559089911553372
30
0
10
-61.239429112569169
20
9.0385419972351855
30
0
10
-60.45302281143249
20
10.059283182941051
30
0
10
-59.909870171109382
20
10.948452489689846
30
0
10
-59.073787834361198
20
12.317163044625294
30
0
0
SPLINE
5
331
100
AcDbEntity
8
0
100
AcDbSpline
70
0
71
3
72
12
73
8
74
0
42
0.000000001
43
0.0000000001
44
0.0000000001
40
0
40
0
40
0
40
0
40
0.77001862601429694
40
0.77001862601429694
40
1.1609105855398654
40
1.1609105855398654
40
1.5312157762564449
40
1.5312157762564449
40
1.5312157762564449
40
1.5312157762564449
10
-71.260342107330757
20
9.6004441801843843
30
0
10
-69.048748256877062
20
8.2977741782007328
30
0
10
-67.942951331650207
20
7.6464391772089115
30
0
10
-66.602717293081341
20
7.288827255193091
30
0
10
-66.206097500732014
20
7.2743557377378787
30
0
10
-65.302215357561636
20
7.3991721038095655
30
0
10
-64.80572781104533
20
7.5298709052669217
30
0
10
-64.148647644236675
20
7.7028452142216519
30
0
0
SPLINE
5
332
100
AcDbEntity
8
0
100
AcDbSpline
70
0
71
3
72
12
73
8
74
0
42
0.000000001
43
0.0000000001
44
0.0000000001
40
0
40
0
40
0
40
0
40
0.65188702751975836
40
0.65188702751975836
40
0.97524363013547699
40
0.97524363013547699
40
1.5170425153581018
40
1.5170425153581018
40
1.5170425153581018
40
1.5170425153581018
10
-76.324357940867557
20
17.210864661548307
30
0
10
-76.048395018821054
20
15.0555026178238
30
0
10
-75.891271346281258
20
13.828314568605231
30
0
10
-75.228985547396491
20
12.471743426960298
30
0
10
-74.940066089197529
20
12.10223992963998
30
0
10
-73.85104135625491
20
11.12641432838438
30
0
10
-72.836524296675606
20
10.528844869713883
30
0
10
-71.260342107330757
20
9.6004441801843843
30
0
0
SPLINE
5
333
100
AcDbEntity
8
0
100
AcDbSpline
70
0
71
3
72
12
73
8
74
0
42
0.000000001
43
0.0000000001
44
0.0000000001
40
0
40
0
40
0
40
0
40
0.37080637311685088
40
0.37080637311685088
40
0.58790723350824914
40
0.58790723350824914
40
0.98433017868373285
40
0.98433017868373285
40
0.98433017868373285
40
0.98433017868373285
10
-74.774694778636103
20
24.659602505379688
30
0
10
-75.599716518967981
20
23.739228862279287
30
0
10
-76.114003916909525
20
23.165502688889372
30
0
10
-76.568005361909499
20
22.174492817912714
30
0
10
-76.657547156081293
20
21.790912262232428
30
0
10
-76.736643656655644
20
20.43095298497078
30
0
10
-76.58248983597818
20
19.226960464818518
30
0
10
-76.324357940867557
20
17.210864661548307
30
0
0
SPLINE
5
334
100
AcDbEntity
8
0
100
AcDbSpline
70
0
71
3
72
12
73
8
74
0
42
0.000000001
43
0.0000000001
44
0.0000000001
40
0
40
0
40
0
40
0
40
0.86781039645067914
40
0.86781039645067914
40
1.1871643545002741
40
1.1871643545002741
40
1.7351878200012834
40
1.7351878200012834
40
1.7351878200012834
40
1.7351878200012834
10
-66.885956337168821
20
26.102828365975405
30
0
10
-69.735079910472038
20
26.603044118894914
30
0
10
-71.159641697123647
20
26.853151995354668
30
0
10
-72.508615666263324
20
26.606360428873135
30
0
10
-72.812045062837086
20
26.481740418620099
30
0
10
-73.609119167329467
20
25.959889539338011
30
0
10
-74.082558876461405
20
25.431732027140971
30
0
10
-74.774694778636103
20
24.659602505379688
30
0
0
SPLINE
5
335
100
AcDbEntity
8
0
100
AcDbSpline
70
0
71
3
72
8
73
4
74
0
42
0.000000001
43
0.0000000001
44
0.0000000001
40
1.3892957106563417
40
1.3892957106563417
40
1.3892957106563417
40
1.3892957106563417
40
1.4950565761888059
40
1.4950565761888059
40
1.4950565761888059
40
1.4950565761888059
10
-65.760588850625965
20
25.903821420300925
30
0
10
-66.109130392257441
20
25.966441455924745
30
0
10
-66.483318178160332
20
26.032137402658101
30
0
10
-66.885956337168821
20
26.102828365975405
30
0
0
ARC
5
336
100
AcDbEntity
8
0
100
AcDbCircle
10
-59.615704076027981
20
22.056368872586553
30
0
40
7.2500000000000044
210
0
220
0
230
1
100
AcDbArc
50
147.94837855367152
51
286.7902531306579
0
ARC
5
337
100
AcDbEntity
8
0
100
AcDbCircle
10
25
20
5
30
0
40
7.2500000000000044
210
0
220
0
230
1
100
AcDbArc
50
293.19457905492209
51
297.30155209033802
0
LINE
5
338
100
AcDbEntity
8
0
100
AcDbLine
10
28.325383789553253
20
-1.4423848575024232
30
0
11
28.325383789553257
21
-14.71758877211785
31
0
0
SPLINE
5
339
100
AcDbEntity
8
0
100
AcDbSpline
70
0
71
3
72
8
73
4
74
0
42
0.000000001
43
0.0000000001
44
0.0000000001
40
0
40
0
40
0
40
0
40
0.10756602422430635
40
0.10756602422430635
40
0.10756602422430635
40
0.10756602422430635
10
27.620615356064921
20
-14.044537003586179
30
0
10
27.879188773080617
20
-14.292932532454927
30
0
10
28.11181888295593
20
-14.516405926743435
30
0
10
28.325383789553257
20
-14.717588772117844
30
0
0
SPLINE
5
340
100
AcDbEntity
8
0
100
AcDbSpline
70
0
71
3
72
14
73
10
74
0
42
0.000000001
43
0.0000000001
44
0.0000000001
40
0
40
0
40
0
40
0
40
1.2470202741180076
40
1.2470202741180076
40
1.6808685294090571
40
1.6808685294090571
40
2.1008384633749704
40
2.1008384633749704
40
2.5105646128700498
40
2.5105646128700498
40
2.5105646128700498
40
2.5105646128700498
10
27.374533199719369
20
-3.4961429951947687
30
0
10
26.244672810747488
20
-7.4963748762379145
30
0
10
25.679742616261557
20
-9.496490816759465
30
0
10
25.721204627829785
20
-11.273773822147302
30
0
10
25.804002103871106
20
-11.649881424862192
30
0
10
26.111145343340937
20
-12.336875547902748
30
0
10
26.328765088574357
20
-12.645545268770528
30
0
10
26.882891826065066
20
-13.294410938293371
30
0
10
27.219677870996811
20
-13.636858997026472
30
0
10
27.620615356064913
20
-14.044537003586189
30
0
0
SPLINE
5
341
100
AcDbEntity
8
0
100
AcDbSpline
70
0
71
3
72
8
73
4
74
0
42
0.000000001
43
0.0000000001
44
0.0000000001
40
0.93345853643730325
40
0.93345853643730325
40
0.93345853643730325
40
0.93345853643730325
40
1.035108913123828
40
1.035108913123828
40
1.035108913123828
40
1.035108913123828
10
27.855448353884178
20
-1.6640014029335426
30
0
10
27.706553380627316
20
-2.2229848741470577
30
0
10
27.54768938649913
20
-2.8321616528394742
30
0
10
27.374533199719366
20
-3.4961429951947887
30
0
0
SPLINE
5
342
100
AcDbEntity
8
0
100
AcDbSpline
70
0
71
3
72
8
73
4
74
0
42
0.000000001
43
0.0000000001
44
0.0000000001
40
0
40
0
40
0
40
0
40
0.17705754498912379
40
0.17705754498912379
40
0.17705754498912379
40
0.17705754498912379
10
22.28051641572015
20
-3.4723447577021904
30
0
10
22.450295940451326
20
-2.9071003031521601
30
0
10
22.608022428331349
20
-2.3819838454933469
30
0
10
22.753618067299492
20
-1.8932044951848619
30
0
0
SPLINE
5
343
100
AcDbEntity
8
0
100
AcDbSpline
70
0
71
3
72
16
73
12
74
0
42
0.000000001
43
0.0000000001
44
0.0000000001
40
0
40
0
40
0
40
0
40
0.4732379974180197
40
0.4732379974180197
40
0.75564167305580021
40
0.75564167305580021
40
0.99781971544877268
40
0.99781971544877268
40
1.2834564160996655
40
1.2834564160996655
40
1.81458143272706
40
1.81458143272706
40
1.81458143272706
40
1.81458143272706
10
13.852558626616966
20
-11.427576233532264
30
0
10
15.430017607984713
20
-11.429361324313991
30
0
10
16.595250503430773
20
-11.430679930074772
30
0
10
18.037766934195179
20
-11.205356325681301
30
0
10
18.483241945666641
20
-11.070509506778128
30
0
10
19.197103182183916
20
-10.67016984183825
30
0
10
19.480518292871107
20
-10.4267964400841
30
0
10
20.044122616097191
20
-9.7281700694885238
30
0
10
20.314632111529711
20
-9.242767202678472
30
0
10
21.085701294204291
20
-7.4502290615626618
30
0
10
21.580724464926266
20
-5.8021540871147836
30
0
10
22.28051641572015
20
-3.4723447577021904
30
0
0
SPLINE
5
344
100
AcDbEntity
8
0
100
AcDbSpline
70
0
71
3
72
12
73
8
74
0
42
0.000000001
43
0.0000000001
44
0.0000000001
40
0
40
0
40
0
40
0
40
0.3598866934722636
40
0.3598866934722636
40
0.57721103611521385
40
0.57721103611521385
40
0.97447457712222119
40
0.97447457712222119
40
0.97447457712222119
40
0.97447457712222119
10
5.5901915052384066
20
-9.0518007055781613
30
0
10
6.4116528250032818
20
-9.926040369833224
30
0
10
6.9299605447723298
20
-10.477649016532979
30
0
10
7.9410792878057288
20
-11.036413331602477
30
0
10
8.3627290439908695
20
-11.172783839768641
30
0
10
9.9319272163493473
20
-11.423139552089721
30
0
10
11.389904950394676
20
-11.424789434998717
30
0
10
13.852558626616966
20
-11.427576233532264
30
0
0
SPLINE
5
345
100
AcDbEntity
8
0
100
AcDbSpline
70
0
71
3
72
12
73
8
74
0
42
0.000000001
43
0.0000000001
44
0.0000000001
40
0
40
0
40
0
40
0
40
1.1505447514365545
40
1.1505447514365545
40
1.5670506754422686
40
1.5670506754422686
40
2.301637512517646
40
2.301637512517646
40
2.301637512517646
40
2.301637512517646
10
5.3716486432999222
20
0.720107673022925
30
0
10
4.3679550626724861
20
-2.9813742414973454
30
0
10
3.8661082723587681
20
-4.8321151987574806
30
0
10
3.9033154017409788
20
-6.495791862130103
30
0
10
3.9825451682277042
20
-6.8553932040027341
30
0
10
4.3964077937028847
20
-7.7813171830372667
30
0
10
4.8800073259936569
20
-8.2959876642533494
30
0
10
5.5901915052384066
20
-9.0518007055781613
30
0
0
SPLINE
5
346
100
AcDbEntity
8
0
100
AcDbSpline
70
0
71
3
72
14
73
10
74
0
42
0.000000001
43
0.0000000001
44
0.0000000001
40
0
40
0
40
0
40
0
40
0.54689876190887998
40
0.54689876190887998
40
0.85252195467731606
40
0.85252195467731606
40
1.1228355950806663
40
1.1228355950806663
40
1.845970315814192
40
1.845970315814192
40
1.845970315814192
40
1.845970315814192
10
13.416538729156029
20
8.9394864622888459
30
0
10
11.6099852381274
20
8.6951947572818522
30
0
10
10.343992233231091
20
8.5240004963707321
30
0
10
8.8771976174197285
20
8.0278283552495431
30
0
10
8.452986297591135
20
7.8040611031566343
30
0
10
7.7739368140219609
20
7.2235675106766823
30
0
10
7.509164014344921
20
6.8890973621461269
30
0
10
6.6258252349878966
20
5.3453309463024219
30
0
10
6.1494077196973995
20
3.5883715243809067
30
0
10
5.3716486432999222
20
0.720107673022925
30
0
0
SPLINE
5
347
100
AcDbEntity
8
0
100
AcDbSpline
70
0
71
3
72
10
73
6
74
0
42
0.000000001
43
0.0000000001
44
0.0000000001
40
0.53328102408278677
40
0.53328102408278677
40
0.53328102408278677
40
0.53328102408278677
40
0.6107800960239087
40
0.6107800960239087
40
1.1155819233081221
40
1.1155819233081221
40
1.1155819233081221
40
1.1155819233081221
10
19.158469161539312
20
9.2940677059693382
30
0
10
19.013253212175371
20
9.330604893095348
30
0
10
18.860743266451937
20
9.358647909898707
30
0
10
17.637732618915969
20
9.5103042411332179
30
0
10
16.142550885261283
20
9.3081158701503401
30
0
10
13.416538729156029
20
8.9394864622888459
30
0
0
ARC
5
348
100
AcDbEntity
8
0
100
AcDbCircle
10
25
20
5
30
0
40
7.2500000000093801
210
0
220
0
230
1
100
AcDbArc
50
143.68065876687072
51
251.95006304329598
0
ARC
5
349
100
AcDbEntity
8
0
100
AcDbCircle
10
-90.608245303407969
20
-57.411642931262215
30
0
40
7.2499999999999956
210
0
220
-0
230
1
100
AcDbArc
50
48.517792954596594
51
115.63000678527168
0
SPLINE
5
350
100
AcDbEntity
8
0
100
AcDbSpline
70
0
71
3
72
8
73
4
74
0
42
0.000000001
43
0.0000000001
44
0.0000000001
40
1.2402221471374062
40
1.2402221471374062
40
1.2402221471374062
40
1.2402221471374062
40
1.6487725311038191
40
1.6487725311038191
40
1.6487725311038191
40
1.6487725311038191
10
-97.025940031809782
20
-49.785986651336309
30
0
10
-96.193567274234397
20
-50.111349600184091
30
0
10
-95.116547192408632
20
-50.45358679931968
30
0
10
-93.744290765205207
20
-50.87499861926689
30
0
0
LINE
5
351
100
AcDbEntity
8
0
100
AcDbLine
10
-97.025940031809782
20
-49.785986651336309
30
0
11
-98.052309604266014
21
-41.232906880867752
31
0
0
SPLINE
5
352
100
AcDbEntity
8
0
100
AcDbSpline
70
0
71
3
72
14
73
10
74
0
42
0.000000001
43
0.0000000001
44
0.0000000001
40
0
40
0
40
0
40
0
40
0.93619005461839366
40
0.93619005461839366
40
1.2935406601168336
40
1.2935406601168336
40
1.6182087921868931
40
1.6182087921868931
40
1.8424407784121775
40
1.8424407784121775
40
1.8424407784121775
40
1.8424407784121775
10
-89.803586055949324
20
-37.780772250479671
30
0
10
-92.908074663047017
20
-38.097795949601625
30
0
10
-94.740911875679558
20
-38.284961343511817
30
0
10
-96.369246506888132
20
-38.929253807594179
30
0
10
-96.723576839116163
20
-39.147840047874936
30
0
10
-97.283432357244436
20
-39.68574330985718
30
0
10
-97.497469129070907
20
-39.99166007761194
30
0
10
-97.81734122100211
20
-40.618940615224389
30
0
10
-97.936521241744572
20
-40.907224320371839
30
0
10
-98.052309604266014
20
-41.232906880867681
30
0
0
SPLINE
5
353
100
AcDbEntity
8
0
100
AcDbSpline
70
0
71
3
72
20
73
16
74
0
42
0.000000001
43
0.0000000001
44
0.0000000001
40
0
40
0
40
0
40
0
40
0.62751168015465852
40
0.62751168015465852
40
1.0478426422516121
40
1.0478426422516121
40
1.2386936501322166
40
1.2386936501322166
40
1.4021331627456297
40
1.4021331627456297
40
1.6001963457928292
40
1.6001963457928292
40
1.9739553449309184
40
1.9739553449309184
40
2.5825130909134146
40
2.5825130909134146
40
2.5825130909134146
40
2.5825130909134146
10
-83.752231425161199
20
-45.233014402375829
30
0
10
-83.37031836719801
20
-43.176470034902756
30
0
10
-83.083883573725799
20
-41.634061759299072
30
0
10
-82.922904354447482
20
-39.722576089481407
30
0
10
-82.943645820547204
20
-39.135537927066117
30
0
10
-83.13811907000256
20
-38.489509674322747
30
0
10
-83.227397172311882
20
-38.299860620247429
30
0
10
-83.473708881588351
20
-37.994463905238838
30
0
10
-83.610386569395246
20
-37.88273597027576
30
0
10
-83.958597463886974
20
-37.685938704588565
30
0
10
-84.180323962972849
20
-37.611027797843313
30
0
10
-84.90150529600875
20
-37.46197412523388
30
0
10
-85.47425365375787
20
-37.44844995281349
30
0
10
-87.032871604899356
20
-37.497838904646208
30
0
10
-88.261306881802582
20
-37.623281388588346
30
0
10
-89.803586055949324
20
-37.780772250479671
30
0
0
SPLINE
5
354
100
AcDbEntity
8
0
100
AcDbSpline
70
0
71
3
72
12
73
8
74
0
42
0.000000001
43
0.0000000001
44
0.0000000001
40
1.1521555376856498
40
1.1521555376856498
40
1.1521555376856498
40
1.1521555376856498
40
1.2485672172930871
40
1.2485672172930871
40
1.4731275497365393
40
1.4731275497365393
40
2.0827598956759088
40
2.0827598956759088
40
2.0827598956759088
40
2.0827598956759088
10
-85.805936426238333
20
-51.980222357576267
30
0
10
-85.699653679768844
20
-51.88499700345568
30
0
10
-85.604008415716905
20
-51.7784134155402
30
0
10
-85.31359613352214
20
-51.39396919283007
30
0
10
-85.13824473143697
20
-51.053279381264943
30
0
10
-84.541528338510204
20
-49.483259549972388
30
0
10
-84.217833681630225
20
-47.740212514770413
30
0
10
-83.752231425161199
20
-45.233014402375829
30
0
0
CIRCLE
5
355
100
AcDbEntity
8
0
100
AcDbCircle
10
-51.602859486244917
20
14.004263301391966
30
0
40
2.0000000000000018
210
0
220
-0
230
1
0
CIRCLE
5
356
100
AcDbEntity
8
0
100
AcDbCircle
10
24.000000357627883
20
16.00000023841859
30
0
40
2.0000000000000018
210
0
220
-0
230
1
0
CIRCLE
5
357
100
AcDbEntity
8
0
100
AcDbCircle
10
-9.000000134110449
20
-53.000000789761543
30
0
40
2.0000000000000009
210
0
220
-0
230
1
0
ENDSEC
0
SECTION
2
OBJECTS
0
DICTIONARY
5
C
100
AcDbDictionary
3
ACAD_GROUP
350
D
3
ACAD_MLINESTYLE
350
17
0
DICTIONARY
5
D
100
AcDbDictionary
0
DICTIONARY
5
1A
330
C
100
AcDbDictionary
0
DICTIONARY
5
17
100
AcDbDictionary
0
ENDSEC
0
EOF
